<?xml version="1.0" standalone="no"?>
<!DOCTYPE svg PUBLIC "-//W3C//DTD SVG 1.1//EN" "http://www.w3.org/Graphics/SVG/1.1/DTD/svg11.dtd" >
<svg xmlns="http://www.w3.org/2000/svg" xmlns:xlink="http://www.w3.org/1999/xlink" version="1.1">
<metadata>
Created by FontForge 20170731 at Thu Jun 23 20:34:29 2022
 By Aleksey,,,
Copyright (C) 2011 Markanna Studios Inc.www.SweetFonts.com
</metadata>
<defs>
<font id="SweetSansPro-Regular" horiz-adv-x="1024" >
  <font-face 
    font-family="Sweet Sans Pro"
    font-weight="400"
    font-stretch="normal"
    units-per-em="2048"
    panose-1="2 0 0 0 0 0 0 0 0 0"
    ascent="1577"
    descent="-471"
    x-height="961"
    cap-height="1337"
    bbox="-221 -627 3103 2154"
    underline-thickness="114"
    underline-position="-376"
    unicode-range="U+000D-FB04"
  />
<missing-glyph horiz-adv-x="1185" 
d="M1186 0h-1186v1337h1186v-1337zM592 551l-361 -406h721zM231 1192l361 -406l358 406h-719zM696 668l328 -367v735zM487 668l-325 368v-735z" />
    <glyph glyph-name="f_f" unicode="ff" horiz-adv-x="1406" 
d="M80 961h188v196q0 80 25.5 140t68.5 93.5t91 49.5t100 16q60 0 124 -17t97 -44l-33 -133q-24 21 -71 35t-86 14q-67 0 -109.5 -39t-42.5 -115v-196h508v196q0 80 25.5 140t68.5 93.5t91.5 49.5t101.5 16q59 0 122.5 -17t96.5 -44l-33 -133q-24 21 -70.5 35t-85.5 14
q-68 0 -110.5 -39t-42.5 -115v-196h285v-127h-285v-834h-164v834h-508v-834h-164v834h-188v127z" />
    <glyph glyph-name="f_i" unicode="fi" horiz-adv-x="1269" 
d="M80 961h188v196q0 64 17 116t45 85.5t65.5 56t76 32t79.5 9.5q49 0 104 -12.5t84 -28.5l-30 -135q-20 12 -59 21.5t-68 9.5q-66 0 -108 -39t-42 -115v-196h283v-127h-283v-834h-164v834h-188v127zM1081 0h-163v961h163v-961zM893 1313q0 40 30.5 69t75.5 29t77 -29
t32 -69q0 -41 -31.5 -70t-77.5 -29q-45 0 -75.5 28.5t-30.5 70.5z" />
    <glyph glyph-name="f_l" unicode="fl" horiz-adv-x="1304" 
d="M80 961h188v196q0 64 17 116t45 85.5t65.5 56t76 32t79.5 9.5q49 0 104 -12.5t84 -28.5l-30 -135q-20 12 -59 21.5t-68 9.5q-66 0 -108 -39t-42 -115v-196h283v-127h-283v-834h-164v834h-188v127zM1100 0h-162v1434h162v-1434z" />
    <glyph glyph-name="f_f_i" unicode="ffi" horiz-adv-x="1941" 
d="M940 0v834h-508v-834h-164v834h-188v127h188v196q0 80 25.5 140t68.5 93.5t91 49.5t100 16q60 0 124 -17t97 -44l-33 -133q-24 21 -71 35t-86 14q-67 0 -109.5 -39t-42.5 -115v-196h508v196q0 80 26 140.5t68.5 93.5t90 49t98.5 16q49 0 104 -12.5t86 -28.5l-33 -135
q-19 12 -58 21.5t-69 9.5q-64 0 -106.5 -39t-42.5 -115v-196h285v-127h-285v-834h-164zM1591 0v961h162v-961h-162zM1671 1214q-45 0 -75.5 28.5t-30.5 70.5q0 40 30.5 69t75.5 29t77 -29t32 -69q0 -41 -31.5 -70t-77.5 -29z" />
    <glyph glyph-name="f_f_l" unicode="ffl" horiz-adv-x="1976" 
d="M940 0v834h-508v-834h-164v834h-188v127h188v196q0 80 25.5 140t68.5 93.5t91 49.5t100 16q60 0 124 -17t97 -44l-33 -133q-24 21 -71 35t-86 14q-67 0 -109.5 -39t-42.5 -115v-196h508v196q0 80 26 140.5t68.5 93.5t90 49t98.5 16q49 0 104 -12.5t86 -28.5l-33 -135
q-19 12 -58 21.5t-69 9.5q-64 0 -106.5 -39t-42.5 -115v-196h285v-127h-285v-834h-164zM1610 0v1434h164v-1434h-164z" />
    <glyph glyph-name="f_j" unicode="fj" horiz-adv-x="1269" 
d="M80 961h188v196q0 64 17 116t45 85.5t65.5 56t76 32t79.5 9.5q49 0 104 -12.5t84 -28.5l-30 -135q-20 12 -59 21.5t-68 9.5q-66 0 -108 -39t-42 -115v-196h283v-127h-283v-834h-164v834h-188v127zM754 -465l-45 129q209 30 209 232v1065h163v-1065q0 -77 -20 -139.5
t-53 -103t-76.5 -68t-88 -39t-89.5 -11.5zM893 1313q0 40 30.5 69t75.5 29t77 -29t32 -69q0 -41 -31.5 -70t-77.5 -29q-45 0 -75.5 28.5t-30.5 70.5z" />
    <glyph glyph-name="f_f_j" unicode="ffj" horiz-adv-x="1941" 
d="M940 0v834h-508v-834h-164v834h-188v127h188v196q0 80 25.5 140t68.5 93.5t91 49.5t100 16q60 0 124 -17t97 -44l-33 -133q-24 21 -71 35t-86 14q-67 0 -109.5 -39t-42.5 -115v-196h508v196q0 80 26 140.5t68.5 93.5t90 49t98.5 16q49 0 104 -12.5t86 -28.5l-33 -135
q-19 12 -58 21.5t-69 9.5q-64 0 -106.5 -39t-42.5 -115v-196h285v-127h-285v-834h-164zM1427 -465l-47 129q42 6 75 18.5t66 37t51.5 69.5t18.5 107v1065h162v-1065q0 -95 -30.5 -168t-79.5 -113t-104 -60t-112 -20zM1671 1214q-45 0 -75.5 28.5t-30.5 70.5q0 40 30.5 69
t75.5 29t77 -29t32 -69q0 -41 -31.5 -70t-77.5 -29z" />
    <glyph glyph-name="f_t" unicode="ft" horiz-adv-x="1468" 
d="M80 961h188v196q0 64 17 116t45 85.5t65.5 56t76 32t79.5 9.5q49 0 104 -12.5t84 -28.5l-30 -135q-20 12 -59 21.5t-68 9.5q-66 0 -108 -39t-42 -115v-196h283v-127h-283v-834h-164v834h-188v127zM719 834v127h229v290h164v-290h289v-127h-289v-596q0 -64 37 -96.5
t96 -32.5q39 0 89 9t71 21l20 -127q-29 -20 -91.5 -33.5t-119.5 -13.5q-48 0 -93 14.5t-85 44.5t-64 85.5t-24 128.5v596h-229z" />
    <glyph glyph-name="f_f_t" unicode="fft" horiz-adv-x="2142" 
d="M80 961h188v196q0 80 25.5 140t68.5 93.5t91 49.5t100 16q60 0 124 -17t97 -44l-33 -133q-24 21 -71 35t-86 14q-67 0 -109.5 -39t-42.5 -115v-196h508v196q0 80 26 140.5t68.5 93.5t90 49t98.5 16q49 0 104 -12.5t86 -28.5l-33 -135q-19 12 -58 21.5t-69 9.5
q-64 0 -106.5 -39t-42.5 -115v-196h516v290h164v-290h289v-127h-289v-596q0 -64 37.5 -96.5t97.5 -32.5q38 0 87.5 9t72.5 21l18 -127q-27 -20 -90 -33.5t-119 -13.5q-48 0 -93 14.5t-85.5 44.5t-65 85.5t-24.5 128.5v596h-516v-834h-164v834h-508v-834h-164v834h-188v127z
" />
    <glyph glyph-name="t_t" unicode="tt" horiz-adv-x="1544" 
d="M61 834v127h189v290h164v-290h581v290h164v-290h289v-127h-289v-596q0 -64 37 -96.5t96 -32.5q39 0 89 9t73 21l19 -127q-29 -20 -91 -33.5t-118 -13.5q-39 0 -75.5 8.5t-72 29t-62 50.5t-43 78t-16.5 107v596h-581v-596q0 -64 37 -96.5t96 -32.5q39 0 89 9t71 21
l20 -127q-29 -20 -91.5 -33.5t-119.5 -13.5q-48 0 -93 14.5t-85 44.5t-64 85.5t-24 128.5v596h-189z" />
    <glyph glyph-name=".notdef" horiz-adv-x="1185" 
d="M1186 0h-1186v1337h1186v-1337zM592 551l-361 -406h721zM231 1192l361 -406l358 406h-719zM696 668l328 -367v735zM487 668l-325 368v-735z" />
    <glyph glyph-name=".null" horiz-adv-x="524" 
 />
    <glyph glyph-name=".null" horiz-adv-x="524" 
 />
    <glyph glyph-name="nonmarkingreturn" horiz-adv-x="682" 
 />
    <glyph glyph-name="CR" unicode="&#xd;" horiz-adv-x="501" 
 />
    <glyph glyph-name="space" unicode=" " horiz-adv-x="460" 
 />
    <glyph glyph-name="exclam" unicode="!" horiz-adv-x="614" 
d="M172 96q0 51 38 87t95 36t96 -36t39 -87t-39 -86t-96 -35t-95 35t-38 86zM365 414h-117l-39 600v323h192v-323z" />
    <glyph glyph-name="quotedbl" unicode="&#x22;" horiz-adv-x="931" 
d="M281 825h-103l-37 308v204h176v-204zM752 825h-101l-39 308v204h179v-204z" />
    <glyph glyph-name="numbersign" unicode="#" horiz-adv-x="1802" 
d="M1212 1235h134l-68 -367h410v-125h-433l-71 -389h389v-127h-414l-76 -420h-133l76 420h-375l-76 -420h-135l76 420h-405v127h430l71 389h-387v125h410l67 367h134l-68 -367h377zM745 743l-69 -389h375l71 389h-377z" />
    <glyph glyph-name="dollar" unicode="$" horiz-adv-x="1429" 
d="M653 1358h121v-195q147 -16 269 -63.5t200 -104.5l-100 -116q-56 48 -150.5 86.5t-218.5 52.5v-336q53 -2 97.5 -6.5t101 -15t100.5 -26t89 -41.5t74.5 -59.5t48 -82.5t18.5 -109q0 -77 -27.5 -139.5t-75.5 -105.5t-115.5 -72t-145 -43t-165.5 -15v-246h-121v250
q-311 30 -549 230l103 114q198 -167 446 -196v411q-69 5 -120.5 12t-111 20.5t-101 35t-77 52t-53.5 76t-18 103.5q0 75 29 134t76 96.5t111.5 63t129.5 35.5t135 11v189zM1137 319q0 55 -27 93t-80.5 60t-112 32.5t-143.5 17.5v-409q104 1 183.5 22.5t129.5 68.5t50 115z
M340 844q0 -138 313 -156v336q-63 0 -117 -9.5t-99 -29.5t-71 -56t-26 -85z" />
    <glyph glyph-name="percent" unicode="%" horiz-adv-x="2109" 
d="M113 889q0 143 114 245.5t277 102.5q161 0 278 -103t117 -245q0 -144 -116.5 -247t-278.5 -103q-164 0 -277.5 102.5t-113.5 247.5zM1487 1210l-717 -1210h-141l719 1210h139zM266 889q0 -88 69.5 -151.5t168.5 -63.5q100 0 172 63.5t72 151.5t-72 150.5t-172 62.5
q-99 0 -168.5 -62.5t-69.5 -150.5zM1217 324q0 141 114.5 244.5t274.5 103.5q162 0 279.5 -104t117.5 -244q0 -146 -117 -248.5t-280 -102.5q-161 0 -275 102.5t-114 248.5zM1370 324q0 -90 69 -154t167 -64q100 0 171.5 64.5t71.5 153.5q0 88 -71.5 150.5t-171.5 62.5
q-98 0 -167 -62.5t-69 -150.5z" />
    <glyph glyph-name="ampersand" unicode="&#x26;" horiz-adv-x="1626" 
d="M1200 1184l-88 -140q-135 89 -276 89q-92 0 -153.5 -43t-61.5 -111q0 -22 7.5 -45.5t25.5 -50t31.5 -45t42.5 -47.5t39.5 -40t42 -39.5t32.5 -29.5l329 -315q127 120 234 284l141 -73q-136 -195 -266 -316l276 -262h-233l-168 158q-249 -187 -489 -187q-83 0 -162.5 22.5
t-148.5 67.5t-111.5 122t-42.5 175q0 81 26.5 147.5t75.5 114t104.5 80.5t127.5 60q-91 112 -91 215q0 96 56 169t145 109.5t193 36.5q177 0 362 -106zM702 586l-63 61q-42 -16 -71 -28.5t-68.5 -37t-63.5 -51.5t-41.5 -69t-17.5 -92q0 -51 19 -92.5t50 -68.5t71.5 -45
t81.5 -26t83 -8q171 0 362 133z" />
    <glyph glyph-name="quotesingle" unicode="'" horiz-adv-x="458" 
d="M281 825h-103l-37 308v204h176v-204z" />
    <glyph glyph-name="parenleft" unicode="(" horiz-adv-x="782" 
d="M727 -233l-90 -109q-251 125 -392 362.5t-141 520.5t141.5 521t391.5 363l90 -108q-204 -105 -324 -317t-120 -459q0 -248 120 -458.5t324 -315.5z" />
    <glyph glyph-name="parenright" unicode=")" horiz-adv-x="782" 
d="M55 1317l90 108q250 -125 391.5 -363t141.5 -521t-141 -520.5t-392 -362.5l-90 109q204 105 324.5 316t120.5 458q0 246 -120.5 458.5t-324.5 317.5z" />
    <glyph glyph-name="asterisk" unicode="*" horiz-adv-x="1175" 
d="M117 1044l41 121l354 -102l12 371h129l13 -371l352 102l39 -118l-350 -127l208 -306l-98 -73l-231 290l-228 -290l-100 73l209 306z" />
    <glyph glyph-name="plus" unicode="+" horiz-adv-x="1490" 
d="M178 451v145h488v428h159v-428h488v-145h-488v-431h-159v431h-488z" />
    <glyph glyph-name="comma" unicode="," horiz-adv-x="628" 
d="M164 -373l-49 105q39 11 79.5 31t80 48.5t65 67.5t25.5 80q0 40 -25 47q-32 -8 -53 -8q-54 0 -90.5 32t-36.5 79q0 46 36.5 78t90.5 32q84 0 145.5 -62t61.5 -155q0 -65 -21.5 -121t-54 -95t-78.5 -71.5t-87.5 -52t-88.5 -35.5z" />
    <glyph glyph-name="hyphen" unicode="-" horiz-adv-x="811" 
d="M143 436v162h527v-162h-527z" />
    <glyph glyph-name="period" unicode="." horiz-adv-x="575" 
d="M154 96q0 51 38 87t95 36t95 -36t38 -87t-38 -86t-95 -35t-95 35t-38 86z" />
    <glyph glyph-name="slash" unicode="/" horiz-adv-x="1058" 
d="M961 1337l-703 -1581h-162l703 1581h162z" />
    <glyph glyph-name="zero" unicode="0" horiz-adv-x="1484" 
d="M119 567q0 124 49.5 236t133 192.5t198 128t239.5 47.5q168 0 312 -80t229.5 -219.5t85.5 -304.5t-85.5 -304t-229.5 -218.5t-312 -79.5q-125 0 -239.5 47t-198 127.5t-133 192t-49.5 235.5zM295 567q0 -184 130.5 -315t313.5 -131q185 0 318 131t133 315t-133 316.5
t-318 132.5q-120 0 -222.5 -60.5t-162 -164t-59.5 -224.5z" />
    <glyph glyph-name="one" unicode="1" horiz-adv-x="792" 
d="M80 842l-39 143l346 152h176v-1137h-176v977z" />
    <glyph glyph-name="two" unicode="2" horiz-adv-x="1222" 
d="M246 848l-103 123q59 46 102 75t105.5 61t134 47t154.5 15q88 0 167.5 -19t145.5 -56t105 -99t39 -141q0 -39 -9.5 -73.5t-22.5 -62t-38 -53.5t-46 -44t-56.5 -37t-58 -29.5t-63.5 -25t-61 -20.5t-61 -18t-53 -16q-73 -22 -125.5 -46t-100.5 -60.5t-73 -89t-25 -119.5
v-21h772v-139h-948v143q0 354 494 488q3 1 27 7.5t35 10t37 12t41 15t39 18t38.5 22.5t31.5 26t27 31t16.5 36t6.5 41q0 56 -42 94.5t-102.5 55t-132.5 16.5q-122 0 -211.5 -43t-185.5 -125z" />
    <glyph glyph-name="three" unicode="3" horiz-adv-x="1382" 
d="M623 530v140h186q68 0 125 43.5t57 115.5q0 48 -25.5 85.5t-68 59t-90 32t-96.5 10.5q-114 0 -222.5 -53.5t-197.5 -135.5l-109 109q253 233 533 233q77 0 153 -17.5t145.5 -52.5t112.5 -97.5t43 -143.5q0 -84 -47.5 -146.5t-103.5 -84.5q39 -9 76.5 -26.5t77 -48.5
t64 -83t24.5 -117q0 -121 -79 -210t-211 -133t-298 -44q-356 0 -594 232l108 122q202 -198 486 -198q178 0 295.5 64.5t117.5 176.5q0 48 -26.5 83.5t-68 52.5t-80.5 24.5t-76 7.5h-211z" />
    <glyph glyph-name="four" unicode="4" horiz-adv-x="1419" 
d="M1333 403v-139h-225v-264h-176v264h-862v125l876 748h162v-734h225zM332 410v-7h600v508h-19q-113 -96 -335 -288t-246 -213z" />
    <glyph glyph-name="five" unicode="5" horiz-adv-x="1331" 
d="M1096 1137v-158h-736v-334q67 35 107.5 53t112 35t151.5 17q95 0 181 -22.5t156.5 -66.5t112.5 -117t42 -165q0 -88 -33 -159t-88.5 -118t-130.5 -78.5t-155 -45t-167 -13.5q-304 0 -553 180l92 123q203 -147 461 -147q76 0 144.5 14.5t126.5 43.5t92.5 80t34.5 118
q0 56 -27 100t-72.5 70t-101.5 39.5t-119 13.5q-125 0 -220 -28t-196 -80l-110 79v566h895z" />
    <glyph glyph-name="six" unicode="6" horiz-adv-x="1370" 
d="M1190 1055l-92 -123q-139 84 -340 84q-189 0 -326.5 -118.5t-146.5 -319.5q235 165 501 165q116 0 208.5 -32t148.5 -85t85 -115.5t29 -129.5q0 -175 -145.5 -295.5t-368.5 -120.5q-121 0 -231 38t-197.5 109.5t-139.5 184.5t-52 252q0 114 34 214t94 173.5t140 126.5
t174.5 79.5t196.5 26.5q240 0 428 -114zM770 600q-230 0 -473 -154q34 -154 158.5 -239.5t289.5 -85.5q144 0 241 79.5t97 184.5q0 38 -18 74.5t-54 68.5t-98.5 52t-142.5 20z" />
    <glyph glyph-name="seven" unicode="7" horiz-adv-x="1228" 
d="M100 979v158h1024v-158l-637 -979h-231l666 979h-822z" />
    <glyph glyph-name="eight" unicode="8" horiz-adv-x="1382" 
d="M690 -37q-146 0 -273.5 41.5t-210.5 126t-83 195.5q0 124 88.5 202t216.5 99q-111 19 -171 79.5t-60 157.5q0 76 46 137t119.5 97.5t158.5 56t169 19.5q86 0 171.5 -19.5t159 -56t119.5 -97.5t46 -137q0 -199 -234 -237q129 -20 218.5 -98.5t89.5 -202.5
q0 -111 -83.5 -195.5t-211.5 -126t-275 -41.5zM690 117q96 0 181 25t141.5 78t56.5 122t-60 119t-144 72t-175 22q-65 0 -130 -13.5t-121 -38.5t-91 -67t-35 -94q0 -69 57 -122t141.5 -78t178.5 -25zM690 686q148 0 225.5 42t77.5 122q0 59 -48 102.5t-115 62.5t-140 19
q-71 0 -137.5 -19t-115 -62.5t-48.5 -102.5q0 -80 77.5 -122t223.5 -42z" />
    <glyph glyph-name="nine" unicode="9" horiz-adv-x="1366" 
d="M174 82l92 123q139 -84 340 -84q122 0 226 50.5t172 151.5t75 234q-244 -164 -499 -164q-117 0 -210 32t-149 85t-85.5 115.5t-29.5 128.5q0 177 146 296t371 119q121 0 230.5 -37.5t197 -108.5t139 -183.5t51.5 -251.5q0 -114 -34 -214.5t-93.5 -174.5t-140 -127
t-174.5 -80t-195 -27q-238 0 -430 117zM594 535q128 0 251.5 45.5t221.5 107.5q-34 156 -159 242t-290 86q-142 0 -239.5 -80t-97.5 -184q0 -38 18 -75t54 -69.5t98.5 -52.5t142.5 -20z" />
    <glyph glyph-name="colon" unicode=":" horiz-adv-x="665" 
d="M199 96q0 51 38 87t95 36t96 -36t39 -87t-39 -86t-96 -35t-95 35t-38 86zM199 786q0 51 38 87t95 36t96 -36t39 -87t-39 -85.5t-96 -34.5t-95 34.5t-38 85.5z" />
    <glyph glyph-name="semicolon" unicode=";" horiz-adv-x="692" 
d="M205 -373l-49 105q39 11 79.5 31t80 48.5t65 67.5t25.5 80q0 40 -25 47q-32 -8 -53 -8q-54 0 -90.5 32t-36.5 79q0 46 36.5 78t90.5 32q84 0 145.5 -62t61.5 -155q0 -65 -21.5 -121t-54 -95t-78.5 -71.5t-87.5 -52t-88.5 -35.5zM201 786q0 51 38 87t95 36t96 -36t39 -87
t-39 -85.5t-96 -34.5t-95 34.5t-38 85.5z" />
    <glyph glyph-name="less" unicode="&#x3c;" horiz-adv-x="1490" 
d="M1313 997v-166l-930 -299v-20l930 -297v-164l-1135 391v162z" />
    <glyph glyph-name="equal" unicode="=" horiz-adv-x="1490" 
d="M178 698v148h1135v-148h-1135zM178 201v147h1135v-147h-1135z" />
    <glyph glyph-name="greater" unicode="&#x3e;" horiz-adv-x="1490" 
d="M178 831v166l1135 -393v-162l-1135 -391v164l930 297v20z" />
    <glyph glyph-name="question" unicode="?" horiz-adv-x="1206" 
d="M211 1030l-111 103q53 57 102 96t114 73t147 51t182 17q71 0 133.5 -10t119 -33.5t96.5 -59.5t63.5 -92t23.5 -126q0 -83 -34.5 -142t-98.5 -112q-36 -31 -91 -67.5t-96.5 -65t-83 -64.5t-66.5 -82t-31 -102h-158q2 77 29.5 140t76 110.5t95 81.5t108.5 74.5t94 68.5
q50 36 74.5 71t24.5 84q0 92 -81 138.5t-202 46.5q-145 0 -242.5 -50.5t-187.5 -148.5zM399 96q0 52 37.5 87.5t93.5 35.5q58 0 97 -36t39 -87t-39 -86t-97 -35q-57 0 -94 35t-37 86z" />
    <glyph glyph-name="at" unicode="@" horiz-adv-x="2025" 
d="M1333 967h150l-185 -559q-8 -21 -8 -43q0 -53 31 -82t86 -29q57 0 121 35t119.5 94.5t92 151t36.5 192.5q0 232 -184.5 384.5t-479.5 152.5q-169 0 -323.5 -54.5t-271.5 -150.5t-187 -239t-70 -310q0 -111 31.5 -208.5t86.5 -170t128 -129.5t158.5 -93t176 -54.5
t181.5 -18.5q134 0 287.5 35.5t236.5 79.5l43 -107q-88 -51 -254 -93t-321 -42q-105 0 -210 22t-206 64.5t-188 110.5t-153 154t-104 201.5t-38 246.5q0 195 82 362.5t219.5 280.5t318 176.5t377.5 63.5q176 0 325.5 -51t252 -139t160 -209t57.5 -259q0 -132 -51.5 -249
t-131 -193t-173 -120t-179.5 -44q-91 0 -150 44t-59 116v16q-68 -84 -153.5 -129t-171.5 -45q-120 0 -204.5 83.5t-84.5 242.5q0 113 46.5 217.5t118.5 175.5t158.5 113.5t165.5 42.5q94 0 160 -56t82 -135zM879 272q63 0 135 37t139 109l80 250q-13 79 -67 136.5t-128 57.5
q-40 0 -85 -17t-88 -50.5t-77.5 -78.5t-55.5 -107.5t-21 -131.5q0 -102 46 -153.5t122 -51.5z" />
    <glyph glyph-name="A" unicode="A" horiz-adv-x="1542" 
d="M252 0h-184l620 1337h168l621 -1337h-195l-182 401h-668zM760 1128l-264 -583h540l-264 583h-12z" />
    <glyph glyph-name="B" unicode="B" horiz-adv-x="1675" 
d="M1044 0h-796v1337h776q210 0 326 -116q90 -90 90 -211q0 -96 -54 -175.5t-137 -107.5q120 -24 190 -117.5t70 -218.5q0 -162 -120 -276q-59 -56 -139.5 -85.5t-205.5 -29.5zM1077 621h-651v-463h625q131 0 204 73q70 67 70 162q0 87 -63 150q-75 78 -185 78zM1006 1180
h-580v-416h604q103 0 162 59q63 63 63 154q0 79 -55 137q-69 66 -194 66z" />
    <glyph glyph-name="C" unicode="C" horiz-adv-x="1595" 
d="M1384 348l119 -117q-119 -118 -283.5 -192t-357.5 -74q-159 0 -296.5 55.5t-233.5 150.5t-150.5 224.5t-54.5 274.5q0 143 54.5 272t149.5 223.5t231 150.5t292 56q176 0 337.5 -62t274.5 -167l-120 -119q-92 88 -224 139t-264 51q-156 0 -281.5 -74t-194.5 -198.5
t-69 -273.5q0 -150 69.5 -274t196.5 -197.5t285 -73.5q152 0 287 62t233 163z" />
    <glyph glyph-name="D" unicode="D" horiz-adv-x="1673" 
d="M842 0h-594v1337h594q177 0 294.5 -46.5t215.5 -139.5q90 -91 138 -215t48 -266q0 -146 -51.5 -274.5t-145.5 -219.5q-100 -90 -211 -133t-288 -43zM426 158h410q134 0 210 30.5t156 98.5q71 71 110.5 170.5t39.5 212.5q0 110 -37.5 206.5t-106.5 167.5q-77 70 -158 103
t-214 33h-410v-1022z" />
    <glyph glyph-name="E" unicode="E" horiz-adv-x="1468" 
d="M967 782v-157h-541v-467h944v-158h-1122v1337h1075v-157h-897v-398h541z" />
    <glyph glyph-name="F" unicode="F" horiz-adv-x="1345" 
d="M426 0h-178v1337h1057v-157h-879v-410h541v-158h-541v-612z" />
    <glyph glyph-name="G" unicode="G" horiz-adv-x="1662" 
d="M1460 1147l-123 -111q-88 82 -217.5 130t-257.5 48q-155 0 -281.5 -73.5t-197 -198.5t-70.5 -274q0 -108 39.5 -206.5t111 -174t179.5 -120t236 -44.5q120 0 238.5 35t193.5 96v317h-434v158h596v-561q-122 -94 -284 -148.5t-321 -54.5q-206 0 -376.5 94.5t-267.5 256.5
t-97 354t97 353t265.5 255t370.5 94q159 0 315.5 -58.5t284.5 -166.5z" />
    <glyph glyph-name="H" unicode="H" horiz-adv-x="1673" 
d="M426 0h-178v1337h178v-532h821v532h176v-1337h-176v647h-821v-647z" />
    <glyph glyph-name="I" unicode="I" horiz-adv-x="673" 
d="M426 0h-178v1337h178v-1337z" />
    <glyph glyph-name="J" unicode="J" horiz-adv-x="1355" 
d="M958 1337h177v-862q0 -239 -155.5 -374.5t-406.5 -135.5q-96 0 -177.5 22.5t-135 55t-99.5 81t-71 88t-49 89.5l147 78q17 -37 35 -68t50.5 -67.5t71.5 -61.5t98 -42t128 -17q172 0 279.5 93t107.5 259v862z" />
    <glyph glyph-name="K" unicode="K" horiz-adv-x="1546" 
d="M1190 1337h219l-532 -510l645 -827h-230l-544 709l-322 -314v-395h-178v1337h178v-743z" />
    <glyph glyph-name="L" unicode="L" horiz-adv-x="1312" 
d="M248 1337h178v-1179h844v-158h-1022v1337z" />
    <glyph glyph-name="M" unicode="M" horiz-adv-x="1867" 
d="M1620 0h-178v1014h-10l-484 -813h-37l-483 813h-10v-1014h-170v1337h188l500 -841h4l500 841h180v-1337z" />
    <glyph glyph-name="N" unicode="N" horiz-adv-x="1687" 
d="M1262 1337h178v-1337h-162l-850 1026h-2v-1026h-178v1337h162l850 -1026h2v1026z" />
    <glyph glyph-name="O" unicode="O" horiz-adv-x="1742" 
d="M129 672q0 143 58 272.5t156.5 223t236 149t290.5 55.5q152 0 290.5 -55.5t238 -149t158.5 -223t59 -272.5q0 -145 -59 -276t-158.5 -225.5t-237.5 -150t-291 -55.5t-290.5 55.5t-236.5 150t-156.5 225.5t-57.5 276zM315 672q0 -150 73 -276t200.5 -199.5t281.5 -73.5
q115 0 219 43.5t178.5 117t118.5 175t44 213.5q0 110 -44 210.5t-118.5 173t-178.5 115.5t-219 43q-154 0 -281.5 -72.5t-200.5 -197t-73 -272.5z" />
    <glyph glyph-name="P" unicode="P" horiz-adv-x="1531" 
d="M426 0h-178v1337h723q246 0 375 -135q102 -111 102 -258q0 -163 -119 -276q-126 -123 -358 -123h-545v-545zM971 1180h-545v-478h545q148 0 229 76q72 69 72 164q0 86 -64 156q-76 82 -237 82z" />
    <glyph glyph-name="Q" unicode="Q" horiz-adv-x="1742" 
d="M129 672q0 143 58 272.5t156.5 223t236 149t290.5 55.5q152 0 290.5 -55.5t238 -149t158.5 -223t59 -272.5q0 -188 -95 -347t-257 -255l180 -254l-172 -56l-170 240q-110 -35 -232 -35q-153 0 -290.5 55.5t-236.5 150t-156.5 225.5t-57.5 276zM819 401l172 56l176 -252
q121 75 192 198.5t71 268.5q0 110 -44 210.5t-118.5 173t-178.5 115.5t-219 43q-154 0 -281.5 -72.5t-200.5 -197t-73 -272.5q0 -150 73 -276t200.5 -199.5t281.5 -73.5q65 0 134 16z" />
    <glyph glyph-name="R" unicode="R" horiz-adv-x="1615" 
d="M426 0h-178v1337h737q246 0 375 -135q102 -108 102 -262q0 -134 -84.5 -234t-226.5 -139l330 -567h-203l-307 545h-545v-545zM985 1180h-559v-478h604q109 0 182.5 70.5t73.5 169.5q0 90 -63 156q-82 82 -238 82z" />
    <glyph glyph-name="S" unicode="S" horiz-adv-x="1517" 
d="M1307 1178l-107 -123q-74 66 -201 116t-294 50q-68 0 -128 -12.5t-110.5 -39t-80.5 -72.5t-30 -106q0 -41 14 -71.5t51 -50.5t64.5 -32t92.5 -20t94 -10.5t108 -6.5q10 -1 15 -1q212 -15 317 -44q292 -85 293 -354q0 -113 -47.5 -198.5t-131.5 -136.5t-189 -76t-230 -25
q-403 0 -703 275l109 122q51 -47 101.5 -83.5t125.5 -76.5t170 -62.5t201 -22.5q117 0 209 27t149.5 87.5t57.5 147.5q0 49 -15.5 87t-47 63.5t-67.5 43t-90 28t-100.5 16t-111.5 10.5q-83 5 -127 8.5t-120 14t-119 24.5t-97.5 40t-83.5 60t-49.5 85.5t-20.5 115.5
q0 88 33 158t85.5 114t123.5 73t143 40.5t148 11.5q188 0 346 -59t250 -135z" />
    <glyph glyph-name="T" unicode="T" horiz-adv-x="1343" 
d="M63 1180v157h1217v-157h-518v-1180h-178v1180h-521z" />
    <glyph glyph-name="U" unicode="U" horiz-adv-x="1617" 
d="M1219 1337h178v-862q0 -159 -77.5 -276t-210 -175.5t-302.5 -58.5q-168 0 -299.5 58.5t-209 175.5t-77.5 276v862h176v-862q0 -165 116 -258.5t294 -93.5q181 0 296.5 93.5t115.5 258.5v862z" />
    <glyph glyph-name="V" unicode="V" horiz-adv-x="1538" 
d="M1282 1337h193l-623 -1337h-166l-623 1337h201l504 -1114h12z" />
    <glyph glyph-name="W" unicode="W" horiz-adv-x="2064" 
d="M90 1337h195l331 -1069h11l342 1069h135l342 -1069h12l332 1069h184l-430 -1337h-182l-324 1004h-12l-324 -1004h-182z" />
    <glyph glyph-name="X" unicode="X" horiz-adv-x="1470" 
d="M1157 1337h215l-526 -637l561 -700h-227l-449 575l-461 -575h-215l570 692l-514 645h225l405 -520z" />
    <glyph glyph-name="Y" unicode="Y" horiz-adv-x="1378" 
d="M1118 1337h209l-549 -710v-627h-178v627l-549 710h225l420 -553z" />
    <glyph glyph-name="Z" unicode="Z" horiz-adv-x="1394" 
d="M1270 158v-158h-1170v113l906 1067h-846v157h1102v-112l-906 -1067h914z" />
    <glyph glyph-name="bracketleft" unicode="[" horiz-adv-x="724" 
d="M643 -172v-143h-446v1726h446v-143h-285v-1440h285z" />
    <glyph glyph-name="backslash" unicode="\" horiz-adv-x="1067" 
d="M825 -244l-702 1581h162l702 -1581h-162z" />
    <glyph glyph-name="bracketright" unicode="]" horiz-adv-x="724" 
d="M82 1411h446v-1726h-446v143h285v1440h-285v143z" />
    <glyph glyph-name="asciicircum" unicode="^" horiz-adv-x="1490" 
d="M397 434h-184l446 821h177l442 -821h-182l-340 649h-15z" />
    <glyph glyph-name="underscore" unicode="_" horiz-adv-x="1228" 
d="M-12 -319v114h1253v-114h-1253z" />
    <glyph glyph-name="grave" unicode="`" 
d="M266 1417l189 2l174 -299l-148 -2z" />
    <glyph glyph-name="a" unicode="a" horiz-adv-x="1228" 
d="M233 733l-59 133q81 50 196 87.5t246 37.5q66 0 126 -9t117 -30t98.5 -53t66.5 -81t25 -111v-533q0 -117 30 -174h-166q-24 46 -28 135q-169 -155 -400 -155q-175 0 -279 91t-104 238q0 136 118 226t325 90q98 0 192.5 -25t147.5 -76v138q0 95 -78 142.5t-197 47.5
q-107 0 -211 -37t-166 -82zM518 117q70 0 138.5 20t115 48.5t75.5 51t38 35.5v121q-41 46 -128.5 74.5t-185.5 28.5q-154 0 -228.5 -51.5t-74.5 -135.5q0 -83 66.5 -137.5t183.5 -54.5z" />
    <glyph glyph-name="b" unicode="b" horiz-adv-x="1284" 
d="M326 0h-152q19 100 19 246v1188h161v-603q151 160 332 160q97 0 184.5 -37t152.5 -102t103.5 -161t38.5 -208q0 -114 -38.5 -211t-105 -162.5t-155.5 -102t-188 -36.5q-112 0 -203 54t-135 116q0 -78 -14 -141zM672 848q-165 0 -318 -150v-434q17 -20 41.5 -42t63.5 -48
t92.5 -42.5t110.5 -16.5q137 0 230 102t93 266q0 162 -90.5 263.5t-222.5 101.5z" />
    <glyph glyph-name="c" unicode="c" horiz-adv-x="1155" 
d="M1049 834l-111 -111q-61 61 -142 93t-163 32q-141 0 -238.5 -101.5t-97.5 -263.5q0 -163 101 -264.5t247 -101.5q181 0 316 141l110 -102q-19 -23 -52 -49.5t-87.5 -59.5t-134 -54.5t-166.5 -21.5q-103 0 -196.5 37t-164 102t-112 162t-41.5 211q0 149 70 266
t187.5 179.5t258.5 62.5q243 0 416 -157z" />
    <glyph glyph-name="d" unicode="d" horiz-adv-x="1284" 
d="M1110 0h-152q-14 63 -14 141q-44 -62 -136.5 -116t-205.5 -54q-99 0 -187 36.5t-153.5 102t-104 162.5t-38.5 211q0 112 38.5 208t104.5 161t154 102t186 37q182 0 328 -143v586h164v-1188q0 -162 16 -246zM618 848q-135 0 -227 -101.5t-92 -263.5q0 -164 92 -266
t227 -102q75 0 145.5 30t106.5 60t60 59v434q-150 150 -312 150z" />
    <glyph glyph-name="e" unicode="e" horiz-adv-x="1218" 
d="M971 258l108 -106q-83 -80 -206.5 -130.5t-262.5 -50.5q-151 0 -264.5 68.5t-171 181t-57.5 250.5q0 220 144.5 370t363.5 150q70 0 137.5 -17t130 -55t110 -93t76 -137t29.5 -181q0 -33 -2 -49h-825q5 -148 96.5 -245t249.5 -97q100 0 190.5 38t153.5 103zM616 854
q-124 0 -209 -74t-114 -192h635q-3 126 -97.5 196t-214.5 70z" />
    <glyph glyph-name="f" unicode="f" horiz-adv-x="735" 
d="M80 961h188v196q0 80 25.5 140t68.5 93.5t91 49.5t100 16q60 0 124 -17t97 -44l-33 -133q-24 21 -71 35t-86 14q-67 0 -109.5 -39t-42.5 -115v-196h283v-127h-283v-834h-164v834h-188v127z" />
    <glyph glyph-name="g" unicode="g" horiz-adv-x="1284" 
d="M930 -61v190q-152 -158 -332 -158q-97 0 -184.5 36.5t-152.5 101.5t-103.5 160.5t-38.5 207.5q0 114 39 211t105 163t155.5 103t189.5 37q110 0 201.5 -57t134.5 -121q0 76 21 150h151q-22 -92 -22 -246v-778q0 -84 -31.5 -156.5t-90.5 -128t-151.5 -87.5t-208.5 -32
q-281 0 -436 166l98 96q121 -125 338 -125q151 0 234.5 75t83.5 192zM612 115q168 0 318 147v434q-17 21 -41.5 43t-63.5 48.5t-92 43.5t-110 17q-136 0 -230 -103t-94 -268q0 -161 90.5 -261.5t222.5 -100.5z" />
    <glyph glyph-name="h" unicode="h" horiz-adv-x="1236" 
d="M352 0h-162v1434h162v-603q147 160 326 160q171 0 277 -95t106 -245v-651h-164v651q0 83 -66 140t-167 57q-161 0 -312 -164v-684z" />
    <glyph glyph-name="i" unicode="i" horiz-adv-x="542" 
d="M352 0h-162v961h162v-961zM164 1313q0 40 30.5 69t75.5 29t77 -29t32 -69q0 -41 -31.5 -70t-77.5 -29q-45 0 -75.5 28.5t-30.5 70.5z" />
    <glyph glyph-name="j" unicode="j" horiz-adv-x="542" 
d="M27 -465l-47 129q42 6 75 18.5t66 37t51 69.5t18 107v1065h162v-1065q0 -77 -20 -139.5t-53 -103t-76 -68t-87 -39t-89 -11.5zM164 1313q0 40 30.5 69t75.5 29t77 -29t32 -69q0 -41 -31.5 -70t-77.5 -29q-45 0 -75.5 28.5t-30.5 70.5z" />
    <glyph glyph-name="k" unicode="k" horiz-adv-x="1153" 
d="M850 961h221l-387 -343l446 -618h-204l-363 512l-209 -184v-328h-164v1434h164v-932z" />
    <glyph glyph-name="l" unicode="l" horiz-adv-x="571" 
d="M367 0h-164v1434h164v-1434z" />
    <glyph glyph-name="m" unicode="m" horiz-adv-x="1832" 
d="M356 0h-163v717q0 118 -27 244h149q20 -74 23 -146q68 81 143 128.5t181 47.5q109 0 192.5 -53t124.5 -141q136 194 334 194q147 0 245.5 -96t98.5 -244v-651h-166v651q0 83 -58 140t-147 57q-148 0 -280 -164v-684h-164v678q-8 71 -63.5 120.5t-141.5 49.5
q-153 0 -281 -164v-684z" />
    <glyph glyph-name="n" unicode="n" horiz-adv-x="1241" 
d="M356 0h-163v717q0 118 -27 244h149q20 -74 23 -148q74 82 156.5 130t197.5 48q159 0 265 -96t106 -244v-651h-164v651q0 83 -65.5 140t-165.5 57q-165 0 -312 -164v-684z" />
    <glyph glyph-name="o" unicode="o" horiz-adv-x="1263" 
d="M117 483q0 214 146 361t368 147q223 0 369.5 -146.5t146.5 -361.5q0 -142 -65.5 -259t-184 -185t-266.5 -68q-222 0 -368 147.5t-146 364.5zM287 483q0 -157 96 -265.5t248 -108.5q154 0 251 108.5t97 265.5q0 154 -97.5 262.5t-250.5 108.5q-151 0 -247.5 -108.5
t-96.5 -262.5z" />
    <glyph glyph-name="p" unicode="p" horiz-adv-x="1284" 
d="M356 -430h-163v1143q0 149 -23 248h152q18 -73 18 -142q53 68 146 120t202 52q97 0 184 -37t152 -102.5t103 -162.5t38 -210q0 -112 -39 -208t-105 -161.5t-155 -102t-188 -36.5q-93 0 -176.5 43.5t-145.5 114.5v-559zM356 698v-436q143 -147 306 -147q138 0 230.5 100.5
t92.5 263.5q0 164 -90.5 266.5t-222.5 102.5q-98 0 -180.5 -46.5t-135.5 -103.5z" />
    <glyph glyph-name="q" unicode="q" horiz-adv-x="1284" 
d="M1094 -430h-164v559q-63 -71 -148.5 -114.5t-179.5 -43.5q-98 0 -186 36.5t-154 101.5t-104.5 161.5t-38.5 208.5q0 113 38.5 210t104 162.5t153.5 102.5t187 37q107 0 198.5 -52t143.5 -120q0 69 21 142h151q-22 -95 -22 -248v-1143zM930 262v436q-54 58 -134 104
t-178 46q-134 0 -226.5 -102.5t-92.5 -266.5q0 -162 92 -263t227 -101q88 0 169.5 42t142.5 105z" />
    <glyph glyph-name="r" unicode="r" horiz-adv-x="811" 
d="M356 0h-163v717q0 122 -29 244h151q20 -80 23 -166q61 90 129 143t164 53q102 0 145 -49l-53 -149q-20 17 -59 27.5t-70 10.5q-70 0 -126.5 -48.5t-111.5 -127.5v-655z" />
    <glyph glyph-name="s" unicode="s" horiz-adv-x="1128" 
d="M958 877l-63 -125q-63 39 -162.5 72.5t-200.5 33.5q-60 0 -110.5 -14t-85.5 -47t-35 -80q0 -28 12 -50t35 -35.5t47 -22.5t59.5 -13.5t59.5 -6.5t59 -3q38 -2 60.5 -3.5t64 -6t68.5 -10t64.5 -17t62.5 -25.5t52.5 -36t43.5 -49t26.5 -64t10.5 -80q0 -108 -61.5 -183
t-161 -109t-228.5 -34q-257 0 -471 150l64 123q59 -39 106 -64t130.5 -49.5t168.5 -24.5q127 0 208 46t81 129q0 32 -12.5 57t-37.5 40.5t-50 25.5t-63 16t-63 8t-63 4q-43 3 -68 4.5t-66.5 6.5t-67 10.5t-61 16t-57 24t-45.5 33t-37.5 44t-22.5 57.5t-9 72q0 65 23.5 117
t61.5 85t90 55t105.5 31t110.5 9q123 0 241 -37t187 -81z" />
    <glyph glyph-name="t" unicode="t" horiz-adv-x="798" 
d="M61 834v127h189v290h164v-290h288v-127h-288v-596q0 -64 37 -96.5t96 -32.5q39 0 89 9t71 21l20 -127q-29 -20 -91.5 -33.5t-119.5 -13.5q-48 0 -93 14.5t-85 44.5t-64 85.5t-24 128.5v596h-189z" />
    <glyph glyph-name="u" unicode="u" horiz-adv-x="1239" 
d="M883 961h164v-715q0 -162 16 -246h-150q-14 63 -14 147q-35 -38 -66.5 -65.5t-74.5 -54.5t-96.5 -41.5t-114.5 -14.5q-159 0 -266 95.5t-107 242.5v652h166v-652q0 -83 65.5 -138.5t165.5 -55.5q168 0 312 161v685z" />
    <glyph glyph-name="v" unicode="v" horiz-adv-x="1114" 
d="M883 961h168l-422 -961h-144l-419 961h184l305 -738h12z" />
    <glyph glyph-name="w" unicode="w" horiz-adv-x="1591" 
d="M1337 961h179l-320 -961h-172l-223 725h-10l-224 -725h-172l-319 961h178l223 -746h12l230 746h162l231 -746h10z" />
    <glyph glyph-name="x" unicode="x" horiz-adv-x="1136" 
d="M848 961h207l-387 -467l409 -494h-205l-303 389l-303 -389h-207l410 494l-387 467h209l278 -365z" />
    <glyph glyph-name="y" unicode="y" horiz-adv-x="1138" 
d="M909 961h166l-672 -1391h-167l239 475l-412 916h185l311 -736h8z" />
    <glyph glyph-name="z" unicode="z" horiz-adv-x="1071" 
d="M958 129v-129h-864v98l629 736h-576v127h803v-99l-631 -733h639z" />
    <glyph glyph-name="braceleft" unicode="{" horiz-adv-x="778" 
d="M698 -172v-143q-128 0 -201.5 12t-123.5 49t-68 100t-18 170v260q0 216 -232 216v147q95 0 164.5 62.5t69.5 162.5v211q1 72 9.5 123t28.5 89.5t49.5 62t77 38t105 20t139.5 5.5v-143q-146 0 -195 -36.5t-52 -158.5v-211q0 -124 -69.5 -204.5t-164.5 -86.5v-16
q232 -4 232 -281v-260q0 -117 50 -152.5t199 -35.5z" />
    <glyph glyph-name="bar" unicode="|" horiz-adv-x="716" 
d="M285 -627v2476h151v-2476h-151z" />
    <glyph glyph-name="braceright" unicode="}" horiz-adv-x="778" 
d="M80 -315v143q144 0 196 36t52 152v260q0 277 233 281v16q-95 6 -165 86.5t-70 204.5v211q-3 121 -53.5 158t-192.5 37v143q82 0 139.5 -5.5t105 -20t76 -38t48.5 -62t28.5 -89.5t9.5 -123v-211q0 -100 70.5 -162.5t165.5 -62.5v-147q-234 0 -234 -216v-260
q0 -71 -7.5 -121.5t-27.5 -88.5t-48.5 -60.5t-77 -36.5t-106 -19t-142.5 -5z" />
    <glyph glyph-name="asciitilde" unicode="~" horiz-adv-x="1490" 
d="M236 406l-121 77q104 117 191.5 174.5t180.5 57.5q94 0 165 -37.5t136 -97.5q33 -30 53 -46t61.5 -34.5t82.5 -18.5q118 0 266 160l127 -78q-208 -239 -399 -239q-53 0 -99.5 12t-86 37t-60.5 41.5t-53 45.5q-7 6 -10 9q-49 42 -93 65t-96 23q-100 0 -245 -151z" />
    <glyph glyph-name="nbspace" unicode="&#xa0;" horiz-adv-x="460" 
 />
    <glyph glyph-name="exclamdown" unicode="&#xa1;" horiz-adv-x="589" 
d="M387 864q0 -51 -38 -87t-95 -36t-96 36t-39 87t39 86t96 35t95 -35t38 -86zM195 547h116l39 -600v-324h-192v324z" />
    <glyph glyph-name="cent" unicode="&#xa2;" horiz-adv-x="1196" 
d="M702 1087h121l-45 -198q151 -30 277 -127l-107 -109q-88 67 -200 92l-142 -630h23q173 0 325 129l109 -103q-18 -21 -50.5 -45.5t-86.5 -54t-132.5 -49t-164.5 -19.5q-38 0 -56 2l-55 -254h-119l62 277q-156 44 -253 162t-97 282q0 136 68 243t183 164.5t254 57.5
q32 0 46 -2zM289 442q0 -107 55.5 -187t147.5 -116l139 623h-15q-138 0 -232.5 -88.5t-94.5 -231.5z" />
    <glyph glyph-name="sterling" unicode="&#xa3;" horiz-adv-x="1470" 
d="M129 545v127h277v159q0 84 39 150.5t104 106.5t144 60.5t165 20.5q94 0 224.5 -40t242.5 -105l-88 -121q-96 48 -201.5 79.5t-177.5 31.5q-71 0 -131.5 -18.5t-102.5 -61.5t-42 -103v-159h516v-127h-516v-180q0 -104 -38.5 -155.5t-127.5 -68.5h909v-141h-1196v141h78
q114 0 156.5 45t42.5 179v180h-277z" />
    <glyph glyph-name="currency" unicode="&#xa4;" horiz-adv-x="1519" 
d="M197 528q0 177 104 316l-164 153l115 115l162 -151q153 118 344 118q195 0 348 -118l164 151l114 -115l-165 -153q106 -141 106 -316q0 -172 -106 -317l165 -152l-114 -114l-164 151q-154 -119 -348 -119q-191 0 -344 117l-162 -149l-115 114l164 152q-104 139 -104 317z
M373 528q0 -161 113.5 -276t271.5 -115q160 0 274.5 115t114.5 276t-114.5 276.5t-274.5 115.5q-158 0 -271.5 -115.5t-113.5 -276.5z" />
    <glyph glyph-name="yen" unicode="&#xa5;" horiz-adv-x="1562" 
d="M141 649v113h357l-310 375h226l374 -453l375 453h209l-309 -375h360v-113h-452l-101 -123v-28h553v-113h-553v-385h-176v385h-553v113h553v28l-102 123h-451z" />
    <glyph glyph-name="brokenbar" unicode="&#xa6;" horiz-adv-x="716" 
d="M285 784v846h151v-846h-151zM285 -465v860h151v-860h-151z" />
    <glyph glyph-name="section" unicode="&#xa7;" horiz-adv-x="1449" 
d="M1245 193q-59 -56 -149 -89q20 -14 39 -41q26 -47 26 -106q0 -60 -26.5 -108.5t-69.5 -79.5t-99.5 -52t-114.5 -30t-118 -9q-113 0 -224.5 28t-195.5 79l78 121q67 -39 158.5 -62.5t183.5 -23.5q41 0 81 6t81 19.5t66.5 41t25.5 66.5t-24 57q-12 11 -31 20t-36.5 14
t-49 10t-50 7t-59 5.5t-57.5 5.5q-334 37 -463 157q-90 87 -90 207q0 125 96 221q55 52 148 91q-22 16 -35 34q-29 50 -29 113q0 60 26 108.5t69 79.5t100 52t115.5 30t119.5 9q111 0 222.5 -28t195.5 -79l-78 -121q-67 39 -158 62.5t-182 23.5q-40 0 -78.5 -5.5t-81 -18.5
t-68.5 -41t-26 -68q0 -38 25 -57q14 -13 34 -22.5t55 -16t53.5 -9.5t71 -8.5t66.5 -7.5q335 -32 465 -157q88 -85 88 -205q0 -130 -96 -223zM786 627q-4 0 -35 3t-40.5 3.5t-38.5 3.5t-43 5.5t-39.5 6t-42 7.5t-37 10t-37.5 12q-58 -21 -92 -55q-76 -70 -76 -164
q0 -80 57 -131q83 -79 320 -103q2 0 31.5 -2.5t35.5 -3t33.5 -3.5t38 -4.5t34.5 -4.5t37.5 -6t33 -7t36 -9t31.5 -11q61 22 94 53q78 72 78 166q0 75 -57 129q-86 81 -322 105z" />
    <glyph glyph-name="dieresis" unicode="&#xa8;" 
d="M616 1239q0 39 29.5 67.5t71.5 28.5t72 -28.5t30 -67.5t-29.5 -65.5t-72.5 -26.5t-72 26t-29 66zM203 1239q0 39 29.5 67.5t72.5 28.5q42 0 72.5 -28.5t30.5 -67.5t-30 -65.5t-73 -26.5q-44 0 -73 26t-29 66z" />
    <glyph glyph-name="copyright" unicode="&#xa9;" horiz-adv-x="2041" 
d="M1022 -287q-148 0 -286.5 42t-250 119.5t-196 180.5t-130.5 231.5t-46 266.5q0 137 46 265t130.5 231t196 180.5t250 119.5t286.5 42q184 0 351.5 -66t289.5 -178t194 -267.5t72 -326.5q0 -138 -46 -266.5t-130 -231.5t-196 -180.5t-250 -119.5t-285 -42zM1022 -172
q210 0 388 97t282 264t104 364q0 146 -61.5 280t-165 231.5t-247 155.5t-300.5 58q-156 0 -299.5 -58t-248 -155.5t-166.5 -231.5t-62 -280q0 -197 105 -364t283.5 -264t387.5 -97zM1434 850l-64 -111q-146 131 -342 131q-149 0 -243.5 -92t-94.5 -225q0 -128 99.5 -207.5
t244.5 -79.5q115 0 189.5 30t156.5 89l64 -109q-88 -69 -178.5 -104t-231.5 -35q-135 0 -246.5 51t-178 147t-66.5 218q0 190 134.5 318t350.5 128q108 0 216 -41.5t190 -107.5z" />
    <glyph glyph-name="ordfeminine" unicode="&#xaa;" horiz-adv-x="940" 
d="M180 971l-51 112q59 35 150.5 61.5t195.5 26.5q51 0 97 -6.5t89 -21.5t74.5 -37.5t50.5 -58t19 -80.5v-392q0 -70 22 -124h-141q-16 30 -20 90q-135 -111 -295 -111q-131 0 -211 70t-80 176q0 99 90.5 163t249.5 64q69 0 138 -16t108 -45v86q0 64 -55.5 95.5t-143.5 31.5
q-80 0 -161 -26.5t-126 -57.5zM401 551q93 0 168.5 39.5t96.5 66.5v74q-82 64 -224 64q-219 0 -219 -119q0 -54 47 -89.5t131 -35.5z" />
    <glyph glyph-name="guillemotleft" unicode="&#xab;" horiz-adv-x="1163" 
d="M328 793h196l-248 -287v-17l248 -282h-196l-213 250v84zM815 793h197l-248 -287v-17l248 -282h-197l-242 282v19z" />
    <glyph glyph-name="logicalnot" unicode="&#xac;" horiz-adv-x="1490" 
d="M1313 223h-162v461h-973v147h1135v-608z" />
    <glyph glyph-name="registered" unicode="&#xae;" horiz-adv-x="1294" 
d="M643 420q-218 0 -368 139t-150 340q0 95 40.5 182t109 151.5t165 103t203.5 38.5q143 0 265 -65t191.5 -174.5t69.5 -235.5q0 -132 -70 -242t-191 -173.5t-265 -63.5zM510 670h-90v481h311q77 0 128.5 -40.5t51.5 -102.5q0 -45 -31.5 -82t-84.5 -54l125 -202h-101
l-117 192h-192v-192zM731 1079h-221v-141h221q38 0 65 21t27 49q0 32 -26.5 51.5t-65.5 19.5zM643 487q189 0 321 120t132 292q0 167 -133 289.5t-320 122.5q-185 0 -314.5 -122t-129.5 -290q0 -172 128.5 -292t315.5 -120z" />
    <glyph glyph-name="macron" unicode="&#xaf;" 
d="M250 1309h522v-129h-522v129z" />
    <glyph glyph-name="degree" unicode="&#xb0;" horiz-adv-x="1011" 
d="M504 608q-184 0 -287.5 99t-103.5 243q0 148 103 247t288 99q186 0 291.5 -99t105.5 -247q0 -69 -26 -130.5t-75 -109t-125.5 -75t-170.5 -27.5zM504 735q117 0 183.5 61.5t66.5 153.5q0 93 -66.5 156t-183.5 63q-115 0 -180.5 -62.5t-65.5 -156.5q0 -92 65 -153.5
t181 -61.5z" />
    <glyph glyph-name="plusminus" unicode="&#xb1;" horiz-adv-x="1490" 
d="M178 625v147h488v358h159v-358h488v-147h-488v-357h-159v357h-488zM178 0v147h1135v-147h-1135z" />
    <glyph glyph-name="two.superior" unicode="&#xb2;" horiz-adv-x="974" 
d="M195 1098l-93 108q53 39 85.5 60t86 48.5t111.5 39.5t125 12q72 0 137.5 -15t120 -44.5t87 -78.5t32.5 -112q0 -31 -7.5 -58.5t-19 -49t-31.5 -42t-37.5 -35t-46 -29.5t-48 -23.5t-52.5 -20t-50 -16.5t-49.5 -14.5t-43.5 -12.5q-57 -16 -98.5 -33.5t-79 -44t-57 -64.5
t-19.5 -87v-11h620v-124h-776v120q0 80 33.5 145.5t93 110.5t127 74.5t150.5 50.5q108 28 153 52q82 45 82 110q0 57 -63.5 85t-153.5 28q-100 0 -173 -33t-146 -96z" />
    <glyph glyph-name="three.superior" unicode="&#xb3;" horiz-adv-x="1101" 
d="M498 856v125h178q45 0 82 31t37 82q0 46 -36 77.5t-83.5 43.5t-100.5 12q-95 0 -183.5 -40.5t-158.5 -103.5l-94 95q208 188 439 188q62 0 125 -14t120 -41.5t93 -77.5t36 -113q0 -65 -33.5 -113.5t-72.5 -66.5q28 -6 56 -19.5t57 -38t47 -64.5t18 -91q0 -96 -65 -166
t-172 -104.5t-242 -34.5q-297 0 -490 184l95 107q162 -152 393 -152q141 0 233 46.5t92 129.5q0 35 -19 60t-49.5 37t-59.5 17t-58 5h-184z" />
    <glyph glyph-name="acute" unicode="&#xb4;" 
d="M569 1419l187 -2l-213 -299l-148 2z" />
    <glyph glyph-name="mu" unicode="&#xb5;" horiz-adv-x="1230" 
d="M332 -471h-164v1417h164v-653q2 -79 67.5 -133t165.5 -54q169 0 312 164v676h161v-700q0 -146 19 -246h-152q-14 63 -14 139q-70 -79 -153 -126.5t-199 -47.5q-135 0 -207 84v-520z" />
    <glyph glyph-name="mu" unicode="&#x3bc;" horiz-adv-x="1230" 
d="M332 -471h-164v1417h164v-653q2 -79 67.5 -133t165.5 -54q169 0 312 164v676h161v-700q0 -146 19 -246h-152q-14 63 -14 139q-70 -79 -153 -126.5t-199 -47.5q-135 0 -207 84v-520z" />
    <glyph glyph-name="paragraph" unicode="&#xb6;" horiz-adv-x="1740" 
d="M1147 -422h-148v961h-434q-67 0 -131 13.5t-125.5 45t-107 77.5t-73.5 116.5t-28 156.5q0 389 482 389h944v-1759h-146v1616h-233v-1616zM582 1194q-54 0 -98.5 -6.5t-87 -23t-71 -43.5t-46 -71t-17.5 -102q0 -56 18.5 -102t48.5 -76t70 -50.5t81.5 -29t84.5 -8.5h434
v512h-417z" />
    <glyph glyph-name="periodcentered" unicode="&#xb7;" horiz-adv-x="1490" 
d="M596 522q0 58 42.5 97.5t106.5 39.5q63 0 105.5 -40t42.5 -97q0 -56 -42.5 -94.5t-105.5 -38.5t-106 38.5t-43 94.5z" />
    <glyph glyph-name="cedilla" unicode="&#xb8;" 
d="M510 29h106l-59 -154q50 12 82 12q80 2 140.5 -39.5t60.5 -119.5q0 -88 -91 -139.5t-233 -51.5q-111 0 -299 47l27 92q182 -38 264 -38q84 0 134 23.5t50 68.5q0 73 -110 73q-31 0 -103 -14l-47 53z" />
    <glyph glyph-name="one.superior" unicode="&#xb9;" horiz-adv-x="636" 
d="M53 1096l-35 125l279 116h156v-886h-156v747z" />
    <glyph glyph-name="ordmasculine" unicode="&#xba;" horiz-adv-x="952" 
d="M84 803q0 153 116 260.5t275 107.5q161 0 277 -107.5t116 -260.5q0 -156 -116 -264.5t-277 -108.5q-160 0 -275.5 109t-115.5 264zM229 803q0 -108 67 -180t179 -72q113 0 181.5 72t68.5 180q0 104 -69 176t-181 72q-111 0 -178.5 -71.5t-67.5 -176.5z" />
    <glyph glyph-name="guillemotright" unicode="&#xbb;" horiz-adv-x="1163" 
d="M639 793h197l213 -252v-84l-213 -250h-197l248 282v17zM152 793h196l242 -285v-19l-242 -282h-196l247 282v17z" />
    <glyph glyph-name="onequarter" unicode="&#xbc;" horiz-adv-x="2144" 
d="M49 1096l-35 125l279 116h156v-886h-156v747zM1311 1337l-758 -1337h-141l757 1337h142zM2081 326v-125h-178v-201h-156v201h-700v108l716 578h140v-561h178zM1278 330v-4h469v362h-16q-52 -41 -211 -165.5t-242 -192.5z" />
    <glyph glyph-name="onehalf" unicode="&#xbd;" horiz-adv-x="2058" 
d="M49 1096l-35 125l279 116h156v-886h-156v747zM1311 1337l-758 -1337h-141l757 1337h142zM1276 647l-92 109q53 39 85.5 60t85.5 48t111 39t125 12q73 0 138.5 -15t120 -44t86.5 -78t32 -112q0 -31 -7.5 -58.5t-19 -49t-31.5 -42t-37.5 -35t-46 -29.5t-48 -23.5t-52.5 -20
t-50 -16.5t-49.5 -14.5t-43.5 -12.5q-57 -16 -98.5 -34t-79 -44.5t-57 -64.5t-19.5 -87v-10h621v-125h-776v121q0 65 22.5 120.5t60 95.5t90.5 73t109 54.5t121 37.5q108 28 153 52q82 45 82 110q0 39 -33 65t-79.5 36.5t-102.5 10.5q-100 0 -174 -33.5t-147 -95.5z" />
    <glyph glyph-name="threequarters" unicode="&#xbe;" horiz-adv-x="2615" 
d="M498 856v125h178q45 0 82 31t37 82q0 46 -36 77.5t-83.5 43.5t-100.5 12q-95 0 -183.5 -40.5t-158.5 -103.5l-94 95q208 188 439 188q62 0 125 -14t120 -41.5t93 -77.5t36 -113q0 -65 -33.5 -113.5t-72.5 -66.5q28 -6 56 -19.5t57 -38t47 -64.5t18 -91q0 -96 -65 -166
t-172 -104.5t-242 -34.5q-297 0 -490 184l95 107q162 -152 393 -152q141 0 233 46.5t92 129.5q0 35 -19 60t-49.5 37t-59.5 17t-58 5h-184zM1782 1337l-758 -1337h-141l757 1337h142zM2552 326v-125h-178v-201h-156v201h-700v108l716 578h140v-561h178zM1749 330v-4h469v362
h-16q-52 -41 -211 -165.5t-242 -192.5z" />
    <glyph glyph-name="questiondown" unicode="&#xbf;" horiz-adv-x="1193" 
d="M973 -70l110 -102q-54 -57 -102 -96t-113 -73.5t-147 -51.5t-182 -17q-90 0 -165.5 17t-138 53t-98 100.5t-35.5 151.5q0 83 34.5 141.5t99.5 112.5q36 31 91 67.5t96.5 65t83 64.5t66.5 82t31 102h158q-2 -77 -29.5 -140t-76 -110.5t-95.5 -81.5t-108.5 -74.5
t-94.5 -68.5q-49 -36 -73.5 -71.5t-24.5 -84.5q0 -92 81 -138t202 -46q145 0 242.5 50t187.5 148zM784 864q0 -52 -37.5 -87.5t-93.5 -35.5q-58 0 -96.5 35.5t-38.5 87.5q0 51 38.5 86t96.5 35q57 0 94 -35t37 -86z" />
    <glyph glyph-name="Agrave" unicode="&#xc0;" horiz-adv-x="1542" 
d="M252 0h-184l620 1337h168l621 -1337h-195l-182 401h-668zM760 1128l-264 -583h540l-264 583h-12zM766 1503l-303 252l211 4l248 -252z" />
    <glyph glyph-name="Aacute" unicode="&#xc1;" horiz-adv-x="1542" 
d="M252 0h-184l620 1337h168l621 -1337h-195l-182 401h-668zM760 1128l-264 -583h540l-264 583h-12zM623 1507l245 252l211 -4l-303 -252z" />
    <glyph glyph-name="Acircumflex" unicode="&#xc2;" horiz-adv-x="1542" 
d="M252 0h-184l620 1337h168l621 -1337h-195l-182 401h-668zM760 1128l-264 -583h540l-264 583h-12zM463 1507l219 256h180l219 -256l-131 -4l-178 164l-178 -164z" />
    <glyph glyph-name="Atilde" unicode="&#xc3;" horiz-adv-x="1542" 
d="M252 0h-184l620 1337h168l621 -1337h-195l-182 401h-668zM760 1128l-264 -583h540l-264 583h-12zM532 1507l-106 58q51 85 100 123t109 38q37 0 68.5 -14t72.5 -43q74 -55 117 -55q33 0 59 24t58 70l100 -55q-96 -164 -211 -164q-75 0 -143 53q-5 4 -18 13.5t-18 13
t-15.5 10.5t-16 10t-14 6.5t-16 5t-15.5 1.5t-15 -1.5t-14.5 -6t-13 -7.5t-13 -11t-11.5 -11.5t-12 -14t-10.5 -13.5t-11.5 -15.5t-10 -14.5z" />
    <glyph glyph-name="Adieresis" unicode="&#xc4;" horiz-adv-x="1542" 
d="M252 0h-184l620 1337h168l621 -1337h-195l-182 401h-668zM760 1128l-264 -583h540l-264 583h-12zM977 1716q42 0 72 -27.5t30 -66.5q0 -40 -29.5 -67t-72.5 -27t-71.5 27t-28.5 67q0 39 29 66.5t71 27.5zM565 1716q43 0 73 -28t30 -66q0 -40 -30 -67t-73 -27
q-44 0 -73 27t-29 67q0 39 29 66.5t73 27.5z" />
    <glyph glyph-name="Aring" unicode="&#xc5;" horiz-adv-x="1542" 
d="M252 0h-184l620 1337h168l621 -1337h-195l-182 401h-668zM760 1128l-264 -583h540l-264 583h-12zM625 1622q0 -53 39 -87t102 -34q64 0 104.5 34t40.5 87q0 55 -40.5 91t-104.5 36q-62 0 -101.5 -36t-39.5 -91zM766 1423q-113 0 -177.5 57t-64.5 142q0 86 64.5 144.5
t177.5 58.5t180.5 -59t67.5 -144t-67 -142t-181 -57z" />
    <glyph glyph-name="AE" unicode="&#xc6;" horiz-adv-x="2228" 
d="M195 0h-199l977 1337h1112v-157h-899v-400h543v-157h-543v-465h944v-158h-1120v401h-527zM1001 1128l-417 -583h426v583h-9z" />
    <glyph glyph-name="Ccedilla" unicode="&#xc7;" horiz-adv-x="1595" 
d="M1384 348l119 -117q-119 -117 -282 -191t-353 -75l-34 -90q50 12 81 12q80 2 140.5 -39.5t60.5 -119.5q0 -88 -90.5 -139.5t-232.5 -51.5q-111 0 -299 47l26 92q182 -38 264 -38q84 0 134.5 23.5t50.5 68.5q0 73 -111 73q-30 0 -102 -14l-47 53l53 129
q-186 22 -331.5 120.5t-224.5 249.5t-79 329q0 143 54.5 272t149.5 223.5t231 150.5t292 56q176 0 337.5 -62t274.5 -167l-120 -119q-92 88 -224 139t-264 51q-156 0 -281.5 -74t-194.5 -198.5t-69 -273.5q0 -150 69.5 -274t196.5 -197.5t285 -73.5q152 0 287 62t233 163z
" />
    <glyph glyph-name="Egrave" unicode="&#xc8;" horiz-adv-x="1468" 
d="M967 782v-157h-541v-467h944v-158h-1122v1337h1075v-157h-897v-398h541zM782 1503l-303 252l211 4l248 -252z" />
    <glyph glyph-name="Eacute" unicode="&#xc9;" horiz-adv-x="1468" 
d="M967 782v-157h-541v-467h944v-158h-1122v1337h1075v-157h-897v-398h541zM639 1507l246 252l211 -4l-303 -252z" />
    <glyph glyph-name="Ecircumflex" unicode="&#xca;" horiz-adv-x="1468" 
d="M967 782v-157h-541v-467h944v-158h-1122v1337h1075v-157h-897v-398h541zM479 1507l219 256h181l219 -256l-131 -4l-179 164l-178 -164z" />
    <glyph glyph-name="Edieresis" unicode="&#xcb;" horiz-adv-x="1468" 
d="M967 782v-157h-541v-467h944v-158h-1122v1337h1075v-157h-897v-398h541zM993 1716q43 0 73 -28t30 -66q0 -40 -30 -67t-73 -27t-71.5 27t-28.5 67q0 39 29 66.5t71 27.5zM582 1716q42 0 72 -27.5t30 -66.5q0 -40 -29.5 -67t-72.5 -27q-44 0 -73.5 27t-29.5 67
q0 39 29.5 66.5t73.5 27.5z" />
    <glyph glyph-name="Igrave" unicode="&#xcc;" horiz-adv-x="673" 
d="M426 0h-178v1337h178v-1337zM240 1759l245 -252l-155 -4l-301 252z" />
    <glyph glyph-name="Iacute" unicode="&#xcd;" horiz-adv-x="673" 
d="M426 0h-178v1337h178v-1337zM188 1507l246 252l211 -4l-303 -252z" />
    <glyph glyph-name="Icircumflex" unicode="&#xce;" horiz-adv-x="673" 
d="M426 0h-178v1337h178v-1337zM27 1507l219 256h182l217 -256l-131 -4l-176 164l-180 -164z" />
    <glyph glyph-name="Idieresis" unicode="&#xcf;" horiz-adv-x="673" 
d="M426 0h-178v1337h178v-1337zM543 1716q42 0 72 -27.5t30 -66.5q0 -40 -29.5 -67t-72.5 -27q-44 0 -73.5 27t-29.5 67q0 39 29.5 66.5t73.5 27.5zM129 1716q44 0 73 -27.5t29 -66.5q0 -40 -29 -67t-73 -27q-43 0 -71.5 27t-28.5 67q0 39 29 66.5t71 27.5z" />
    <glyph glyph-name="Eth" unicode="&#xd0;" horiz-adv-x="1730" 
d="M100 625v143h205v569h594q176 0 293 -46.5t217 -139.5q89 -91 136.5 -214.5t47.5 -266.5q0 -146 -51 -274.5t-145 -219.5q-98 -90 -210 -133t-288 -43h-594v625h-205zM481 158h410q135 0 210 30t156 99q72 72 112 171.5t40 211.5q0 229 -145 374q-75 70 -156.5 103
t-216.5 33h-410v-412h426v-143h-426v-467z" />
    <glyph glyph-name="Ntilde" unicode="&#xd1;" horiz-adv-x="1687" 
d="M1262 1337h178v-1337h-162l-850 1026h-2v-1026h-178v1337h162l850 -1026h2v1026zM604 1507l-106 58q51 85 100 123t109 38q37 0 68.5 -14t72.5 -43q74 -55 117 -55q23 0 45.5 15.5t36 31.5t34.5 47l101 -55q-96 -164 -211 -164q-76 0 -144 53q-6 4 -21 15.5t-20.5 15
t-17 11t-18.5 10.5t-16.5 5.5t-18.5 2.5q-8 0 -15 -1.5t-14.5 -6t-13 -7.5t-13 -11t-11.5 -11.5t-12 -14t-10.5 -13.5t-11.5 -15.5t-10 -14.5z" />
    <glyph glyph-name="Ograve" unicode="&#xd2;" horiz-adv-x="1742" 
d="M129 672q0 143 58 272.5t156.5 223t236 149t290.5 55.5q152 0 290.5 -55.5t238 -149t158.5 -223t59 -272.5q0 -145 -59 -276t-158.5 -225.5t-237.5 -150t-291 -55.5t-290.5 55.5t-236.5 150t-156.5 225.5t-57.5 276zM315 672q0 -150 73 -276t200.5 -199.5t281.5 -73.5
q115 0 219 43.5t178.5 117t118.5 175t44 213.5q0 110 -44 210.5t-118.5 173t-178.5 115.5t-219 43q-154 0 -281.5 -72.5t-200.5 -197t-73 -272.5zM866 1503l-303 252l211 4l248 -252z" />
    <glyph glyph-name="Oacute" unicode="&#xd3;" horiz-adv-x="1742" 
d="M129 672q0 143 58 272.5t156.5 223t236 149t290.5 55.5q152 0 290.5 -55.5t238 -149t158.5 -223t59 -272.5q0 -145 -59 -276t-158.5 -225.5t-237.5 -150t-291 -55.5t-290.5 55.5t-236.5 150t-156.5 225.5t-57.5 276zM315 672q0 -150 73 -276t200.5 -199.5t281.5 -73.5
q115 0 219 43.5t178.5 117t118.5 175t44 213.5q0 110 -44 210.5t-118.5 173t-178.5 115.5t-219 43q-154 0 -281.5 -72.5t-200.5 -197t-73 -272.5zM723 1507l246 252l211 -4l-303 -252z" />
    <glyph glyph-name="Ocircumflex" unicode="&#xd4;" horiz-adv-x="1742" 
d="M129 672q0 143 58 272.5t156.5 223t236 149t290.5 55.5q152 0 290.5 -55.5t238 -149t158.5 -223t59 -272.5q0 -145 -59 -276t-158.5 -225.5t-237.5 -150t-291 -55.5t-290.5 55.5t-236.5 150t-156.5 225.5t-57.5 276zM315 672q0 -150 73 -276t200.5 -199.5t281.5 -73.5
q115 0 219 43.5t178.5 117t118.5 175t44 213.5q0 110 -44 210.5t-118.5 173t-178.5 115.5t-219 43q-154 0 -281.5 -72.5t-200.5 -197t-73 -272.5zM563 1507l219 256h181l219 -256l-131 -4l-179 164l-178 -164z" />
    <glyph glyph-name="Otilde" unicode="&#xd5;" horiz-adv-x="1742" 
d="M129 672q0 143 58 272.5t156.5 223t236 149t290.5 55.5q152 0 290.5 -55.5t238 -149t158.5 -223t59 -272.5q0 -145 -59 -276t-158.5 -225.5t-237.5 -150t-291 -55.5t-290.5 55.5t-236.5 150t-156.5 225.5t-57.5 276zM315 672q0 -150 73 -276t200.5 -199.5t281.5 -73.5
q115 0 219 43.5t178.5 117t118.5 175t44 213.5q0 110 -44 210.5t-118.5 173t-178.5 115.5t-219 43q-154 0 -281.5 -72.5t-200.5 -197t-73 -272.5zM633 1507l-107 58q51 85 100 123t109 38q62 0 142 -57q25 -18 39.5 -28t36 -18.5t40.5 -8.5q33 0 59 24t58 70l100 -55
q-96 -164 -211 -164q-75 0 -143 53q-5 4 -18 13.5t-18 13t-15.5 10.5t-16 10t-14 6.5t-16 5t-15.5 1.5q-9 0 -17.5 -2.5t-15 -5.5t-15 -11t-13 -12t-13.5 -15.5t-12 -15.5t-12.5 -17t-11.5 -16z" />
    <glyph glyph-name="Odieresis" unicode="&#xd6;" horiz-adv-x="1742" 
d="M129 672q0 143 58 272.5t156.5 223t236 149t290.5 55.5q152 0 290.5 -55.5t238 -149t158.5 -223t59 -272.5q0 -145 -59 -276t-158.5 -225.5t-237.5 -150t-291 -55.5t-290.5 55.5t-236.5 150t-156.5 225.5t-57.5 276zM315 672q0 -150 73 -276t200.5 -199.5t281.5 -73.5
q115 0 219 43.5t178.5 117t118.5 175t44 213.5q0 110 -44 210.5t-118.5 173t-178.5 115.5t-219 43q-154 0 -281.5 -72.5t-200.5 -197t-73 -272.5zM1077 1716q43 0 73 -28t30 -66q0 -40 -30 -67t-73 -27t-71.5 27t-28.5 67q0 39 29 66.5t71 27.5zM666 1716q42 0 72 -27.5
t30 -66.5q0 -40 -29.5 -67t-72.5 -27q-44 0 -73.5 27t-29.5 67q0 39 29.5 66.5t73.5 27.5z" />
    <glyph glyph-name="multiply" unicode="&#xd7;" horiz-adv-x="1490" 
d="M205 899l112 107l428 -381l431 381l106 -105l-424 -377l426 -377l-110 -106l-431 381l-428 -381l-108 104l424 377z" />
    <glyph glyph-name="Oslash" unicode="&#xd8;" horiz-adv-x="1742" 
d="M129 672q0 143 58 272.5t156.5 223t236 149t290.5 55.5q187 0 347 -80l122 176l119 -79l-121 -172q130 -97 204.5 -239.5t74.5 -305.5q0 -145 -59 -276t-158.5 -225.5t-237.5 -150t-291 -55.5q-185 0 -348 80l-121 -174l-118 78l118 172q-128 98 -200 241.5t-72 309.5z
M1430 672q0 120 -50 225t-139 180l-623 -897q114 -57 252 -57q115 0 219 43.5t178.5 117t118.5 175t44 213.5zM315 672q0 -122 49 -229t136 -183l622 897q-117 57 -252 57q-154 0 -281.5 -72.5t-200.5 -197t-73 -272.5z" />
    <glyph glyph-name="Ugrave" unicode="&#xd9;" horiz-adv-x="1617" 
d="M1219 1337h178v-862q0 -159 -77.5 -276t-210 -175.5t-302.5 -58.5q-168 0 -299.5 58.5t-209 175.5t-77.5 276v862h176v-862q0 -165 116 -258.5t294 -93.5q181 0 296.5 93.5t115.5 258.5v862zM801 1503l-303 252l211 4l247 -252z" />
    <glyph glyph-name="Uacute" unicode="&#xda;" horiz-adv-x="1617" 
d="M1219 1337h178v-862q0 -159 -77.5 -276t-210 -175.5t-302.5 -58.5q-168 0 -299.5 58.5t-209 175.5t-77.5 276v862h176v-862q0 -165 116 -258.5t294 -93.5q181 0 296.5 93.5t115.5 258.5v862zM657 1507l246 252l211 -4l-303 -252z" />
    <glyph glyph-name="Ucircumflex" unicode="&#xdb;" horiz-adv-x="1617" 
d="M1219 1337h178v-862q0 -159 -77.5 -276t-210 -175.5t-302.5 -58.5q-168 0 -299.5 58.5t-209 175.5t-77.5 276v862h176v-862q0 -165 116 -258.5t294 -93.5q181 0 296.5 93.5t115.5 258.5v862zM498 1507l219 256h180l219 -256l-131 -4l-178 164l-178 -164z" />
    <glyph glyph-name="Udieresis" unicode="&#xdc;" horiz-adv-x="1617" 
d="M1219 1337h178v-862q0 -159 -77.5 -276t-210 -175.5t-302.5 -58.5q-168 0 -299.5 58.5t-209 175.5t-77.5 276v862h176v-862q0 -165 116 -258.5t294 -93.5q181 0 296.5 93.5t115.5 258.5v862zM1012 1716q42 0 72 -27.5t30 -66.5q0 -40 -29.5 -67t-72.5 -27t-72 27t-29 67
q0 39 29.5 66.5t71.5 27.5zM600 1716q42 0 72 -27.5t30 -66.5q0 -40 -29.5 -67t-72.5 -27q-44 0 -73 27t-29 67q0 39 29 66.5t73 27.5z" />
    <glyph glyph-name="Yacute" unicode="&#xdd;" horiz-adv-x="1378" 
d="M1118 1337h209l-549 -710v-627h-178v627l-549 710h225l420 -553zM539 1507l245 252l211 -4l-303 -252z" />
    <glyph glyph-name="Thorn" unicode="&#xde;" horiz-adv-x="1568" 
d="M248 1337h178v-266h575q132 0 219 -34t152 -101q107 -113 107 -264q0 -165 -119 -281q-66 -61 -150.5 -92t-208.5 -31h-575v-268h-178v1337zM1001 913h-575v-487h575q146 0 230 78q72 69 72 166q0 93 -68 161q-78 82 -234 82z" />
    <glyph glyph-name="germandbls" unicode="&#xdf;" horiz-adv-x="1218" 
d="M637 -20l-16 126q153 0 236 72t83 189q0 66 -28 125t-69 99t-92.5 72t-93.5 49t-77 25l14 125q86 19 141.5 91t55.5 165q0 92 -59 147.5t-150 55.5q-94 0 -162 -63t-68 -185v-1073h-162v1073q0 100 33.5 176.5t90.5 120t124.5 65t143.5 21.5q167 0 273 -94t106 -232
q0 -62 -24 -118.5t-61 -95t-74.5 -64.5t-72.5 -39q43 -12 91 -35.5t100.5 -64t94 -90t68.5 -118t27 -143.5q0 -168 -125.5 -275t-347.5 -107z" />
    <glyph glyph-name="agrave" unicode="&#xe0;" horiz-adv-x="1228" 
d="M233 733l-59 133q81 50 196 87.5t246 37.5q66 0 126 -9t117 -30t98.5 -53t66.5 -81t25 -111v-533q0 -117 30 -174h-166q-24 46 -28 135q-169 -155 -400 -155q-175 0 -279 91t-104 238q0 136 118 226t325 90q98 0 192.5 -25t147.5 -76v138q0 95 -78 142.5t-197 47.5
q-107 0 -211 -37t-166 -82zM518 117q70 0 138.5 20t115 48.5t75.5 51t38 35.5v121q-41 46 -128.5 74.5t-185.5 28.5q-154 0 -228.5 -51.5t-74.5 -135.5q0 -83 66.5 -137.5t183.5 -54.5zM369 1417l188 2l174 -299l-147 -2z" />
    <glyph glyph-name="aacute" unicode="&#xe1;" horiz-adv-x="1228" 
d="M233 733l-59 133q81 50 196 87.5t246 37.5q66 0 126 -9t117 -30t98.5 -53t66.5 -81t25 -111v-533q0 -117 30 -174h-166q-24 46 -28 135q-169 -155 -400 -155q-175 0 -279 91t-104 238q0 136 118 226t325 90q98 0 192.5 -25t147.5 -76v138q0 95 -78 142.5t-197 47.5
q-107 0 -211 -37t-166 -82zM518 117q70 0 138.5 20t115 48.5t75.5 51t38 35.5v121q-41 46 -128.5 74.5t-185.5 28.5q-154 0 -228.5 -51.5t-74.5 -135.5q0 -83 66.5 -137.5t183.5 -54.5zM672 1419l186 -2l-213 -299l-147 2z" />
    <glyph glyph-name="acircumflex" unicode="&#xe2;" horiz-adv-x="1228" 
d="M233 733l-59 133q81 50 196 87.5t246 37.5q66 0 126 -9t117 -30t98.5 -53t66.5 -81t25 -111v-533q0 -117 30 -174h-166q-24 46 -28 135q-169 -155 -400 -155q-175 0 -279 91t-104 238q0 136 118 226t325 90q98 0 192.5 -25t147.5 -76v138q0 95 -78 142.5t-197 47.5
q-107 0 -211 -37t-166 -82zM518 117q70 0 138.5 20t115 48.5t75.5 51t38 35.5v121q-41 46 -128.5 74.5t-185.5 28.5q-154 0 -228.5 -51.5t-74.5 -135.5q0 -83 66.5 -137.5t183.5 -54.5zM305 1124l219 267h181l219 -267l-131 -4l-179 176l-178 -176z" />
    <glyph glyph-name="atilde" unicode="&#xe3;" horiz-adv-x="1228" 
d="M233 733l-59 133q81 50 196 87.5t246 37.5q66 0 126 -9t117 -30t98.5 -53t66.5 -81t25 -111v-533q0 -117 30 -174h-166q-24 46 -28 135q-169 -155 -400 -155q-175 0 -279 91t-104 238q0 136 118 226t325 90q98 0 192.5 -25t147.5 -76v138q0 95 -78 142.5t-197 47.5
q-107 0 -211 -37t-166 -82zM518 117q70 0 138.5 20t115 48.5t75.5 51t38 35.5v121q-41 46 -128.5 74.5t-185.5 28.5q-154 0 -228.5 -51.5t-74.5 -135.5q0 -83 66.5 -137.5t183.5 -54.5zM375 1124l-107 58q51 85 100 123t109 38q37 0 68.5 -14t72.5 -43q74 -55 117 -55
q23 0 46 16.5t35.5 31.5t35.5 46l100 -55q-98 -164 -211 -164q-75 0 -143 53q-5 4 -18 13.5t-18 13t-15.5 10.5t-16 10t-14 6.5t-16 5t-15.5 1.5q-9 0 -17.5 -2.5t-15 -5.5t-15 -11t-13 -12t-13.5 -15.5t-12 -15.5t-12.5 -17t-11.5 -16z" />
    <glyph glyph-name="adieresis" unicode="&#xe4;" horiz-adv-x="1228" 
d="M233 733l-59 133q81 50 196 87.5t246 37.5q66 0 126 -9t117 -30t98.5 -53t66.5 -81t25 -111v-533q0 -117 30 -174h-166q-24 46 -28 135q-169 -155 -400 -155q-175 0 -279 91t-104 238q0 136 118 226t325 90q98 0 192.5 -25t147.5 -76v138q0 95 -78 142.5t-197 47.5
q-107 0 -211 -37t-166 -82zM518 117q70 0 138.5 20t115 48.5t75.5 51t38 35.5v121q-41 46 -128.5 74.5t-185.5 28.5q-154 0 -228.5 -51.5t-74.5 -135.5q0 -83 66.5 -137.5t183.5 -54.5zM719 1239q0 39 29 67.5t71 28.5t72.5 -28.5t30.5 -67.5t-30 -65.5t-73 -26.5t-71.5 26
t-28.5 66zM305 1239q0 39 29.5 67.5t73.5 28.5q42 0 72 -28.5t30 -67.5t-29.5 -65.5t-72.5 -26.5q-44 0 -73.5 26t-29.5 66z" />
    <glyph glyph-name="aring" unicode="&#xe5;" horiz-adv-x="1228" 
d="M233 733l-59 133q81 50 196 87.5t246 37.5q66 0 126 -9t117 -30t98.5 -53t66.5 -81t25 -111v-533q0 -117 30 -174h-166q-24 46 -28 135q-169 -155 -400 -155q-175 0 -279 91t-104 238q0 136 118 226t325 90q98 0 192.5 -25t147.5 -76v138q0 95 -78 142.5t-197 47.5
q-107 0 -211 -37t-166 -82zM518 117q70 0 138.5 20t115 48.5t75.5 51t38 35.5v121q-41 46 -128.5 74.5t-185.5 28.5q-154 0 -228.5 -51.5t-74.5 -135.5q0 -83 66.5 -137.5t183.5 -54.5zM467 1298q0 -53 39 -85.5t102 -32.5q65 0 105.5 33t40.5 85q0 56 -41 92.5t-105 36.5
q-62 0 -101.5 -36.5t-39.5 -92.5zM367 1298q0 87 64 145t177 58t180.5 -58.5t67.5 -144.5q0 -83 -67.5 -139.5t-180.5 -56.5t-177 56.5t-64 139.5z" />
    <glyph glyph-name="ae" unicode="&#xe6;" horiz-adv-x="1986" 
d="M1382 -29q-134 0 -239 54.5t-172 150.5q-87 -92 -215.5 -148.5t-270.5 -56.5q-174 0 -278.5 95t-104.5 243q0 136 118 226t325 90q100 0 197 -25.5t149 -75.5v138q0 95 -81 142.5t-200 47.5q-107 0 -211 -37t-166 -82l-59 133q81 50 196 87.5t246 37.5q66 0 124 -9
t114 -30.5t94 -62.5t51 -98l2 -25q49 101 155.5 163t225.5 62q78 0 150 -18.5t137.5 -60t112.5 -102t72 -151t18 -200.5h-823l10 -80q26 -115 112 -188.5t211 -73.5q221 0 355 141l110 -106q-188 -181 -465 -181zM518 117q221 0 395 174q-18 42 -26 100q-115 105 -316 105
q-154 0 -228.5 -51.5t-74.5 -135.5q0 -83 66.5 -137.5t183.5 -54.5zM1055 588h639q-2 86 -49.5 148t-116 90t-146.5 28q-126 0 -211.5 -72.5t-115.5 -193.5z" />
    <glyph glyph-name="ccedilla" unicode="&#xe7;" horiz-adv-x="1155" 
d="M1049 834l-111 -111q-61 61 -142 93t-163 32q-141 0 -238.5 -101.5t-97.5 -263.5q0 -163 101 -264.5t247 -101.5q181 0 316 141l110 -102q-19 -22 -51 -48.5t-84 -58t-127 -53.5t-156 -25l-37 -96q50 12 82 12q80 2 140.5 -39.5t60.5 -119.5q0 -88 -91 -139.5t-233 -51.5
q-111 0 -299 47l27 92q182 -38 264 -38q84 0 134.5 23.5t50.5 68.5q0 73 -111 73q-30 0 -102 -14l-47 53l55 135q-186 27 -308 164t-122 342q0 149 70 266t187.5 179.5t258.5 62.5q243 0 416 -157z" />
    <glyph glyph-name="egrave" unicode="&#xe8;" horiz-adv-x="1218" 
d="M971 258l108 -106q-83 -80 -206.5 -130.5t-262.5 -50.5q-151 0 -264.5 68.5t-171 181t-57.5 250.5q0 220 144.5 370t363.5 150q70 0 137.5 -17t130 -55t110 -93t76 -137t29.5 -181q0 -33 -2 -49h-825q5 -148 96.5 -245t249.5 -97q100 0 190.5 38t153.5 103zM616 854
q-124 0 -209 -74t-114 -192h635q-3 126 -97.5 196t-214.5 70zM373 1417l188 2l174 -299l-147 -2z" />
    <glyph glyph-name="eacute" unicode="&#xe9;" horiz-adv-x="1218" 
d="M971 258l108 -106q-83 -80 -206.5 -130.5t-262.5 -50.5q-151 0 -264.5 68.5t-171 181t-57.5 250.5q0 220 144.5 370t363.5 150q70 0 137.5 -17t130 -55t110 -93t76 -137t29.5 -181q0 -33 -2 -49h-825q5 -148 96.5 -245t249.5 -97q100 0 190.5 38t153.5 103zM616 854
q-124 0 -209 -74t-114 -192h635q-3 126 -97.5 196t-214.5 70zM676 1419l186 -2l-213 -299l-147 2z" />
    <glyph glyph-name="ecircumflex" unicode="&#xea;" horiz-adv-x="1218" 
d="M971 258l108 -106q-83 -80 -206.5 -130.5t-262.5 -50.5q-151 0 -264.5 68.5t-171 181t-57.5 250.5q0 220 144.5 370t363.5 150q70 0 137.5 -17t130 -55t110 -93t76 -137t29.5 -181q0 -33 -2 -49h-825q5 -148 96.5 -245t249.5 -97q100 0 190.5 38t153.5 103zM616 854
q-124 0 -209 -74t-114 -192h635q-3 126 -97.5 196t-214.5 70zM309 1124l219 267h181l219 -267l-131 -4l-179 176l-178 -176z" />
    <glyph glyph-name="edieresis" unicode="&#xeb;" horiz-adv-x="1218" 
d="M971 258l108 -106q-83 -80 -206.5 -130.5t-262.5 -50.5q-151 0 -264.5 68.5t-171 181t-57.5 250.5q0 220 144.5 370t363.5 150q70 0 137.5 -17t130 -55t110 -93t76 -137t29.5 -181q0 -33 -2 -49h-825q5 -148 96.5 -245t249.5 -97q100 0 190.5 38t153.5 103zM616 854
q-124 0 -209 -74t-114 -192h635q-3 126 -97.5 196t-214.5 70zM723 1239q0 39 29 67.5t71 28.5t72.5 -28.5t30.5 -67.5t-30 -65.5t-73 -26.5t-71.5 26t-28.5 66zM309 1239q0 39 29.5 67.5t73.5 28.5q42 0 72 -28.5t30 -67.5t-29.5 -65.5t-72.5 -26.5q-44 0 -73.5 26t-29.5 66
z" />
    <glyph glyph-name="igrave" unicode="&#xec;" horiz-adv-x="542" 
d="M352 0h-162v961h162v-961zM27 1417l188 2l174 -299l-147 -2z" />
    <glyph glyph-name="iacute" unicode="&#xed;" horiz-adv-x="542" 
d="M352 0h-162v961h162v-961zM330 1419l186 -2l-215 -299l-145 2z" />
    <glyph glyph-name="icircumflex" unicode="&#xee;" horiz-adv-x="542" 
d="M352 0h-162v961h162v-961zM-37 1124l219 267h180l218 -267l-129 -4l-179 176l-180 -176z" />
    <glyph glyph-name="idieresis" unicode="&#xef;" horiz-adv-x="542" 
d="M352 0h-162v961h162v-961zM377 1239q0 39 28.5 67.5t71.5 28.5q42 0 72.5 -28.5t30.5 -67.5t-30 -65.5t-73 -26.5q-44 0 -72 26t-28 66zM-37 1239q0 39 29.5 67.5t73.5 28.5q42 0 72 -28.5t30 -67.5t-29.5 -65.5t-72.5 -26.5q-44 0 -73.5 26t-29.5 66z" />
    <glyph glyph-name="eth" unicode="&#xf0;" horiz-adv-x="1282" 
d="M367 1057l-39 108l274 99q-105 81 -231 147l180 35q115 -64 201 -129l252 90l38 -109l-192 -69l10 -10q270 -278 270 -695q0 -261 -143 -407q-70 -70 -165.5 -108t-198.5 -38q-102 0 -195 39.5t-161 105.5t-108 157.5t-40 191.5q0 138 63.5 252.5t170.5 179t233 64.5
q114 0 206.5 -50.5t139.5 -132.5q-50 209 -213 379l-19 19zM291 467q0 -148 93.5 -249t236.5 -101q151 0 243 100q99 106 99 256q0 149 -98.5 246.5t-246.5 97.5q-143 0 -235 -101t-92 -249z" />
    <glyph glyph-name="ntilde" unicode="&#xf1;" horiz-adv-x="1241" 
d="M356 0h-163v717q0 118 -27 244h149q20 -74 23 -148q74 82 156.5 130t197.5 48q159 0 265 -96t106 -244v-651h-164v651q0 83 -65.5 140t-165.5 57q-165 0 -312 -164v-684zM379 1124l-107 58q51 85 100 123t109 38q62 0 142 -57q25 -18 39.5 -28t36 -18.5t40.5 -8.5
q23 0 46 16.5t35.5 31.5t35.5 46l100 -55q-98 -164 -211 -164q-75 0 -143 53q-5 4 -18 13.5t-18 13t-15.5 10.5t-16 10t-14 6.5t-16 5t-15.5 1.5q-9 0 -17.5 -2.5t-15 -5.5t-15 -11t-13 -12t-13.5 -15.5t-12 -15.5t-12.5 -17t-11.5 -16z" />
    <glyph glyph-name="ograve" unicode="&#xf2;" horiz-adv-x="1263" 
d="M117 483q0 214 146 361t368 147q223 0 369.5 -146.5t146.5 -361.5q0 -142 -65.5 -259t-184 -185t-266.5 -68q-222 0 -368 147.5t-146 364.5zM287 483q0 -157 96 -265.5t248 -108.5q154 0 251 108.5t97 265.5q0 154 -97.5 262.5t-250.5 108.5q-151 0 -247.5 -108.5
t-96.5 -262.5zM385 1417l188 2l175 -299l-148 -2z" />
    <glyph glyph-name="oacute" unicode="&#xf3;" horiz-adv-x="1263" 
d="M117 483q0 214 146 361t368 147q223 0 369.5 -146.5t146.5 -361.5q0 -142 -65.5 -259t-184 -185t-266.5 -68q-222 0 -368 147.5t-146 364.5zM287 483q0 -157 96 -265.5t248 -108.5q154 0 251 108.5t97 265.5q0 154 -97.5 262.5t-250.5 108.5q-151 0 -247.5 -108.5
t-96.5 -262.5zM688 1419l186 -2l-212 -299l-148 2z" />
    <glyph glyph-name="ocircumflex" unicode="&#xf4;" horiz-adv-x="1263" 
d="M117 483q0 214 146 361t368 147q223 0 369.5 -146.5t146.5 -361.5q0 -142 -65.5 -259t-184 -185t-266.5 -68q-222 0 -368 147.5t-146 364.5zM287 483q0 -157 96 -265.5t248 -108.5q154 0 251 108.5t97 265.5q0 154 -97.5 262.5t-250.5 108.5q-151 0 -247.5 -108.5
t-96.5 -262.5zM322 1124l219 267h180l219 -267l-131 -4l-178 176l-178 -176z" />
    <glyph glyph-name="otilde" unicode="&#xf5;" horiz-adv-x="1263" 
d="M117 483q0 214 146 361t368 147q223 0 369.5 -146.5t146.5 -361.5q0 -142 -65.5 -259t-184 -185t-266.5 -68q-222 0 -368 147.5t-146 364.5zM287 483q0 -157 96 -265.5t248 -108.5q154 0 251 108.5t97 265.5q0 154 -97.5 262.5t-250.5 108.5q-151 0 -247.5 -108.5
t-96.5 -262.5zM391 1124l-106 58q51 85 100 123t109 38q37 0 68.5 -14t72.5 -43q74 -55 117 -55q23 0 46 16.5t34.5 31t35.5 46.5l101 -55q-98 -164 -211 -164q-76 0 -144 53q-6 4 -21 15.5t-20.5 15t-17 11t-18.5 10.5t-16.5 5.5t-18.5 2.5q-8 0 -15 -1.5t-14.5 -6
t-13 -7.5t-13 -11t-11.5 -11.5t-12 -14t-10.5 -13.5t-11.5 -15.5t-10 -14.5z" />
    <glyph glyph-name="odieresis" unicode="&#xf6;" horiz-adv-x="1263" 
d="M117 483q0 214 146 361t368 147q223 0 369.5 -146.5t146.5 -361.5q0 -142 -65.5 -259t-184 -185t-266.5 -68q-222 0 -368 147.5t-146 364.5zM287 483q0 -157 96 -265.5t248 -108.5q154 0 251 108.5t97 265.5q0 154 -97.5 262.5t-250.5 108.5q-151 0 -247.5 -108.5
t-96.5 -262.5zM735 1239q0 39 29.5 67.5t71.5 28.5t72 -28.5t30 -67.5t-29.5 -65.5t-72.5 -26.5t-72 26t-29 66zM322 1239q0 39 29.5 67.5t72.5 28.5q42 0 72 -28.5t30 -67.5t-29.5 -65.5t-72.5 -26.5q-44 0 -73 26t-29 66z" />
    <glyph glyph-name="divide" unicode="&#xf7;" horiz-adv-x="1490" 
d="M178 451v145h1135v-145h-1135zM621 106q0 46 37 80.5t90 34.5t88.5 -34t35.5 -81q0 -49 -35.5 -81.5t-88.5 -32.5q-54 0 -90.5 32.5t-36.5 81.5zM621 940q0 48 36.5 81.5t90.5 33.5q52 0 88 -33.5t36 -81.5t-35.5 -81.5t-88.5 -33.5q-54 0 -90.5 33.5t-36.5 81.5z" />
    <glyph glyph-name="oslash" unicode="&#xf8;" horiz-adv-x="1263" 
d="M283 -115l-93 66l99 141q-82 71 -127 172t-45 219q0 214 146 361t368 147q133 0 248 -59l102 145l92 -63l-100 -144q83 -71 128.5 -171t45.5 -216q0 -142 -65.5 -259t-184 -185t-266.5 -68q-135 0 -248 58zM979 483q0 153 -96 260l-416 -593q71 -41 164 -41
q154 0 251 108.5t97 265.5zM287 483q0 -156 92 -262l416 592q-71 41 -164 41q-151 0 -247.5 -108.5t-96.5 -262.5z" />
    <glyph glyph-name="ugrave" unicode="&#xf9;" horiz-adv-x="1239" 
d="M883 961h164v-715q0 -162 16 -246h-150q-14 63 -14 147q-35 -38 -66.5 -65.5t-74.5 -54.5t-96.5 -41.5t-114.5 -14.5q-159 0 -266 95.5t-107 242.5v652h166v-652q0 -83 65.5 -138.5t165.5 -55.5q168 0 312 161v685zM373 1417l188 2l174 -299l-147 -2z" />
    <glyph glyph-name="uacute" unicode="&#xfa;" horiz-adv-x="1239" 
d="M883 961h164v-715q0 -162 16 -246h-150q-14 63 -14 147q-35 -38 -66.5 -65.5t-74.5 -54.5t-96.5 -41.5t-114.5 -14.5q-159 0 -266 95.5t-107 242.5v652h166v-652q0 -83 65.5 -138.5t165.5 -55.5q168 0 312 161v685zM676 1419l186 -2l-213 -299l-147 2z" />
    <glyph glyph-name="ucircumflex" unicode="&#xfb;" horiz-adv-x="1239" 
d="M883 961h164v-715q0 -162 16 -246h-150q-14 63 -14 147q-35 -38 -66.5 -65.5t-74.5 -54.5t-96.5 -41.5t-114.5 -14.5q-159 0 -266 95.5t-107 242.5v652h166v-652q0 -83 65.5 -138.5t165.5 -55.5q168 0 312 161v685zM309 1124l219 267h181l219 -267l-131 -4l-179 176
l-178 -176z" />
    <glyph glyph-name="udieresis" unicode="&#xfc;" horiz-adv-x="1239" 
d="M883 961h164v-715q0 -162 16 -246h-150q-14 63 -14 147q-35 -38 -66.5 -65.5t-74.5 -54.5t-96.5 -41.5t-114.5 -14.5q-159 0 -266 95.5t-107 242.5v652h166v-652q0 -83 65.5 -138.5t165.5 -55.5q168 0 312 161v685zM723 1239q0 39 29 67.5t71 28.5t72.5 -28.5t30.5 -67.5
t-30 -65.5t-73 -26.5t-71.5 26t-28.5 66zM309 1239q0 39 29.5 67.5t73.5 28.5q42 0 72 -28.5t30 -67.5t-29.5 -65.5t-72.5 -26.5q-44 0 -73.5 26t-29.5 66z" />
    <glyph glyph-name="yacute" unicode="&#xfd;" horiz-adv-x="1138" 
d="M909 961h166l-672 -1391h-167l239 475l-412 916h185l311 -736h8zM625 1419l186 -2l-213 -299l-147 2z" />
    <glyph glyph-name="thorn" unicode="&#xfe;" horiz-adv-x="1284" 
d="M344 698v-436q143 -147 307 -147q137 0 229.5 101t92.5 263q0 164 -91 266.5t-223 102.5q-170 0 -315 -150zM344 1434v-598q55 63 140.5 109t191.5 46q98 0 185 -37t151.5 -102.5t102.5 -162.5t38 -210q0 -112 -39 -208t-105 -161.5t-155 -102t-188 -36.5
q-93 0 -176.5 43.5t-145.5 114.5v-559h-164v1864h164z" />
    <glyph glyph-name="ydieresis" unicode="&#xff;" horiz-adv-x="1138" 
d="M909 961h166l-672 -1391h-167l239 475l-412 916h185l311 -736h8zM672 1239q0 39 29 67.5t71 28.5t72 -28.5t30 -67.5t-29.5 -65.5t-72.5 -26.5t-71.5 26t-28.5 66zM258 1239q0 39 29.5 67.5t72.5 28.5q42 0 72.5 -28.5t30.5 -67.5t-30 -65.5t-73 -26.5q-44 0 -73 26
t-29 66z" />
    <glyph glyph-name="Amacron" unicode="&#x100;" horiz-adv-x="1542" 
d="M252 0h-184l620 1337h168l621 -1337h-195l-182 401h-668zM760 1128l-264 -583h540l-264 583h-12zM510 1690h522v-127h-522v127z" />
    <glyph glyph-name="amacron" unicode="&#x101;" horiz-adv-x="1228" 
d="M233 733l-59 133q81 50 196 87.5t246 37.5q66 0 126 -9t117 -30t98.5 -53t66.5 -81t25 -111v-533q0 -117 30 -174h-166q-24 46 -28 135q-169 -155 -400 -155q-175 0 -279 91t-104 238q0 136 118 226t325 90q98 0 192.5 -25t147.5 -76v138q0 95 -78 142.5t-197 47.5
q-107 0 -211 -37t-166 -82zM518 117q70 0 138.5 20t115 48.5t75.5 51t38 35.5v121q-41 46 -128.5 74.5t-185.5 28.5q-154 0 -228.5 -51.5t-74.5 -135.5q0 -83 66.5 -137.5t183.5 -54.5zM352 1309h522v-129h-522v129z" />
    <glyph glyph-name="Abreve" unicode="&#x102;" horiz-adv-x="1542" 
d="M252 0h-184l620 1337h168l621 -1337h-195l-182 401h-668zM760 1128l-264 -583h540l-264 583h-12zM485 1757h121q0 -31 7 -57t24 -50.5t51.5 -38.5t83.5 -14t83.5 14t51.5 38.5t24 50.5t7 57h121q0 -39 -7 -74.5t-27 -72.5t-51 -64t-83 -44t-119 -17t-119 17t-83 44
t-51 64t-27 72.5t-7 74.5z" />
    <glyph glyph-name="abreve" unicode="&#x103;" horiz-adv-x="1228" 
d="M233 733l-59 133q81 50 196 87.5t246 37.5q66 0 126 -9t117 -30t98.5 -53t66.5 -81t25 -111v-533q0 -117 30 -174h-166q-24 46 -28 135q-169 -155 -400 -155q-175 0 -279 91t-104 238q0 136 118 226t325 90q98 0 192.5 -25t147.5 -76v138q0 95 -78 142.5t-197 47.5
q-107 0 -211 -37t-166 -82zM518 117q70 0 138.5 20t115 48.5t75.5 51t38 35.5v121q-41 46 -128.5 74.5t-185.5 28.5q-154 0 -228.5 -51.5t-74.5 -135.5q0 -83 66.5 -137.5t183.5 -54.5zM328 1384h121q0 -170 165 -170q49 0 83.5 15t51.5 41.5t24 53.5t7 60h121
q0 -40 -7 -76.5t-27 -75t-51 -66.5t-83 -46t-119 -18t-119 18t-82.5 46t-50.5 66.5t-27 75t-7 76.5z" />
    <glyph glyph-name="Aogonek" unicode="&#x104;" horiz-adv-x="1542" 
d="M252 0h-184l620 1337h168l621 -1337h-58q-248 -107 -248 -233q0 -56 46.5 -88.5t123.5 -32.5q40 0 134 16l14 -102q-97 -23 -176 -23q-130 0 -207.5 54t-77.5 145q0 48 23 92.5t62.5 79.5t78 60t82.5 46l-174 387h-668zM760 1128l-264 -583h540l-264 583h-12z" />
    <glyph glyph-name="aogonek" unicode="&#x105;" horiz-adv-x="1228" 
d="M233 733l-59 133q81 50 196 87.5t246 37.5q66 0 126 -9t117 -30t98.5 -53t66.5 -81t25 -111v-533q0 -117 30 -174q-248 -107 -248 -233q0 -56 46.5 -88.5t123.5 -32.5q40 0 134 16l14 -102q-97 -23 -176 -23q-130 0 -207.5 54t-77.5 145q0 150 223 268q-22 42 -26 131
q-169 -155 -400 -155q-175 0 -279 91t-104 238q0 136 118 226t325 90q98 0 192.5 -25t147.5 -76v138q0 95 -78 142.5t-197 47.5q-107 0 -211 -37t-166 -82zM518 117q70 0 138.5 20t115 48.5t75.5 51t38 35.5v121q-41 46 -128.5 74.5t-185.5 28.5q-154 0 -228.5 -51.5
t-74.5 -135.5q0 -83 66.5 -137.5t183.5 -54.5z" />
    <glyph glyph-name="Cacute" unicode="&#x106;" horiz-adv-x="1595" 
d="M1384 348l119 -117q-119 -118 -283.5 -192t-357.5 -74q-159 0 -296.5 55.5t-233.5 150.5t-150.5 224.5t-54.5 274.5q0 143 54.5 272t149.5 223.5t231 150.5t292 56q176 0 337.5 -62t274.5 -167l-120 -119q-92 88 -224 139t-264 51q-156 0 -281.5 -74t-194.5 -198.5
t-69 -273.5q0 -150 69.5 -274t196.5 -197.5t285 -73.5q152 0 287 62t233 163zM709 1507l245 252l211 -4l-303 -252z" />
    <glyph glyph-name="cacute" unicode="&#x107;" horiz-adv-x="1155" 
d="M1049 834l-111 -111q-61 61 -142 93t-163 32q-141 0 -238.5 -101.5t-97.5 -263.5q0 -163 101 -264.5t247 -101.5q181 0 316 141l110 -102q-19 -23 -52 -49.5t-87.5 -59.5t-134 -54.5t-166.5 -21.5q-103 0 -196.5 37t-164 102t-112 162t-41.5 211q0 149 70 266
t187.5 179.5t258.5 62.5q243 0 416 -157zM690 1419l187 -2l-213 -299l-148 2z" />
    <glyph glyph-name="Ccircumflex" unicode="&#x108;" horiz-adv-x="1595" 
d="M1384 348l119 -117q-119 -118 -283.5 -192t-357.5 -74q-159 0 -296.5 55.5t-233.5 150.5t-150.5 224.5t-54.5 274.5q0 143 54.5 272t149.5 223.5t231 150.5t292 56q176 0 337.5 -62t274.5 -167l-120 -119q-92 88 -224 139t-264 51q-156 0 -281.5 -74t-194.5 -198.5
t-69 -273.5q0 -150 69.5 -274t196.5 -197.5t285 -73.5q152 0 287 62t233 163zM549 1507l219 256h180l219 -256l-131 -4l-178 164l-178 -164z" />
    <glyph glyph-name="ccircumflex" unicode="&#x109;" horiz-adv-x="1155" 
d="M1049 834l-111 -111q-61 61 -142 93t-163 32q-141 0 -238.5 -101.5t-97.5 -263.5q0 -163 101 -264.5t247 -101.5q181 0 316 141l110 -102q-19 -23 -52 -49.5t-87.5 -59.5t-134 -54.5t-166.5 -21.5q-103 0 -196.5 37t-164 102t-112 162t-41.5 211q0 149 70 266
t187.5 179.5t258.5 62.5q243 0 416 -157zM324 1124l219 267h180l219 -267l-131 -4l-178 176l-178 -176z" />
    <glyph glyph-name="Cdotaccent" unicode="&#x10a;" horiz-adv-x="1595" 
d="M1384 348l119 -117q-119 -118 -283.5 -192t-357.5 -74q-159 0 -296.5 55.5t-233.5 150.5t-150.5 224.5t-54.5 274.5q0 143 54.5 272t149.5 223.5t231 150.5t292 56q176 0 337.5 -62t274.5 -167l-120 -119q-92 88 -224 139t-264 51q-156 0 -281.5 -74t-194.5 -198.5
t-69 -273.5q0 -150 69.5 -274t196.5 -197.5t285 -73.5q152 0 287 62t233 163zM858 1716q43 0 73 -28t30 -66q0 -40 -30 -67t-73 -27t-71.5 27t-28.5 67q0 39 29 66.5t71 27.5z" />
    <glyph glyph-name="cdotaccent" unicode="&#x10b;" horiz-adv-x="1155" 
d="M1049 834l-111 -111q-61 61 -142 93t-163 32q-141 0 -238.5 -101.5t-97.5 -263.5q0 -163 101 -264.5t247 -101.5q181 0 316 141l110 -102q-19 -23 -52 -49.5t-87.5 -59.5t-134 -54.5t-166.5 -21.5q-103 0 -196.5 37t-164 102t-112 162t-41.5 211q0 149 70 266
t187.5 179.5t258.5 62.5q243 0 416 -157zM532 1239q0 39 29.5 67.5t71.5 28.5t72 -28.5t30 -67.5t-29.5 -65.5t-72.5 -26.5t-72 26t-29 66z" />
    <glyph glyph-name="Ccaron" unicode="&#x10c;" horiz-adv-x="1595" 
d="M1384 348l119 -117q-119 -118 -283.5 -192t-357.5 -74q-159 0 -296.5 55.5t-233.5 150.5t-150.5 224.5t-54.5 274.5q0 143 54.5 272t149.5 223.5t231 150.5t292 56q176 0 337.5 -62t274.5 -167l-120 -119q-92 88 -224 139t-264 51q-156 0 -281.5 -74t-194.5 -198.5
t-69 -273.5q0 -150 69.5 -274t196.5 -197.5t285 -73.5q152 0 287 62t233 163zM680 1763l178 -164l178 164l131 -4l-219 -256h-180l-219 256z" />
    <glyph glyph-name="ccaron" unicode="&#x10d;" horiz-adv-x="1155" 
d="M1049 834l-111 -111q-61 61 -142 93t-163 32q-141 0 -238.5 -101.5t-97.5 -263.5q0 -163 101 -264.5t247 -101.5q181 0 316 141l110 -102q-19 -23 -52 -49.5t-87.5 -59.5t-134 -54.5t-166.5 -21.5q-103 0 -196.5 37t-164 102t-112 162t-41.5 211q0 149 70 266
t187.5 179.5t258.5 62.5q243 0 416 -157zM324 1389l131 4l178 -176l178 176l131 -4l-219 -269h-180z" />
    <glyph glyph-name="Dcaron" unicode="&#x10e;" horiz-adv-x="1673" 
d="M842 0h-594v1337h594q177 0 294.5 -46.5t215.5 -139.5q90 -91 138 -215t48 -266q0 -146 -51.5 -274.5t-145.5 -219.5q-100 -90 -211 -133t-288 -43zM426 158h410q134 0 210 30.5t156 98.5q71 71 110.5 170.5t39.5 212.5q0 110 -37.5 206.5t-106.5 167.5q-77 70 -158 103
t-214 33h-410v-1022zM631 1763l178 -164l178 164l131 -4l-219 -256h-180l-219 256z" />
    <glyph glyph-name="dcaron" unicode="&#x10f;" horiz-adv-x="1284" 
d="M930 264v434q-150 150 -312 150q-135 0 -227 -101.5t-92 -263.5q0 -164 92 -266t227 -102q75 0 145.5 30t106.5 60t60 59zM1110 0h-152q-14 63 -14 141q-44 -62 -136.5 -116t-205.5 -54q-99 0 -187 36.5t-153.5 102t-104 162.5t-38.5 211q0 112 38.5 208t104.5 161
t154 102t186 37q182 0 328 -143v586h164v-1188q0 -162 16 -246zM1311 985q-6 0 -15.5 0.5t-30 0.5t-34 0.5t-12.5 0.5q22 150 22 447h164q0 -141 -21.5 -245.5t-72.5 -203.5z" />
    <glyph glyph-name="Dcroat" unicode="&#x110;" horiz-adv-x="1730" 
d="M100 625v143h205v569h594q176 0 293 -46.5t217 -139.5q89 -91 136.5 -214.5t47.5 -266.5q0 -146 -51 -274.5t-145 -219.5q-98 -90 -210 -133t-288 -43h-594v625h-205zM481 158h410q135 0 210 30t156 99q72 72 112 171.5t40 211.5q0 229 -145 374q-75 70 -156.5 103
t-216.5 33h-410v-412h426v-143h-426v-467z" />
    <glyph glyph-name="dcroat" unicode="&#x111;" horiz-adv-x="1284" 
d="M618 1145v110h312v179h164v-179h161v-110h-161v-899q0 -162 16 -246h-152q-14 63 -14 141q-44 -62 -136.5 -116t-205.5 -54q-99 0 -187 36.5t-153.5 102t-104 162.5t-38.5 211q0 112 38.5 208t104.5 161t154 102t186 37q182 0 328 -143v297h-312zM618 848
q-135 0 -227 -101.5t-92 -263.5q0 -164 92 -266t227 -102q75 0 145.5 30t106.5 60t60 59v434q-150 150 -312 150z" />
    <glyph glyph-name="Emacron" unicode="&#x112;" horiz-adv-x="1468" 
d="M967 782v-157h-541v-467h944v-158h-1122v1337h1075v-157h-897v-398h541zM526 1690h523v-127h-523v127z" />
    <glyph glyph-name="emacron" unicode="&#x113;" horiz-adv-x="1218" 
d="M971 258l108 -106q-83 -80 -206.5 -130.5t-262.5 -50.5q-151 0 -264.5 68.5t-171 181t-57.5 250.5q0 220 144.5 370t363.5 150q70 0 137.5 -17t130 -55t110 -93t76 -137t29.5 -181q0 -33 -2 -49h-825q5 -148 96.5 -245t249.5 -97q100 0 190.5 38t153.5 103zM616 854
q-124 0 -209 -74t-114 -192h635q-3 126 -97.5 196t-214.5 70zM356 1309h523v-129h-523v129z" />
    <glyph glyph-name="Ebreve" unicode="&#x114;" horiz-adv-x="1468" 
d="M967 782v-157h-541v-467h944v-158h-1122v1337h1075v-157h-897v-398h541zM502 1757h121q0 -160 165 -160q49 0 83.5 14t51.5 38.5t24 50.5t7 57h121q0 -39 -7 -74.5t-27 -72.5t-51 -64t-83 -44t-119 -17t-119 17t-82.5 44t-50.5 64t-27 72.5t-7 74.5z" />
    <glyph glyph-name="ebreve" unicode="&#x115;" horiz-adv-x="1218" 
d="M971 258l108 -106q-83 -80 -206.5 -130.5t-262.5 -50.5q-151 0 -264.5 68.5t-171 181t-57.5 250.5q0 220 144.5 370t363.5 150q70 0 137.5 -17t130 -55t110 -93t76 -137t29.5 -181q0 -33 -2 -49h-825q5 -148 96.5 -245t249.5 -97q100 0 190.5 38t153.5 103zM616 854
q-124 0 -209 -74t-114 -192h635q-3 126 -97.5 196t-214.5 70zM332 1384h121q0 -170 165 -170q49 0 83.5 15t51.5 41.5t24 53.5t7 60h121q0 -40 -7 -76.5t-27 -75t-51 -66.5t-83 -46t-119 -18t-119 18t-82.5 46t-50.5 66.5t-27 75t-7 76.5z" />
    <glyph glyph-name="Edotaccent" unicode="&#x116;" horiz-adv-x="1468" 
d="M967 782v-157h-541v-467h944v-158h-1122v1337h1075v-157h-897v-398h541zM788 1716q43 0 73 -28t30 -66q0 -40 -30 -67t-73 -27t-71.5 27t-28.5 67q0 39 29 66.5t71 27.5z" />
    <glyph glyph-name="edotaccent" unicode="&#x117;" horiz-adv-x="1218" 
d="M971 258l108 -106q-83 -80 -206.5 -130.5t-262.5 -50.5q-151 0 -264.5 68.5t-171 181t-57.5 250.5q0 220 144.5 370t363.5 150q70 0 137.5 -17t130 -55t110 -93t76 -137t29.5 -181q0 -33 -2 -49h-825q5 -148 96.5 -245t249.5 -97q100 0 190.5 38t153.5 103zM616 854
q-124 0 -209 -74t-114 -192h635q-3 126 -97.5 196t-214.5 70zM518 1239q0 39 29 67.5t71 28.5t72.5 -28.5t30.5 -67.5t-30 -65.5t-73 -26.5t-71.5 26t-28.5 66z" />
    <glyph glyph-name="Eogonek" unicode="&#x118;" horiz-adv-x="1468" 
d="M967 782v-157h-541v-467h944v-158h-110q-248 -107 -248 -233q0 -56 46.5 -88.5t123.5 -32.5q39 0 133 16l14 -102q-97 -23 -176 -23q-130 0 -207.5 54t-77.5 145q0 82 62.5 148.5t152.5 115.5h-835v1337h1075v-157h-897v-398h541z" />
    <glyph glyph-name="eogonek" unicode="&#x119;" horiz-adv-x="1218" 
d="M971 258l108 -106q-112 -109 -276 -154q-242 -108 -242 -231q0 -56 46.5 -88.5t123.5 -32.5q39 0 133 16l15 -102q-97 -23 -177 -23q-130 0 -207 54t-77 145q0 128 168 235q-144 6 -252 75t-162.5 179.5t-54.5 245.5q0 220 144.5 370t363.5 150q70 0 137.5 -17t130 -55
t110 -93t76 -137t29.5 -181q0 -33 -2 -49h-825q5 -148 96.5 -245t249.5 -97q100 0 190.5 38t153.5 103zM616 854q-124 0 -209 -74t-114 -192h635q-3 126 -97.5 196t-214.5 70z" />
    <glyph glyph-name="Ecaron" unicode="&#x11a;" horiz-adv-x="1468" 
d="M967 782v-157h-541v-467h944v-158h-1122v1337h1075v-157h-897v-398h541zM610 1763l178 -164l179 164l131 -4l-219 -256h-181l-219 256z" />
    <glyph glyph-name="ecaron" unicode="&#x11b;" horiz-adv-x="1218" 
d="M971 258l108 -106q-83 -80 -206.5 -130.5t-262.5 -50.5q-151 0 -264.5 68.5t-171 181t-57.5 250.5q0 220 144.5 370t363.5 150q70 0 137.5 -17t130 -55t110 -93t76 -137t29.5 -181q0 -33 -2 -49h-825q5 -148 96.5 -245t249.5 -97q100 0 190.5 38t153.5 103zM616 854
q-124 0 -209 -74t-114 -192h635q-3 126 -97.5 196t-214.5 70zM309 1389l131 4l178 -176l179 176l131 -4l-219 -269h-181z" />
    <glyph glyph-name="Gcircumflex" unicode="&#x11c;" horiz-adv-x="1662" 
d="M1460 1147l-123 -111q-88 82 -217.5 130t-257.5 48q-155 0 -281.5 -73.5t-197 -198.5t-70.5 -274q0 -108 39.5 -206.5t111 -174t179.5 -120t236 -44.5q120 0 238.5 35t193.5 96v317h-434v158h596v-561q-122 -94 -284 -148.5t-321 -54.5q-206 0 -376.5 94.5t-267.5 256.5
t-97 354t97 353t265.5 255t370.5 94q159 0 315.5 -58.5t284.5 -166.5zM553 1507l219 256h180l219 -256l-131 -4l-178 164l-178 -164z" />
    <glyph glyph-name="gcircumflex" unicode="&#x11d;" horiz-adv-x="1284" 
d="M930 -61v190q-152 -158 -332 -158q-97 0 -184.5 36.5t-152.5 101.5t-103.5 160.5t-38.5 207.5q0 114 39 211t105 163t155.5 103t189.5 37q110 0 201.5 -57t134.5 -121q0 76 21 150h151q-22 -92 -22 -246v-778q0 -84 -31.5 -156.5t-90.5 -128t-151.5 -87.5t-208.5 -32
q-281 0 -436 166l98 96q121 -125 338 -125q151 0 234.5 75t83.5 192zM612 115q168 0 318 147v434q-17 21 -41.5 43t-63.5 48.5t-92 43.5t-110 17q-136 0 -230 -103t-94 -268q0 -161 90.5 -261.5t222.5 -100.5zM332 1124l219 267h180l219 -267l-131 -4l-178 176l-178 -176z
" />
    <glyph glyph-name="Gbreve" unicode="&#x11e;" horiz-adv-x="1662" 
d="M1460 1147l-123 -111q-88 82 -217.5 130t-257.5 48q-155 0 -281.5 -73.5t-197 -198.5t-70.5 -274q0 -108 39.5 -206.5t111 -174t179.5 -120t236 -44.5q120 0 238.5 35t193.5 96v317h-434v158h596v-561q-122 -94 -284 -148.5t-321 -54.5q-206 0 -376.5 94.5t-267.5 256.5
t-97 354t97 353t265.5 255t370.5 94q159 0 315.5 -58.5t284.5 -166.5zM575 1757h121q0 -31 7 -57t24 -50.5t51.5 -38.5t83.5 -14t83.5 14t51.5 38.5t24 50.5t7 57h121q0 -39 -7 -74.5t-27 -72.5t-51 -64t-83 -44t-119 -17t-119 17t-83 44t-51 64t-27 72.5t-7 74.5z" />
    <glyph glyph-name="gbreve" unicode="&#x11f;" horiz-adv-x="1284" 
d="M930 -61v190q-152 -158 -332 -158q-97 0 -184.5 36.5t-152.5 101.5t-103.5 160.5t-38.5 207.5q0 114 39 211t105 163t155.5 103t189.5 37q110 0 201.5 -57t134.5 -121q0 76 21 150h151q-22 -92 -22 -246v-778q0 -84 -31.5 -156.5t-90.5 -128t-151.5 -87.5t-208.5 -32
q-281 0 -436 166l98 96q121 -125 338 -125q151 0 234.5 75t83.5 192zM612 115q168 0 318 147v434q-17 21 -41.5 43t-63.5 48.5t-92 43.5t-110 17q-136 0 -230 -103t-94 -268q0 -161 90.5 -261.5t222.5 -100.5zM354 1384h121q0 -33 7 -60t24 -53.5t51.5 -41.5t83.5 -15
t83.5 15t51.5 41.5t24 53.5t7 60h121q0 -40 -7 -76.5t-27 -75t-51 -66.5t-83 -46t-119 -18t-119 18t-83 46t-51 66.5t-27 75t-7 76.5z" />
    <glyph glyph-name="Gdotaccent" unicode="&#x120;" horiz-adv-x="1662" 
d="M1460 1147l-123 -111q-88 82 -217.5 130t-257.5 48q-155 0 -281.5 -73.5t-197 -198.5t-70.5 -274q0 -108 39.5 -206.5t111 -174t179.5 -120t236 -44.5q120 0 238.5 35t193.5 96v317h-434v158h596v-561q-122 -94 -284 -148.5t-321 -54.5q-206 0 -376.5 94.5t-267.5 256.5
t-97 354t97 353t265.5 255t370.5 94q159 0 315.5 -58.5t284.5 -166.5zM862 1716q43 0 73 -28t30 -66q0 -40 -30 -67t-73 -27t-71.5 27t-28.5 67q0 39 29 66.5t71 27.5z" />
    <glyph glyph-name="gdotaccent" unicode="&#x121;" horiz-adv-x="1284" 
d="M930 -61v190q-152 -158 -332 -158q-97 0 -184.5 36.5t-152.5 101.5t-103.5 160.5t-38.5 207.5q0 114 39 211t105 163t155.5 103t189.5 37q110 0 201.5 -57t134.5 -121q0 76 21 150h151q-22 -92 -22 -246v-778q0 -84 -31.5 -156.5t-90.5 -128t-151.5 -87.5t-208.5 -32
q-281 0 -436 166l98 96q121 -125 338 -125q151 0 234.5 75t83.5 192zM612 115q168 0 318 147v434q-17 21 -41.5 43t-63.5 48.5t-92 43.5t-110 17q-136 0 -230 -103t-94 -268q0 -161 90.5 -261.5t222.5 -100.5zM541 1239q0 39 29 67.5t71 28.5t72 -28.5t30 -67.5t-29.5 -65.5
t-72.5 -26.5t-71.5 26t-28.5 66z" />
    <glyph glyph-name="uni0122" unicode="&#x122;" horiz-adv-x="1662" 
d="M1460 1147l-123 -111q-88 82 -217.5 130t-257.5 48q-155 0 -281.5 -73.5t-197 -198.5t-70.5 -274q0 -108 39.5 -206.5t111 -174t179.5 -120t236 -44.5q120 0 238.5 35t193.5 96v317h-434v158h596v-561q-122 -94 -284 -148.5t-321 -54.5q-206 0 -376.5 94.5t-267.5 256.5
t-97 354t97 353t265.5 255t370.5 94q159 0 315.5 -58.5t284.5 -166.5zM823 -123l133 35q101 -83 101 -188q0 -100 -85.5 -159t-228.5 -59q-77 0 -163 21l16 102q82 -12 119 -12q89 0 138.5 31.5t49.5 87.5q0 77 -80 141z" />
    <glyph glyph-name="uni0123" unicode="&#x123;" horiz-adv-x="1284" 
d="M702 1139l-133 -31q-110 88 -110 190q0 99 82 158.5t223 59.5q66 0 119 -13v-102q-47 8 -103 8q-80 0 -124 -30.5t-44 -90.5q0 -45 23.5 -79.5t66.5 -69.5zM930 -61v190q-152 -158 -332 -158q-97 0 -184.5 36.5t-152.5 101.5t-103.5 160.5t-38.5 207.5q0 114 39 211
t105 163t155.5 103t189.5 37q110 0 201.5 -57t134.5 -121q0 76 21 150h151q-22 -92 -22 -246v-778q0 -84 -31.5 -156.5t-90.5 -128t-151.5 -87.5t-208.5 -32q-281 0 -436 166l98 96q121 -125 338 -125q151 0 234.5 75t83.5 192zM612 115q168 0 318 147v434q-17 21 -41.5 43
t-63.5 48.5t-92 43.5t-110 17q-136 0 -230 -103t-94 -268q0 -161 90.5 -261.5t222.5 -100.5z" />
    <glyph glyph-name="Hcircumflex" unicode="&#x124;" horiz-adv-x="1673" 
d="M426 0h-178v1337h178v-532h821v532h176v-1337h-176v647h-821v-647zM526 1507l219 256h181l219 -256l-131 -4l-178 164l-179 -164z" />
    <glyph glyph-name="hcircumflex" unicode="&#x125;" horiz-adv-x="1236" 
d="M100 1563l-131 4l219 256h183l217 -256l-131 -4l-176 163zM352 0h-162v1434h162v-603q147 160 326 160q171 0 277 -95t106 -245v-651h-164v651q0 83 -66 140t-167 57q-161 0 -312 -164v-684z" />
    <glyph glyph-name="Hbar" unicode="&#x126;" horiz-adv-x="1697" 
d="M55 969v141h205v227h178v-227h822v227h176v-227h204v-141h-204v-969h-176v588h-822v-588h-178v969h-205zM438 748h822v221h-822v-221z" />
    <glyph glyph-name="hbar" unicode="&#x127;" horiz-adv-x="1236" 
d="M27 1145v110h163v179h162v-179h312v-110h-312v-314q147 160 326 160q171 0 277 -95t106 -245v-651h-164v651q0 83 -66 140t-167 57q-161 0 -312 -164v-684h-162v1145h-163z" />
    <glyph glyph-name="Itilde" unicode="&#x128;" horiz-adv-x="673" 
d="M426 0h-178v1337h178v-1337zM98 1507l-108 58q51 85 101 123t110 38q37 0 68.5 -14t72.5 -43q74 -55 117 -55q23 0 45.5 16t34 31t34.5 47l101 -55q-93 -164 -209 -164q-75 0 -143 53q-5 4 -18 13.5t-18 13t-15.5 10.5t-16 10t-14 6.5t-16 5t-15.5 1.5q-10 0 -19.5 -2.5
t-19 -9.5t-15.5 -11.5t-16 -17t-13.5 -16.5t-14.5 -19.5t-13 -18.5z" />
    <glyph glyph-name="itilde" unicode="&#x129;" horiz-adv-x="542" 
d="M352 0h-162v961h162v-961zM33 1124l-107 58q51 85 100 123t109 38q37 0 68.5 -14t72.5 -43q74 -55 117 -55q23 0 46 16.5t35.5 31.5t35.5 46l98 -55q-95 -164 -209 -164q-75 0 -143 53q-5 4 -18 13.5t-18 13t-15.5 10.5t-16 10t-14 6.5t-16 5t-15.5 1.5q-9 0 -17.5 -2.5
t-15 -5.5t-15 -11t-13 -12t-13.5 -15.5t-12 -15.5t-12.5 -17t-11.5 -16z" />
    <glyph glyph-name="Imacron" unicode="&#x12a;" horiz-adv-x="673" 
d="M426 0h-178v1337h178v-1337zM76 1690h522v-127h-522v127z" />
    <glyph glyph-name="imacron" unicode="&#x12b;" horiz-adv-x="542" 
d="M352 0h-162v961h162v-961zM10 1309h522v-129h-522v129z" />
    <glyph glyph-name="Ibreve" unicode="&#x12c;" horiz-adv-x="673" 
d="M426 0h-178v1337h178v-1337zM49 1757h121q0 -67 37.5 -113.5t130.5 -46.5q49 0 83.5 14t51.5 38.5t24 50.5t7 57h119q0 -50 -12.5 -93.5t-42 -86t-88.5 -67.5t-142 -25q-84 0 -144 25t-90 67.5t-42.5 86t-12.5 93.5z" />
    <glyph glyph-name="ibreve" unicode="&#x12d;" horiz-adv-x="542" 
d="M352 0h-162v961h162v-961zM-14 1384h120q0 -33 7 -60t24 -53.5t51.5 -41.5t83.5 -15t83.5 15t51.5 41.5t24 53.5t7 60h119q0 -40 -7 -76.5t-26.5 -75t-50 -66.5t-82.5 -46t-119 -18t-119 18t-82.5 46t-50.5 66.5t-27 75t-7 76.5z" />
    <glyph glyph-name="Iogonek" unicode="&#x12e;" horiz-adv-x="673" 
d="M426 0q-246 -109 -246 -233q0 -57 45.5 -89t122.5 -32q39 0 133 16l15 -102q-94 -23 -174 -23q-132 0 -208.5 54t-76.5 145q0 82 61.5 148.5t149.5 115.5v1337h178v-1337z" />
    <glyph glyph-name="iogonek" unicode="&#x12f;" horiz-adv-x="542" 
d="M352 0q-248 -107 -248 -233q0 -56 46.5 -88.5t123.5 -32.5q40 0 134 16l14 -102q-97 -23 -176 -23q-130 0 -207.5 54t-77.5 145q0 45 20.5 87.5t56 76.5t72.5 59.5t80 46.5v955h162v-961zM164 1313q0 40 30.5 69t75.5 29t77 -29t32 -69q0 -41 -31.5 -70t-77.5 -29
q-45 0 -75.5 28.5t-30.5 70.5z" />
    <glyph glyph-name="Idotaccent" unicode="&#x130;" horiz-adv-x="673" 
d="M426 0h-178v1337h178v-1337zM338 1716q42 0 72 -27.5t30 -66.5q0 -40 -29.5 -67t-72.5 -27q-44 0 -73 27t-29 67q0 39 29 66.5t73 27.5z" />
    <glyph glyph-name="dotlessi" unicode="&#x131;" horiz-adv-x="542" 
d="M352 0h-162v961h162v-961z" />
    <glyph glyph-name="IJ" unicode="&#x132;" horiz-adv-x="2029" 
d="M426 0h-178v1337h178v-1337zM1632 1337h176v-862q0 -239 -155.5 -374.5t-405.5 -135.5q-96 0 -177.5 22.5t-135 55t-99.5 81t-71 88t-49 89.5l147 78q17 -37 35 -68t50.5 -67.5t71.5 -61.5t98 -42t128 -17q172 0 279.5 93t107.5 259v862z" />
    <glyph glyph-name="ij" unicode="&#x133;" horiz-adv-x="1085" 
d="M352 0h-162v961h162v-961zM164 1313q0 40 30.5 69t75.5 29t77 -29t32 -69q0 -41 -31.5 -70t-77.5 -29q-45 0 -75.5 28.5t-30.5 70.5zM569 -465l-47 129q42 6 75 18.5t66 37t51.5 69.5t18.5 107v1065h162v-1065q0 -95 -30.5 -168t-79.5 -113t-104 -60t-112 -20zM707 1313
q0 40 30.5 69t75.5 29t77 -29t32 -69q0 -41 -31.5 -70t-77.5 -29q-45 0 -75.5 28.5t-30.5 70.5z" />
    <glyph glyph-name="Jcircumflex" unicode="&#x134;" horiz-adv-x="1355" 
d="M958 1337h177v-862q0 -239 -155.5 -374.5t-406.5 -135.5q-96 0 -177.5 22.5t-135 55t-99.5 81t-71 88t-49 89.5l147 78q17 -37 35 -68t50.5 -67.5t71.5 -61.5t98 -42t128 -17q172 0 279.5 93t107.5 259v862zM741 1507l220 256h180l217 -256l-129 -4l-178 164l-181 -164z
" />
    <glyph glyph-name="jcircumflex" unicode="&#x135;" horiz-adv-x="542" 
d="M27 -465l-47 129q42 6 75 18.5t66 37t51 69.5t18 107v1065h162v-1065q0 -77 -20 -139.5t-53 -103t-76 -68t-87 -39t-89 -11.5zM-37 1124l219 267h180l218 -267l-129 -4l-179 176l-180 -176z" />
    <glyph glyph-name="uni0136" unicode="&#x136;" horiz-adv-x="1546" 
d="M1190 1337h219l-532 -510l645 -827h-230l-544 709l-322 -314v-395h-178v1337h178v-743zM762 -123l133 35q100 -82 100 -188q0 -100 -85 -159t-228 -59q-78 0 -164 21l17 102q82 -12 118 -12q89 0 139 31.5t50 87.5q0 77 -80 141z" />
    <glyph glyph-name="uni0137" unicode="&#x137;" horiz-adv-x="1153" 
d="M850 961h221l-387 -343l446 -618h-204l-363 512l-209 -184v-328h-164v1434h164v-932zM532 -117l132 29q110 -84 110 -188q0 -99 -82 -158.5t-223 -59.5q-63 0 -119 13l2 102q44 -8 101 -8q81 0 124.5 30t43.5 89q0 74 -89 151z" />
    <glyph glyph-name="kgreenlandic" unicode="&#x138;" horiz-adv-x="1153" 
d="M850 963h221l-387 -345l446 -618h-204l-363 512l-209 -184v-328h-164v963h164v-461z" />
    <glyph glyph-name="Lacute" unicode="&#x139;" horiz-adv-x="1312" 
d="M248 1337h178v-1179h844v-158h-1022v1337zM188 1507l246 252l211 -4l-303 -252z" />
    <glyph glyph-name="lacute" unicode="&#x13a;" horiz-adv-x="571" 
d="M203 0v1434h164v-1434h-164zM137 1567l246 252l211 -4l-303 -252z" />
    <glyph glyph-name="uni013B" unicode="&#x13b;" horiz-adv-x="1312" 
d="M248 1337h178v-1179h844v-158h-1022v1337zM645 -123l133 35q101 -83 101 -188q0 -100 -85.5 -159t-228.5 -59q-79 0 -164 21l17 102q82 -12 119 -12q89 0 138.5 31.5t49.5 87.5q0 77 -80 141z" />
    <glyph glyph-name="uni013C" unicode="&#x13c;" horiz-adv-x="571" 
d="M367 0h-164v1434h164v-1434zM262 -117l131 29q111 -85 111 -188q0 -99 -82 -158.5t-223 -59.5q-63 0 -119 13l2 102q44 -8 100 -8q81 0 124.5 30t43.5 89q0 75 -88 151z" />
    <glyph glyph-name="Lcaron" unicode="&#x13d;" horiz-adv-x="1312" 
d="M248 0v1337h178v-1179h844v-158h-1022zM786 985l-94 2q25 151 25 447h162q0 -140 -21.5 -244.5t-71.5 -204.5z" />
    <glyph glyph-name="lcaron" unicode="&#x13e;" horiz-adv-x="571" 
d="M367 0h-164v1434h164v-1434zM584 985q-6 0 -15.5 0.5t-30 0.5t-34 0.5t-12.5 0.5q22 150 22 447h164q0 -141 -21.5 -245.5t-72.5 -203.5z" />
    <glyph glyph-name="Ldot" unicode="&#x13f;" horiz-adv-x="1351" 
d="M248 1337h178v-1179h844v-158h-1022v1337zM973 899q42 0 72 -27.5t30 -66.5q0 -40 -29.5 -67t-72.5 -27t-72 27t-29 67q0 39 29.5 66.5t71.5 27.5z" />
    <glyph glyph-name="ldot" unicode="&#x140;" horiz-adv-x="636" 
d="M469 741q0 39 29 67t71 28q43 0 73 -28.5t30 -66.5q0 -40 -29.5 -67t-73.5 -27q-43 0 -71.5 27t-28.5 67zM367 0h-164v1434h164v-1434z" />
    <glyph glyph-name="Lslash" unicode="&#x141;" horiz-adv-x="1355" 
d="M291 1337h176v-542l414 241l2 -141l-416 -242v-495h844v-158h-1020v551l-205 -119l-2 141l207 119v645z" />
    <glyph glyph-name="lslash" unicode="&#x142;" horiz-adv-x="645" 
d="M403 0h-161v653l-146 -84l-55 97l201 116v652h161v-557l181 104l57 -96l-238 -137v-748z" />
    <glyph glyph-name="Nacute" unicode="&#x143;" horiz-adv-x="1687" 
d="M1262 1337h178v-1337h-162l-850 1026h-2v-1026h-178v1337h162l850 -1026h2v1026zM694 1507l246 252l211 -4l-303 -252z" />
    <glyph glyph-name="nacute" unicode="&#x144;" horiz-adv-x="1241" 
d="M356 0h-163v717q0 118 -27 244h149q20 -74 23 -148q74 82 156.5 130t197.5 48q159 0 265 -96t106 -244v-651h-164v651q0 83 -65.5 140t-165.5 57q-165 0 -312 -164v-684zM676 1419l186 -2l-213 -299l-147 2z" />
    <glyph glyph-name="uni0145" unicode="&#x145;" horiz-adv-x="1687" 
d="M1262 1337h178v-1337h-162l-850 1026h-2v-1026h-178v1337h162l850 -1026h2v1026zM799 -123l133 35q100 -82 100 -188q0 -100 -85 -159t-228 -59q-79 0 -164 21l16 102q82 -12 119 -12q89 0 139 31.5t50 87.5q0 77 -80 141z" />
    <glyph glyph-name="uni0146" unicode="&#x146;" horiz-adv-x="1241" 
d="M356 0h-163v717q0 118 -27 244h149q20 -74 23 -148q74 82 156.5 130t197.5 48q159 0 265 -96t106 -244v-651h-164v651q0 83 -65.5 140t-165.5 57q-165 0 -312 -164v-684zM567 -117l131 29q111 -85 111 -188q0 -99 -82 -158.5t-223 -59.5q-63 0 -119 13l2 102
q44 -8 100 -8q81 0 124.5 30t43.5 89q0 75 -88 151z" />
    <glyph glyph-name="Ncaron" unicode="&#x147;" horiz-adv-x="1687" 
d="M1262 1337h178v-1337h-162l-850 1026h-2v-1026h-178v1337h162l850 -1026h2v1026zM666 1763l178 -164l178 164l131 -4l-219 -256h-180l-219 256z" />
    <glyph glyph-name="ncaron" unicode="&#x148;" horiz-adv-x="1241" 
d="M356 0h-163v717q0 118 -27 244h149q20 -74 23 -148q74 82 156.5 130t197.5 48q159 0 265 -96t106 -244v-651h-164v651q0 83 -65.5 140t-165.5 57q-165 0 -312 -164v-684zM309 1389l131 4l178 -176l179 176l131 -4l-219 -269h-181z" />
    <glyph glyph-name="napostrophe" unicode="&#x149;" horiz-adv-x="1241" 
d="M-10 1067l-56 82q40 13 79.5 36.5t72.5 64t33 85.5q0 31 -23 41q-28 -8 -45 -8q-35 0 -59.5 24.5t-24.5 61.5q0 38 29 63t72 25q68 0 118 -49.5t50 -122.5q0 -206 -246 -303zM356 0h-163v717q0 118 -27 244h149q20 -74 23 -148q74 82 156.5 130t197.5 48q159 0 265 -96
t106 -244v-651h-164v651q0 83 -65.5 140t-165.5 57q-165 0 -312 -164v-684z" />
    <glyph glyph-name="Eng" unicode="&#x14a;" horiz-adv-x="1687" 
d="M1262 311v1026h178v-1292q0 -239 -156 -374.5t-407 -135.5v158q166 0 272 88.5t113 245.5h-5l-829 999h-2v-1026h-178v1337h162l850 -1026h2z" />
    <glyph glyph-name="eng" unicode="&#x14b;" horiz-adv-x="1241" 
d="M1063 651v-755q0 -77 -20.5 -139.5t-53.5 -103t-77 -68t-88 -39t-89 -11.5l-47 129q42 6 75 18.5t66 37t51.5 69.5t18.5 107v755q0 83 -65.5 140t-165.5 57q-165 0 -312 -164v-684h-163v717q0 118 -27 244h149q20 -74 23 -148q74 82 156.5 130t197.5 48q159 0 265 -96
t106 -244z" />
    <glyph glyph-name="Omacron" unicode="&#x14c;" horiz-adv-x="1742" 
d="M129 672q0 143 58 272.5t156.5 223t236 149t290.5 55.5q152 0 290.5 -55.5t238 -149t158.5 -223t59 -272.5q0 -145 -59 -276t-158.5 -225.5t-237.5 -150t-291 -55.5t-290.5 55.5t-236.5 150t-156.5 225.5t-57.5 276zM315 672q0 -150 73 -276t200.5 -199.5t281.5 -73.5
q115 0 219 43.5t178.5 117t118.5 175t44 213.5q0 110 -44 210.5t-118.5 173t-178.5 115.5t-219 43q-154 0 -281.5 -72.5t-200.5 -197t-73 -272.5zM610 1690h523v-127h-523v127z" />
    <glyph glyph-name="omacron" unicode="&#x14d;" horiz-adv-x="1263" 
d="M117 483q0 214 146 361t368 147q223 0 369.5 -146.5t146.5 -361.5q0 -142 -65.5 -259t-184 -185t-266.5 -68q-222 0 -368 147.5t-146 364.5zM287 483q0 -157 96 -265.5t248 -108.5q154 0 251 108.5t97 265.5q0 154 -97.5 262.5t-250.5 108.5q-151 0 -247.5 -108.5
t-96.5 -262.5zM369 1309h522v-129h-522v129z" />
    <glyph glyph-name="Obreve" unicode="&#x14e;" horiz-adv-x="1742" 
d="M129 672q0 143 58 272.5t156.5 223t236 149t290.5 55.5q152 0 290.5 -55.5t238 -149t158.5 -223t59 -272.5q0 -145 -59 -276t-158.5 -225.5t-237.5 -150t-291 -55.5t-290.5 55.5t-236.5 150t-156.5 225.5t-57.5 276zM315 672q0 -150 73 -276t200.5 -199.5t281.5 -73.5
q115 0 219 43.5t178.5 117t118.5 175t44 213.5q0 110 -44 210.5t-118.5 173t-178.5 115.5t-219 43q-154 0 -281.5 -72.5t-200.5 -197t-73 -272.5zM586 1757h121q0 -160 165 -160q49 0 83.5 14t51.5 38.5t24 50.5t7 57h121q0 -39 -7 -74.5t-27 -72.5t-51 -64t-83 -44
t-119 -17t-119 17t-82.5 44t-50.5 64t-27 72.5t-7 74.5z" />
    <glyph glyph-name="obreve" unicode="&#x14f;" horiz-adv-x="1263" 
d="M117 483q0 214 146 361t368 147q223 0 369.5 -146.5t146.5 -361.5q0 -142 -65.5 -259t-184 -185t-266.5 -68q-222 0 -368 147.5t-146 364.5zM287 483q0 -157 96 -265.5t248 -108.5q154 0 251 108.5t97 265.5q0 154 -97.5 262.5t-250.5 108.5q-151 0 -247.5 -108.5
t-96.5 -262.5zM344 1384h121q0 -33 7 -60t24 -53.5t51.5 -41.5t83.5 -15t83.5 15t51.5 41.5t24 53.5t7 60h121q0 -40 -7 -76.5t-27 -75t-51 -66.5t-83 -46t-119 -18t-119 18t-83 46t-51 66.5t-27 75t-7 76.5z" />
    <glyph glyph-name="Ohungarumlaut" unicode="&#x150;" horiz-adv-x="1742" 
d="M129 672q0 143 58 272.5t156.5 223t236 149t290.5 55.5q152 0 290.5 -55.5t238 -149t158.5 -223t59 -272.5q0 -145 -59 -276t-158.5 -225.5t-237.5 -150t-291 -55.5t-290.5 55.5t-236.5 150t-156.5 225.5t-57.5 276zM315 672q0 -150 73 -276t200.5 -199.5t281.5 -73.5
q115 0 219 43.5t178.5 117t118.5 175t44 213.5q0 110 -44 210.5t-118.5 173t-178.5 115.5t-219 43q-154 0 -281.5 -72.5t-200.5 -197t-73 -272.5zM723 1493l-107 4l107 281l149 -2zM1073 1493l-106 4l106 281l152 -2z" />
    <glyph glyph-name="ohungarumlaut" unicode="&#x151;" horiz-adv-x="1263" 
d="M117 483q0 214 146 361t368 147q223 0 369.5 -146.5t146.5 -361.5q0 -142 -65.5 -259t-184 -185t-266.5 -68q-222 0 -368 147.5t-146 364.5zM287 483q0 -157 96 -265.5t248 -108.5q154 0 251 108.5t97 265.5q0 154 -97.5 262.5t-250.5 108.5q-151 0 -247.5 -108.5
t-96.5 -262.5zM481 1110l-106 4l106 283l150 -4zM831 1110l-106 4l106 283l152 -4z" />
    <glyph glyph-name="OE" unicode="&#x152;" horiz-adv-x="2650" 
d="M2552 158v-158h-1122v274q-82 -151 -236 -230t-340 -79q-150 0 -284.5 55.5t-231 150t-153 225.5t-56.5 276q0 143 56.5 272.5t153 223t231.5 149t284 55.5q188 0 341 -78t235 -231v274h1075v-157h-897v-400h540v-157h-540v-465h944zM315 672q0 -149 71 -275.5t195 -200
t273 -73.5q159 0 291.5 73.5t208.5 199.5t76 276q0 148 -76 272.5t-208.5 197t-291.5 72.5q-112 0 -212 -43t-171.5 -115.5t-113.5 -173t-42 -210.5z" />
    <glyph glyph-name="oe" unicode="&#x153;" horiz-adv-x="2080" 
d="M1831 258l111 -106q-83 -81 -201 -131t-262 -50q-147 0 -262.5 71.5t-161.5 186.5q-54 -115 -173 -186.5t-253 -71.5q-136 0 -254 67.5t-188 186t-70 258.5q0 139 70 256t188 184.5t254 67.5q137 0 258.5 -74t173.5 -192q49 119 165 192.5t253 73.5q77 0 149 -18.5
t137 -60t112 -102t72 -151t19 -200.5h-825q4 -44 10 -74q23 -117 110.5 -192.5t215.5 -75.5q218 0 352 141zM285 483q0 -157 96.5 -265.5t247.5 -108.5q153 0 250.5 108t97.5 266q0 154 -97.5 262.5t-250.5 108.5q-150 0 -247 -109t-97 -262zM1479 854q-122 0 -208 -73
t-114 -193h631q-1 86 -48.5 148t-115.5 90t-145 28z" />
    <glyph glyph-name="Racute" unicode="&#x154;" horiz-adv-x="1615" 
d="M426 0h-178v1337h737q246 0 375 -135q102 -108 102 -262q0 -134 -84.5 -234t-226.5 -139l330 -567h-203l-307 545h-545v-545zM985 1180h-559v-478h604q109 0 182.5 70.5t73.5 169.5q0 90 -63 156q-82 82 -238 82zM659 1507l246 252l211 -4l-303 -252z" />
    <glyph glyph-name="racute" unicode="&#x155;" horiz-adv-x="811" 
d="M356 0h-163v717q0 122 -29 244h151q20 -80 23 -166q61 90 129 143t164 53q102 0 145 -49l-53 -149q-20 17 -59 27.5t-70 10.5q-70 0 -126.5 -48.5t-111.5 -127.5v-655zM463 1419l186 -2l-213 -299l-147 2z" />
    <glyph glyph-name="uni0156" unicode="&#x156;" horiz-adv-x="1615" 
d="M426 0h-178v1337h737q246 0 375 -135q102 -108 102 -262q0 -134 -84.5 -234t-226.5 -139l330 -567h-203l-307 545h-545v-545zM985 1180h-559v-478h604q109 0 182.5 70.5t73.5 169.5q0 90 -63 156q-82 82 -238 82zM797 -123l133 35q100 -82 100 -188q0 -100 -85 -159
t-228 -59q-79 0 -164 21l16 102q82 -12 119 -12q89 0 139 31.5t50 87.5q0 77 -80 141z" />
    <glyph glyph-name="uni0157" unicode="&#x157;" horiz-adv-x="811" 
d="M356 0h-163v717q0 122 -29 244h151q20 -80 23 -166q61 90 129 143t164 53q102 0 145 -49l-53 -149q-20 17 -59 27.5t-70 10.5q-70 0 -126.5 -48.5t-111.5 -127.5v-655zM272 -117l131 29q111 -85 111 -188q0 -99 -82 -158.5t-223 -59.5q-63 0 -119 13l2 102q44 -8 101 -8
q167 0 167 119q0 75 -88 151z" />
    <glyph glyph-name="Rcaron" unicode="&#x158;" horiz-adv-x="1615" 
d="M426 0h-178v1337h737q246 0 375 -135q102 -108 102 -262q0 -134 -84.5 -234t-226.5 -139l330 -567h-203l-307 545h-545v-545zM985 1180h-559v-478h604q109 0 182.5 70.5t73.5 169.5q0 90 -63 156q-82 82 -238 82zM631 1763l178 -164l178 164l131 -4l-219 -256h-180
l-219 256z" />
    <glyph glyph-name="rcaron" unicode="&#x159;" horiz-adv-x="811" 
d="M356 0h-163v717q0 122 -29 244h151q20 -80 23 -166q61 90 129 143t164 53q102 0 145 -49l-53 -149q-20 17 -59 27.5t-70 10.5q-70 0 -126.5 -48.5t-111.5 -127.5v-655zM96 1389l131 4l179 -176l178 176l131 -4l-219 -269h-181z" />
    <glyph glyph-name="Sacute" unicode="&#x15a;" horiz-adv-x="1517" 
d="M1307 1178l-107 -123q-74 66 -201 116t-294 50q-68 0 -128 -12.5t-110.5 -39t-80.5 -72.5t-30 -106q0 -41 14 -71.5t51 -50.5t64.5 -32t92.5 -20t94 -10.5t108 -6.5q10 -1 15 -1q212 -15 317 -44q292 -85 293 -354q0 -113 -47.5 -198.5t-131.5 -136.5t-189 -76t-230 -25
q-403 0 -703 275l109 122q51 -47 101.5 -83.5t125.5 -76.5t170 -62.5t201 -22.5q117 0 209 27t149.5 87.5t57.5 147.5q0 49 -15.5 87t-47 63.5t-67.5 43t-90 28t-100.5 16t-111.5 10.5q-83 5 -127 8.5t-120 14t-119 24.5t-97.5 40t-83.5 60t-49.5 85.5t-20.5 115.5
q0 88 33 158t85.5 114t123.5 73t143 40.5t148 11.5q188 0 346 -59t250 -135zM608 1507l246 252l211 -4l-303 -252z" />
    <glyph glyph-name="sacute" unicode="&#x15b;" horiz-adv-x="1128" 
d="M958 877l-63 -125q-63 39 -162.5 72.5t-200.5 33.5q-60 0 -110.5 -14t-85.5 -47t-35 -80q0 -28 12 -50t35 -35.5t47 -22.5t59.5 -13.5t59.5 -6.5t59 -3q38 -2 60.5 -3.5t64 -6t68.5 -10t64.5 -17t62.5 -25.5t52.5 -36t43.5 -49t26.5 -64t10.5 -80q0 -108 -61.5 -183
t-161 -109t-228.5 -34q-257 0 -471 150l64 123q59 -39 106 -64t130.5 -49.5t168.5 -24.5q127 0 208 46t81 129q0 32 -12.5 57t-37.5 40.5t-50 25.5t-63 16t-63 8t-63 4q-43 3 -68 4.5t-66.5 6.5t-67 10.5t-61 16t-57 24t-45.5 33t-37.5 44t-22.5 57.5t-9 72q0 65 23.5 117
t61.5 85t90 55t105.5 31t110.5 9q123 0 241 -37t187 -81zM621 1419l186 -2l-213 -299l-148 2z" />
    <glyph glyph-name="Scircumflex" unicode="&#x15c;" horiz-adv-x="1517" 
d="M1307 1178l-107 -123q-74 66 -201 116t-294 50q-68 0 -128 -12.5t-110.5 -39t-80.5 -72.5t-30 -106q0 -41 14 -71.5t51 -50.5t64.5 -32t92.5 -20t94 -10.5t108 -6.5q10 -1 15 -1q212 -15 317 -44q292 -85 293 -354q0 -113 -47.5 -198.5t-131.5 -136.5t-189 -76t-230 -25
q-403 0 -703 275l109 122q51 -47 101.5 -83.5t125.5 -76.5t170 -62.5t201 -22.5q117 0 209 27t149.5 87.5t57.5 147.5q0 49 -15.5 87t-47 63.5t-67.5 43t-90 28t-100.5 16t-111.5 10.5q-83 5 -127 8.5t-120 14t-119 24.5t-97.5 40t-83.5 60t-49.5 85.5t-20.5 115.5
q0 88 33 158t85.5 114t123.5 73t143 40.5t148 11.5q188 0 346 -59t250 -135zM449 1507l219 256h180l219 -256l-131 -4l-178 164l-178 -164z" />
    <glyph glyph-name="scircumflex" unicode="&#x15d;" horiz-adv-x="1128" 
d="M958 877l-63 -125q-63 39 -162.5 72.5t-200.5 33.5q-60 0 -110.5 -14t-85.5 -47t-35 -80q0 -28 12 -50t35 -35.5t47 -22.5t59.5 -13.5t59.5 -6.5t59 -3q38 -2 60.5 -3.5t64 -6t68.5 -10t64.5 -17t62.5 -25.5t52.5 -36t43.5 -49t26.5 -64t10.5 -80q0 -108 -61.5 -183
t-161 -109t-228.5 -34q-257 0 -471 150l64 123q59 -39 106 -64t130.5 -49.5t168.5 -24.5q127 0 208 46t81 129q0 32 -12.5 57t-37.5 40.5t-50 25.5t-63 16t-63 8t-63 4q-43 3 -68 4.5t-66.5 6.5t-67 10.5t-61 16t-57 24t-45.5 33t-37.5 44t-22.5 57.5t-9 72q0 65 23.5 117
t61.5 85t90 55t105.5 31t110.5 9q123 0 241 -37t187 -81zM254 1124l219 267h180l219 -267l-131 -4l-178 176l-178 -176z" />
    <glyph glyph-name="Scedilla" unicode="&#x15e;" horiz-adv-x="1517" 
d="M1309 1178l-107 -123q-74 66 -201 116t-294 50q-68 0 -128 -12.5t-110.5 -39t-80.5 -72.5t-30 -106q0 -41 14 -71.5t51 -50.5t64.5 -32t92.5 -20t94 -10.5t108 -6.5q10 -1 15 -1q212 -15 317 -44q292 -85 293 -354q0 -111 -46.5 -196t-129 -136t-185.5 -76.5t-225 -27.5
l-35 -90q50 12 82 12q80 2 140.5 -39.5t60.5 -119.5q0 -88 -91 -139.5t-233 -51.5q-111 0 -299 47l27 92q182 -38 264 -38q84 0 134.5 23.5t50.5 68.5q0 73 -111 73q-30 0 -102 -14l-47 53l53 127q-348 30 -609 271l109 122q51 -47 101.5 -83.5t125.5 -76.5t170 -62.5
t201 -22.5q117 0 209 27t149.5 87.5t57.5 147.5q0 49 -15.5 87t-47 63.5t-67.5 43t-90 28t-100.5 16t-111.5 10.5q-83 5 -127 8.5t-120 14t-119 24.5t-97.5 40t-83.5 60t-49.5 85.5t-20.5 115.5q0 88 33 158t85.5 114t123.5 73t143 40.5t148 11.5q188 0 346 -59t250 -135z
" />
    <glyph glyph-name="scedilla" unicode="&#x15f;" horiz-adv-x="1128" 
d="M958 877l-63 -125q-63 39 -162.5 72.5t-200.5 33.5q-60 0 -110.5 -14t-85.5 -47t-35 -80q0 -28 12 -50t35 -35.5t47 -22.5t59.5 -13.5t59.5 -6.5t59 -3q38 -2 60.5 -3.5t64 -6t68.5 -10t64.5 -17t62.5 -25.5t52.5 -36t43.5 -49t26.5 -64t10.5 -80q0 -76 -30.5 -136.5
t-85 -99t-126 -61t-157.5 -27.5l-37 -96q50 12 82 12q80 2 140 -39.5t60 -119.5q0 -88 -90.5 -139.5t-232.5 -51.5q-111 0 -299 47l26 92q182 -38 265 -38q84 0 134 23.5t50 68.5q0 73 -111 73q-30 0 -102 -14l-47 53l53 129q-218 13 -414 148l64 123q59 -39 106 -64
t130.5 -49.5t168.5 -24.5q127 0 208 46t81 129q0 32 -12.5 57t-37.5 40.5t-50 25.5t-63 16t-63 8t-63 4q-43 3 -68 4.5t-66.5 6.5t-67 10.5t-61 16t-57 24t-45.5 33t-37.5 44t-22.5 57.5t-9 72q0 65 23.5 117t61.5 85t90 55t105.5 31t110.5 9q123 0 241 -37t187 -81z" />
    <glyph glyph-name="Scaron" unicode="&#x160;" horiz-adv-x="1517" 
d="M1307 1178l-107 -123q-74 66 -201 116t-294 50q-68 0 -128 -12.5t-110.5 -39t-80.5 -72.5t-30 -106q0 -41 14 -71.5t51 -50.5t64.5 -32t92.5 -20t94 -10.5t108 -6.5q10 -1 15 -1q212 -15 317 -44q292 -85 293 -354q0 -113 -47.5 -198.5t-131.5 -136.5t-189 -76t-230 -25
q-403 0 -703 275l109 122q51 -47 101.5 -83.5t125.5 -76.5t170 -62.5t201 -22.5q117 0 209 27t149.5 87.5t57.5 147.5q0 49 -15.5 87t-47 63.5t-67.5 43t-90 28t-100.5 16t-111.5 10.5q-83 5 -127 8.5t-120 14t-119 24.5t-97.5 40t-83.5 60t-49.5 85.5t-20.5 115.5
q0 88 33 158t85.5 114t123.5 73t143 40.5t148 11.5q188 0 346 -59t250 -135zM580 1763l178 -164l178 164l131 -4l-219 -256h-180l-219 256z" />
    <glyph glyph-name="scaron" unicode="&#x161;" horiz-adv-x="1128" 
d="M958 877l-63 -125q-63 39 -162.5 72.5t-200.5 33.5q-60 0 -110.5 -14t-85.5 -47t-35 -80q0 -28 12 -50t35 -35.5t47 -22.5t59.5 -13.5t59.5 -6.5t59 -3q38 -2 60.5 -3.5t64 -6t68.5 -10t64.5 -17t62.5 -25.5t52.5 -36t43.5 -49t26.5 -64t10.5 -80q0 -108 -61.5 -183
t-161 -109t-228.5 -34q-257 0 -471 150l64 123q59 -39 106 -64t130.5 -49.5t168.5 -24.5q127 0 208 46t81 129q0 32 -12.5 57t-37.5 40.5t-50 25.5t-63 16t-63 8t-63 4q-43 3 -68 4.5t-66.5 6.5t-67 10.5t-61 16t-57 24t-45.5 33t-37.5 44t-22.5 57.5t-9 72q0 65 23.5 117
t61.5 85t90 55t105.5 31t110.5 9q123 0 241 -37t187 -81zM254 1389l131 4l178 -176l178 176l131 -4l-219 -269h-180z" />
    <glyph glyph-name="uni0162" unicode="&#x162;" horiz-adv-x="1343" 
d="M63 1180v157h1217v-157h-518v-1180l-49 -125q50 12 82 12q80 2 140 -39.5t60 -119.5q0 -88 -90.5 -139.5t-232.5 -51.5q-111 0 -299 47l26 92q182 -38 265 -38q84 0 134 23.5t50 68.5q0 73 -111 73q-30 0 -102 -14l-47 53l65 158h-69v1180h-521z" />
    <glyph glyph-name="uni0163" unicode="&#x163;" horiz-adv-x="798" 
d="M61 834v127h189v290h164v-290h288v-127h-288v-596q0 -64 37 -96.5t96 -32.5q39 0 89 9t71 21l20 -127q-29 -20 -91.5 -33.5t-119.5 -13.5q-15 0 -43 4l-35 -94q50 12 82 12q80 2 140.5 -39.5t60.5 -119.5q0 -88 -91 -139.5t-233 -51.5q-111 0 -299 47l27 92
q182 -38 264 -38q84 0 134 23.5t50 68.5q0 73 -110 73q-31 0 -103 -14l-47 53l64 156q-127 65 -127 240v596h-189z" />
    <glyph glyph-name="Tcaron" unicode="&#x164;" horiz-adv-x="1343" 
d="M63 1180v157h1217v-157h-518v-1180h-178v1180h-521zM494 1763l178 -164l178 164l131 -4l-219 -256h-180l-220 256z" />
    <glyph glyph-name="tcaron" unicode="&#x165;" horiz-adv-x="798" 
d="M61 834v127h189v290h164v-290h288v-127h-288v-596q0 -64 37 -96.5t96 -32.5q39 0 89 9t71 21l20 -127q-29 -20 -91.5 -33.5t-119.5 -13.5q-48 0 -93 14.5t-85 44.5t-64 85.5t-24 128.5v596h-189zM668 1100q-1 0 -25 0.5t-47.5 1t-22.5 0.5q23 157 23 446h164
q0 -140 -21 -244t-71 -204z" />
    <glyph glyph-name="Tbar" unicode="&#x166;" horiz-adv-x="1343" 
d="M63 1180v157h1217v-157h-518v-412h307v-143h-307v-625h-178v625h-308v143h308v412h-521z" />
    <glyph glyph-name="tbar" unicode="&#x167;" horiz-adv-x="798" 
d="M61 834v127h189v290h164v-290h288v-127h-288v-281h288v-113h-288v-202q0 -64 37 -96.5t96 -32.5q39 0 89 9t71 21l20 -127q-29 -20 -91.5 -33.5t-119.5 -13.5q-48 0 -93 14.5t-85 44.5t-64 85.5t-24 128.5v202h-189v113h189v281h-189z" />
    <glyph glyph-name="Utilde" unicode="&#x168;" horiz-adv-x="1617" 
d="M1219 1337h178v-862q0 -159 -77.5 -276t-210 -175.5t-302.5 -58.5q-168 0 -299.5 58.5t-209 175.5t-77.5 276v862h176v-862q0 -165 116 -258.5t294 -93.5q181 0 296.5 93.5t115.5 258.5v862zM567 1507l-106 58q51 85 100 123t109 38q37 0 68.5 -14t72.5 -43
q74 -55 117 -55q23 0 45.5 15.5t36 31.5t34.5 47l101 -55q-96 -164 -211 -164q-75 0 -143 53q-5 4 -18 13.5t-18 13t-15.5 10.5t-16 10t-14 6.5t-16 5t-15.5 1.5t-15 -1.5t-14.5 -6t-13 -7.5t-13 -11t-11.5 -11.5t-12 -14t-10.5 -13.5t-11.5 -15.5t-10 -14.5z" />
    <glyph glyph-name="utilde" unicode="&#x169;" horiz-adv-x="1239" 
d="M883 961h164v-715q0 -162 16 -246h-150q-14 63 -14 147q-35 -38 -66.5 -65.5t-74.5 -54.5t-96.5 -41.5t-114.5 -14.5q-159 0 -266 95.5t-107 242.5v652h166v-652q0 -83 65.5 -138.5t165.5 -55.5q168 0 312 161v685zM379 1124l-107 58q51 85 100 123t109 38q62 0 142 -57
q25 -18 39.5 -28t36 -18.5t40.5 -8.5q23 0 46 16.5t35.5 31.5t35.5 46l100 -55q-98 -164 -211 -164q-75 0 -143 53q-5 4 -18 13.5t-18 13t-15.5 10.5t-16 10t-14 6.5t-16 5t-15.5 1.5q-9 0 -17.5 -2.5t-15 -5.5t-15 -11t-13 -12t-13.5 -15.5t-12 -15.5t-12.5 -17t-11.5 -16z
" />
    <glyph glyph-name="Umacron" unicode="&#x16a;" horiz-adv-x="1617" 
d="M1219 1337h178v-862q0 -159 -77.5 -276t-210 -175.5t-302.5 -58.5q-168 0 -299.5 58.5t-209 175.5t-77.5 276v862h176v-862q0 -165 116 -258.5t294 -93.5q181 0 296.5 93.5t115.5 258.5v862zM545 1690h522v-127h-522v127z" />
    <glyph glyph-name="umacron" unicode="&#x16b;" horiz-adv-x="1239" 
d="M883 961h164v-715q0 -162 16 -246h-150q-14 63 -14 147q-35 -38 -66.5 -65.5t-74.5 -54.5t-96.5 -41.5t-114.5 -14.5q-159 0 -266 95.5t-107 242.5v652h166v-652q0 -83 65.5 -138.5t165.5 -55.5q168 0 312 161v685zM356 1309h523v-129h-523v129z" />
    <glyph glyph-name="Ubreve" unicode="&#x16c;" horiz-adv-x="1617" 
d="M1219 1337h178v-862q0 -159 -77.5 -276t-210 -175.5t-302.5 -58.5q-168 0 -299.5 58.5t-209 175.5t-77.5 276v862h176v-862q0 -165 116 -258.5t294 -93.5q181 0 296.5 93.5t115.5 258.5v862zM520 1757h121q0 -31 7 -57t24 -50.5t51.5 -38.5t83.5 -14t83.5 14t51.5 38.5
t24 50.5t7 57h121q0 -39 -7 -74.5t-27 -72.5t-51 -64t-83 -44t-119 -17t-119 17t-83 44t-51 64t-27 72.5t-7 74.5z" />
    <glyph glyph-name="ubreve" unicode="&#x16d;" horiz-adv-x="1239" 
d="M883 961h164v-715q0 -162 16 -246h-150q-14 63 -14 147q-35 -38 -66.5 -65.5t-74.5 -54.5t-96.5 -41.5t-114.5 -14.5q-159 0 -266 95.5t-107 242.5v652h166v-652q0 -83 65.5 -138.5t165.5 -55.5q168 0 312 161v685zM332 1384h121q0 -170 165 -170q49 0 83.5 15t51.5 41.5
t24 53.5t7 60h121q0 -40 -7 -76.5t-27 -75t-51 -66.5t-83 -46t-119 -18t-119 18t-82.5 46t-50.5 66.5t-27 75t-7 76.5z" />
    <glyph glyph-name="Uring" unicode="&#x16e;" horiz-adv-x="1617" 
d="M1219 1337h178v-862q0 -159 -77.5 -276t-210 -175.5t-302.5 -58.5q-168 0 -299.5 58.5t-209 175.5t-77.5 276v862h176v-862q0 -165 116 -258.5t294 -93.5q181 0 296.5 93.5t115.5 258.5v862zM659 1622q0 -53 39.5 -87t102.5 -34q64 0 104.5 34t40.5 87q0 55 -40.5 91
t-104.5 36q-62 0 -102 -36t-40 -91zM801 1423q-113 0 -177.5 57t-64.5 142q0 86 64.5 144.5t177.5 58.5t180.5 -59t67.5 -144t-67 -142t-181 -57z" />
    <glyph glyph-name="uring" unicode="&#x16f;" horiz-adv-x="1239" 
d="M883 961h164v-715q0 -162 16 -246h-150q-14 63 -14 147q-35 -38 -66.5 -65.5t-74.5 -54.5t-96.5 -41.5t-114.5 -14.5q-159 0 -266 95.5t-107 242.5v652h166v-652q0 -83 65.5 -138.5t165.5 -55.5q168 0 312 161v685zM471 1298q0 -53 39 -85.5t102 -32.5q65 0 105.5 33
t40.5 85q0 56 -41 92.5t-105 36.5q-62 0 -101.5 -36.5t-39.5 -92.5zM371 1298q0 87 64 145t177 58t180.5 -58.5t67.5 -144.5q0 -83 -67.5 -139.5t-180.5 -56.5t-177 56.5t-64 139.5z" />
    <glyph glyph-name="Uhungarumlaut" unicode="&#x170;" horiz-adv-x="1617" 
d="M1219 1337h178v-862q0 -159 -77.5 -276t-210 -175.5t-302.5 -58.5q-168 0 -299.5 58.5t-209 175.5t-77.5 276v862h176v-862q0 -165 116 -258.5t294 -93.5q181 0 296.5 93.5t115.5 258.5v862zM657 1493l-106 4l106 281l150 -2zM1008 1493l-107 4l107 281l151 -2z" />
    <glyph glyph-name="uhungarumlaut" unicode="&#x171;" horiz-adv-x="1239" 
d="M883 961h164v-715q0 -162 16 -246h-150q-14 63 -14 147q-35 -38 -66.5 -65.5t-74.5 -54.5t-96.5 -41.5t-114.5 -14.5q-159 0 -266 95.5t-107 242.5v652h166v-652q0 -83 65.5 -138.5t165.5 -55.5q168 0 312 161v685zM469 1110l-107 4l107 283l149 -4zM819 1110l-106 4
l106 283l152 -4z" />
    <glyph glyph-name="Uogonek" unicode="&#x172;" horiz-adv-x="1617" 
d="M1219 1337h178v-862q0 -210 -129 -341t-342 -161q-189 -97 -189 -206q0 -56 46.5 -88.5t123.5 -32.5q39 0 133 16l15 -102q-97 -23 -176 -23q-130 0 -207.5 54t-77.5 145q0 124 160 231q-237 14 -385 148t-148 360v862h176v-862q0 -165 116 -258.5t294 -93.5
q181 0 296.5 93.5t115.5 258.5v862z" />
    <glyph glyph-name="uogonek" unicode="&#x173;" horiz-adv-x="1239" 
d="M883 961h164v-715q0 -162 16 -246q-248 -107 -248 -233q0 -56 46.5 -88.5t123.5 -32.5q39 0 133 16l15 -102q-97 -23 -177 -23q-130 0 -207 54t-77 145q0 47 22 90.5t59.5 78t75.5 60.5t82 47q-12 64 -12 135q-35 -38 -66.5 -65.5t-74.5 -54.5t-96.5 -41.5t-114.5 -14.5
q-159 0 -266 95.5t-107 242.5v652h166v-652q0 -83 65.5 -138.5t165.5 -55.5q168 0 312 161v685z" />
    <glyph glyph-name="Wcircumflex" unicode="&#x174;" horiz-adv-x="2064" 
d="M90 1337h195l331 -1069h11l342 1069h135l342 -1069h12l332 1069h184l-430 -1337h-182l-324 1004h-12l-324 -1004h-182zM723 1507l219 256h180l219 -256l-131 -4l-178 164l-178 -164z" />
    <glyph glyph-name="wcircumflex" unicode="&#x175;" horiz-adv-x="1591" 
d="M1337 961h179l-320 -961h-172l-223 725h-10l-224 -725h-172l-319 961h178l223 -746h12l230 746h162l231 -746h10zM485 1124l220 267h180l219 -267l-131 -4l-178 176l-179 -176z" />
    <glyph glyph-name="Ycircumflex" unicode="&#x176;" horiz-adv-x="1378" 
d="M1118 1337h209l-549 -710v-627h-178v627l-549 710h225l420 -553zM379 1507l219 256h180l219 -256l-131 -4l-178 164l-178 -164z" />
    <glyph glyph-name="ycircumflex" unicode="&#x177;" horiz-adv-x="1138" 
d="M909 961h166l-672 -1391h-167l239 475l-412 916h185l311 -736h8zM258 1124l219 267h180l220 -267l-132 -4l-178 176l-178 -176z" />
    <glyph glyph-name="Ydieresis" unicode="&#x178;" horiz-adv-x="1378" 
d="M1118 1337h209l-549 -710v-627h-178v627l-549 710h225l420 -553zM893 1716q42 0 72 -27.5t30 -66.5q0 -40 -29.5 -67t-72.5 -27t-71.5 27t-28.5 67q0 39 29 66.5t71 27.5zM481 1716q43 0 73 -28t30 -66q0 -40 -30 -67t-73 -27q-44 0 -73 27t-29 67q0 39 29 66.5t73 27.5z
" />
    <glyph glyph-name="Zacute" unicode="&#x179;" horiz-adv-x="1394" 
d="M1270 158v-158h-1170v113l906 1067h-846v157h1102v-112l-906 -1067h914zM547 1507l246 252l211 -4l-304 -252z" />
    <glyph glyph-name="zacute" unicode="&#x17a;" horiz-adv-x="1071" 
d="M958 129v-129h-864v98l629 736h-576v127h803v-99l-631 -733h639zM594 1419l186 -2l-213 -299l-147 2z" />
    <glyph glyph-name="Zdotaccent" unicode="&#x17b;" horiz-adv-x="1394" 
d="M1270 158v-158h-1170v113l906 1067h-846v157h1102v-112l-906 -1067h914zM696 1716q43 0 73 -28t30 -66q0 -40 -30 -67t-73 -27t-71.5 27t-28.5 67q0 39 29 66.5t71 27.5z" />
    <glyph glyph-name="zdotaccent" unicode="&#x17c;" horiz-adv-x="1071" 
d="M958 129v-129h-864v98l629 736h-576v127h803v-99l-631 -733h639zM436 1239q0 39 29.5 67.5t71.5 28.5t72 -28.5t30 -67.5t-29.5 -65.5t-72.5 -26.5t-72 26t-29 66z" />
    <glyph glyph-name="Zcaron" unicode="&#x17d;" horiz-adv-x="1394" 
d="M1270 158v-158h-1170v113l906 1067h-846v157h1102v-112l-906 -1067h914zM518 1763l178 -164l178 164l132 -4l-220 -256h-180l-219 256z" />
    <glyph glyph-name="zcaron" unicode="&#x17e;" horiz-adv-x="1071" 
d="M958 129v-129h-864v98l629 736h-576v127h803v-99l-631 -733h639zM227 1389l131 4l179 -176l178 176l131 -4l-219 -269h-181z" />
    <glyph glyph-name="Schwa" unicode="&#x18f;" horiz-adv-x="1636" 
d="M788 -35q-103 0 -198.5 24.5t-183 79t-151 134t-97.5 198t-27 261.5h1188q0 55 -8 102q-26 197 -166 323.5t-357 126.5q-150 0 -284 -56.5t-219 -141.5l-121 117q104 107 270.5 173t353.5 66q164 0 301 -55t227.5 -150t140.5 -221.5t50 -269.5q0 -200 -94 -363
t-259 -255.5t-366 -92.5zM795 123q186 0 323 107.5t180 281.5h-976q2 -95 44 -171.5t109.5 -122.5t149.5 -70.5t170 -24.5z" />
    <glyph glyph-name="florin" unicode="&#x192;" horiz-adv-x="1003" 
d="M115 672h225l51 231q16 72 54.5 126t88.5 84t101.5 44t103.5 14q60 0 122.5 -15t92.5 -34l-61 -135q-19 15 -67 28t-87 13q-67 0 -117.5 -31.5t-64.5 -91.5l-53 -233h256v-127h-285l-121 -545q-19 -87 -62 -152.5t-99.5 -102.5t-117 -55t-124.5 -18v127q41 6 73 16.5
t68 31.5t62.5 60t38.5 93l118 545h-196v127z" />
    <glyph glyph-name="Aringacute" unicode="&#x1fa;" horiz-adv-x="1542" 
d="M252 0h-184l620 1337h168l621 -1337h-195l-182 401h-668zM760 1128l-264 -583h540l-264 583h-12zM625 1622q0 -53 39 -87t102 -34q64 0 104.5 34t40.5 87q0 55 -40.5 91t-104.5 36q-62 0 -101.5 -36t-39.5 -91zM766 1423q-113 0 -177.5 57t-64.5 142q0 86 64.5 144.5
t177.5 58.5t180.5 -59t67.5 -144t-67 -142t-181 -57zM623 1903l245 251l211 -4l-303 -252z" />
    <glyph glyph-name="aringacute" unicode="&#x1fb;" horiz-adv-x="1228" 
d="M233 733l-59 133q81 50 196 87.5t246 37.5q66 0 126 -9t117 -30t98.5 -53t66.5 -81t25 -111v-533q0 -117 30 -174h-166q-24 46 -28 135q-169 -155 -400 -155q-175 0 -279 91t-104 238q0 136 118 226t325 90q98 0 192.5 -25t147.5 -76v138q0 95 -78 142.5t-197 47.5
q-107 0 -211 -37t-166 -82zM518 117q70 0 138.5 20t115 48.5t75.5 51t38 35.5v121q-41 46 -128.5 74.5t-185.5 28.5q-154 0 -228.5 -51.5t-74.5 -135.5q0 -83 66.5 -137.5t183.5 -54.5zM467 1298q0 -53 39 -85.5t102 -32.5q65 0 105.5 33t40.5 85q0 56 -41 92.5t-105 36.5
q-62 0 -101.5 -36.5t-39.5 -92.5zM367 1298q0 87 64 145t177 58t180.5 -58.5t67.5 -144.5q0 -83 -67.5 -139.5t-180.5 -56.5t-177 56.5t-64 139.5zM465 1587l246 252l211 -4l-304 -252z" />
    <glyph glyph-name="AEacute" unicode="&#x1fc;" horiz-adv-x="2228" 
d="M195 0h-199l977 1337h1112v-157h-899v-400h543v-157h-543v-465h944v-158h-1120v401h-527zM1001 1128l-417 -583h426v583h-9zM1106 1507l246 252l211 -4l-303 -252z" />
    <glyph glyph-name="aeacute" unicode="&#x1fd;" horiz-adv-x="1986" 
d="M1382 -29q-134 0 -239 54.5t-172 150.5q-87 -92 -215.5 -148.5t-270.5 -56.5q-174 0 -278.5 95t-104.5 243q0 136 118 226t325 90q100 0 197 -25.5t149 -75.5v138q0 95 -81 142.5t-200 47.5q-107 0 -211 -37t-166 -82l-59 133q81 50 196 87.5t246 37.5q66 0 124 -9
t114 -30.5t94 -62.5t51 -98l2 -25q49 101 155.5 163t225.5 62q78 0 150 -18.5t137.5 -60t112.5 -102t72 -151t18 -200.5h-823l10 -80q26 -115 112 -188.5t211 -73.5q221 0 355 141l110 -106q-188 -181 -465 -181zM518 117q221 0 395 174q-18 42 -26 100q-115 105 -316 105
q-154 0 -228.5 -51.5t-74.5 -135.5q0 -83 66.5 -137.5t183.5 -54.5zM1055 588h639q-2 86 -49.5 148t-116 90t-146.5 28q-126 0 -211.5 -72.5t-115.5 -193.5zM1049 1419l186 -2l-213 -299l-148 2z" />
    <glyph glyph-name="Oslashacute" unicode="&#x1fe;" horiz-adv-x="1742" 
d="M129 672q0 143 58 272.5t156.5 223t236 149t290.5 55.5q187 0 347 -80l122 176l119 -79l-121 -172q130 -97 204.5 -239.5t74.5 -305.5q0 -145 -59 -276t-158.5 -225.5t-237.5 -150t-291 -55.5q-185 0 -348 80l-121 -174l-118 78l118 172q-128 98 -200 241.5t-72 309.5z
M1430 672q0 120 -50 225t-139 180l-623 -897q114 -57 252 -57q115 0 219 43.5t178.5 117t118.5 175t44 213.5zM315 672q0 -122 49 -229t136 -183l622 897q-117 57 -252 57q-154 0 -281.5 -72.5t-200.5 -197t-73 -272.5zM723 1507l246 252l211 -4l-303 -252z" />
    <glyph glyph-name="oslashacute" unicode="&#x1ff;" horiz-adv-x="1263" 
d="M688 1419l186 -2l-212 -299l-148 2zM283 -115l-93 66l99 141q-82 71 -127 172t-45 219q0 214 146 361t368 147q133 0 248 -59l102 145l92 -63l-100 -144q83 -71 128.5 -171t45.5 -216q0 -142 -65.5 -259t-184 -185t-266.5 -68q-135 0 -248 58zM979 483q0 153 -96 260
l-416 -593q71 -41 164 -41q154 0 251 108.5t97 265.5zM287 483q0 -156 92 -262l416 592q-71 41 -164 41q-151 0 -247.5 -108.5t-96.5 -262.5z" />
    <glyph glyph-name="uni0218" unicode="&#x218;" horiz-adv-x="1517" 
d="M1307 1178l-107 -123q-74 66 -201 116t-294 50q-68 0 -128 -12.5t-110.5 -39t-80.5 -72.5t-30 -106q0 -41 14 -71.5t51 -50.5t64.5 -32t92.5 -20t94 -10.5t108 -6.5q10 -1 15 -1q212 -15 317 -44q292 -85 293 -354q0 -113 -47.5 -198.5t-131.5 -136.5t-189 -76t-230 -25
q-403 0 -703 275l109 122q51 -47 101.5 -83.5t125.5 -76.5t170 -62.5t201 -22.5q117 0 209 27t149.5 87.5t57.5 147.5q0 49 -15.5 87t-47 63.5t-67.5 43t-90 28t-100.5 16t-111.5 10.5q-83 5 -127 8.5t-120 14t-119 24.5t-97.5 40t-83.5 60t-49.5 85.5t-20.5 115.5
q0 88 33 158t85.5 114t123.5 73t143 40.5t148 11.5q188 0 346 -59t250 -135zM745 -123l134 35q100 -82 100 -188q0 -100 -85 -159t-228 -59q-78 0 -164 21l16 102q82 -12 119 -12q89 0 138.5 31.5t49.5 87.5q0 77 -80 141z" />
    <glyph glyph-name="uni0219" unicode="&#x219;" horiz-adv-x="1128" 
d="M958 877l-63 -125q-63 39 -162.5 72.5t-200.5 33.5q-60 0 -110.5 -14t-85.5 -47t-35 -80q0 -28 12 -50t35 -35.5t47 -22.5t59.5 -13.5t59.5 -6.5t59 -3q38 -2 60.5 -3.5t64 -6t68.5 -10t64.5 -17t62.5 -25.5t52.5 -36t43.5 -49t26.5 -64t10.5 -80q0 -108 -61.5 -183
t-161 -109t-228.5 -34q-257 0 -471 150l64 123q59 -39 106 -64t130.5 -49.5t168.5 -24.5q127 0 208 46t81 129q0 32 -12.5 57t-37.5 40.5t-50 25.5t-63 16t-63 8t-63 4q-43 3 -68 4.5t-66.5 6.5t-67 10.5t-61 16t-57 24t-45.5 33t-37.5 44t-22.5 57.5t-9 72q0 65 23.5 117
t61.5 85t90 55t105.5 31t110.5 9q123 0 241 -37t187 -81zM465 -117l131 29q111 -85 111 -188q0 -99 -82.5 -158.5t-223.5 -59.5q-62 0 -118 13l2 102q44 -8 100 -8q81 0 124.5 30t43.5 89q0 75 -88 151z" />
    <glyph glyph-name="uni021A" unicode="&#x21a;" horiz-adv-x="1343" 
d="M63 1180v157h1217v-157h-518v-1180h-178v1180h-521zM659 -123l134 35q100 -82 100 -188q0 -100 -85 -159t-228 -59q-78 0 -164 21l16 102q82 -12 119 -12q89 0 138.5 31.5t49.5 87.5q0 77 -80 141z" />
    <glyph glyph-name="uni021B" unicode="&#x21b;" horiz-adv-x="798" 
d="M61 834v127h189v290h164v-290h288v-127h-288v-596q0 -64 37 -96.5t96 -32.5q39 0 89 9t71 21l20 -127q-29 -20 -91.5 -33.5t-119.5 -13.5q-48 0 -93 14.5t-85 44.5t-64 85.5t-24 128.5v596h-189zM406 -117l131 29q110 -84 110 -188q0 -99 -82 -158.5t-223 -59.5
q-63 0 -119 13l2 102q44 -8 101 -8q81 0 124.5 30t43.5 89q0 75 -88 151z" />
    <glyph glyph-name="dotlessj" unicode="&#x237;" horiz-adv-x="542" 
d="M27 -465l-47 129q42 6 75 18.5t66 37t51 69.5t18 107v1065h162v-1065q0 -77 -20 -139.5t-53 -103t-76 -68t-87 -39t-89 -11.5z" />
    <glyph glyph-name="schwa" unicode="&#x259;" horiz-adv-x="1220" 
d="M252 705l-109 106q82 82 199.5 131t263.5 49q148 0 263 -67.5t175 -179t60 -246.5q0 -146 -65 -266.5t-179.5 -190.5t-253.5 -70q-77 0 -149 18.5t-137.5 60.5t-112.5 102.5t-72 151t-18 200.5h825q-3 143 -95.5 243.5t-240.5 100.5q-214 0 -354 -143zM606 109
q121 0 206 72.5t116 193.5h-633q2 -86 49 -148t115.5 -90t146.5 -28z" />
    <glyph glyph-name="circumflex" unicode="&#x2c6;" 
d="M203 1124l219 267h180l219 -267l-131 -4l-178 176l-178 -176z" />
    <glyph glyph-name="caron" unicode="&#x2c7;" 
d="M203 1389l131 4l178 -176l178 176l131 -4l-219 -269h-180z" />
    <glyph glyph-name="breve" unicode="&#x2d8;" 
d="M225 1384h121q0 -33 7 -60t24 -53.5t51.5 -41.5t83.5 -15t83.5 15t51.5 41.5t24 53.5t7 60h121q0 -40 -7 -76.5t-27 -75t-51 -66.5t-83 -46t-119 -18t-119 18t-83 46t-51 66.5t-27 75t-7 76.5z" />
    <glyph glyph-name="dotaccent" unicode="&#x2d9;" 
d="M412 1239q0 39 29 67.5t71 28.5t72 -28.5t30 -67.5t-29.5 -65.5t-72.5 -26.5t-71.5 26t-28.5 66z" />
    <glyph glyph-name="ring" unicode="&#x2da;" 
d="M365 1298q0 -53 39 -85.5t102 -32.5q65 0 105 33t40 85q0 56 -40.5 92.5t-104.5 36.5q-62 0 -101.5 -36.5t-39.5 -92.5zM264 1298q0 87 64.5 145t177.5 58t180.5 -58.5t67.5 -144.5q0 -83 -67.5 -139.5t-180.5 -56.5t-177.5 56.5t-64.5 139.5z" />
    <glyph glyph-name="ogonek" unicode="&#x2db;" 
d="M553 47l76 -47q-248 -107 -248 -233q0 -56 46.5 -88.5t123.5 -32.5q39 0 133 16l14 -102q-97 -23 -176 -23q-130 0 -207 54t-77 145q0 48 25 93.5t59 78t82 62.5t81 46.5t68 30.5z" />
    <glyph glyph-name="tilde" unicode="&#x2dc;" 
d="M272 1124l-106 58q51 85 100 123t109 38q37 0 68.5 -14t72.5 -43q74 -55 117 -55q23 0 46 16.5t35.5 31.5t35.5 46l100 -55q-98 -164 -211 -164q-75 0 -143 53q-5 4 -18 13.5t-18 13t-15.5 10.5t-16 10t-14 6.5t-16 5t-15.5 1.5t-15 -1.5t-14.5 -6t-13 -7.5t-13 -11
t-11.5 -11.5t-12 -14t-10.5 -13.5t-11.5 -15.5t-10 -14.5z" />
    <glyph glyph-name="hungarumlaut" unicode="&#x2dd;" 
d="M362 1110l-106 4l106 283l150 -4zM713 1110l-107 4l107 283l151 -4z" />
    <glyph glyph-name="Delta" unicode="&#x394;" horiz-adv-x="1492" 
d="M1384 0h-1275v143l553 1194h167l555 -1194v-143zM735 1128l-444 -985h901l-444 985h-13z" />
    <glyph glyph-name="Delta" unicode="&#x2206;" horiz-adv-x="1492" 
d="M1384 0h-1275v143l553 1194h167l555 -1194v-143zM735 1128l-444 -985h901l-444 985h-13z" />
    <glyph glyph-name="Omega" unicode="&#x3a9;" horiz-adv-x="1773" 
d="M156 0v143h372q-185 63 -292 214t-107 345q0 136 59 260t159.5 214t241 143t296.5 53q209 0 385 -90t277.5 -244t101.5 -336q0 -187 -113 -340.5t-293 -218.5h369v-143h-572v143q187 46 304.5 201t117.5 358q0 140 -76 257.5t-209 186t-292 68.5q-240 0 -405 -149.5
t-165 -362.5q0 -202 114.5 -355.5t299.5 -203.5v-143h-573z" />
    <glyph glyph-name="Omega" unicode="&#x2126;" horiz-adv-x="1773" 
d="M156 0v143h372q-185 63 -292 214t-107 345q0 136 59 260t159.5 214t241 143t296.5 53q209 0 385 -90t277.5 -244t101.5 -336q0 -187 -113 -340.5t-293 -218.5h369v-143h-572v143q187 46 304.5 201t117.5 358q0 140 -76 257.5t-209 186t-292 68.5q-240 0 -405 -149.5
t-165 -362.5q0 -202 114.5 -355.5t299.5 -203.5v-143h-573z" />
    <glyph glyph-name="pi" unicode="&#x3c0;" horiz-adv-x="1402" 
d="M82 817v129h1239v-129h-229l-68 -651q-8 -74 -2 -166h-162q-6 88 2 166l68 651h-430l-84 -817h-164l84 817h-254z" />
    <glyph glyph-name="Wgrave" unicode="&#x1e80;" horiz-adv-x="2064" 
d="M90 1337h195l331 -1069h11l342 1069h135l342 -1069h12l332 1069h184l-430 -1337h-182l-324 1004h-12l-324 -1004h-182zM1026 1503l-303 252l211 4l248 -252z" />
    <glyph glyph-name="wgrave" unicode="&#x1e81;" horiz-adv-x="1591" 
d="M1337 961h179l-320 -961h-172l-223 725h-10l-224 -725h-172l-319 961h178l223 -746h12l230 746h162l231 -746h10zM549 1417l188 2l174 -299l-147 -2z" />
    <glyph glyph-name="Wacute" unicode="&#x1e82;" horiz-adv-x="2064" 
d="M90 1337h195l331 -1069h11l342 1069h135l342 -1069h12l332 1069h184l-430 -1337h-182l-324 1004h-12l-324 -1004h-182zM883 1507l245 252l211 -4l-303 -252z" />
    <glyph glyph-name="wacute" unicode="&#x1e83;" horiz-adv-x="1591" 
d="M1337 961h179l-320 -961h-172l-223 725h-10l-224 -725h-172l-319 961h178l223 -746h12l230 746h162l231 -746h10zM852 1419l186 -2l-213 -299l-147 2z" />
    <glyph glyph-name="Wdieresis" unicode="&#x1e84;" horiz-adv-x="2064" 
d="M90 1337h195l331 -1069h11l342 1069h135l342 -1069h12l332 1069h184l-430 -1337h-182l-324 1004h-12l-324 -1004h-182zM1237 1716q42 0 72 -27.5t30 -66.5q0 -40 -29.5 -67t-72.5 -27t-71.5 27t-28.5 67q0 39 29 66.5t71 27.5zM825 1716q43 0 73 -28t30 -66
q0 -40 -30 -67t-73 -27q-44 0 -73 27t-29 67q0 39 29 66.5t73 27.5z" />
    <glyph glyph-name="wdieresis" unicode="&#x1e85;" horiz-adv-x="1591" 
d="M1337 961h179l-320 -961h-172l-223 725h-10l-224 -725h-172l-319 961h178l223 -746h12l230 746h162l231 -746h10zM899 1239q0 39 29 67.5t71 28.5t72.5 -28.5t30.5 -67.5t-30 -65.5t-73 -26.5t-71.5 26t-28.5 66zM485 1239q0 39 29.5 67.5t73.5 28.5q42 0 72 -28.5
t30 -67.5t-29.5 -65.5t-72.5 -26.5q-44 0 -73.5 26t-29.5 66z" />
    <glyph glyph-name="Ygrave" unicode="&#x1ef2;" horiz-adv-x="1378" 
d="M1118 1337h209l-549 -710v-627h-178v627l-549 710h225l420 -553zM682 1503l-303 252l211 4l248 -252z" />
    <glyph glyph-name="ygrave" unicode="&#x1ef3;" horiz-adv-x="1138" 
d="M909 961h166l-672 -1391h-167l239 475l-412 916h185l311 -736h8zM322 1417l188 2l174 -299l-147 -2z" />
    <glyph glyph-name="endash" unicode="&#x2013;" horiz-adv-x="1300" 
d="M143 453v145h1012v-145h-1012z" />
    <glyph glyph-name="emdash" unicode="&#x2014;" horiz-adv-x="2283" 
d="M143 453v145h1995v-145h-1995z" />
    <glyph glyph-name="quoteleft" unicode="&#x2018;" horiz-adv-x="579" 
d="M428 1393l49 -101q-37 -10 -75.5 -29t-76 -46t-61.5 -64.5t-24 -77.5q0 -34 22 -43q40 10 51 10q52 0 87.5 -30t35.5 -74q0 -46 -34.5 -76.5t-88.5 -30.5q-79 0 -137.5 58t-58.5 145q0 252 311 359z" />
    <glyph glyph-name="quoteright" unicode="&#x2019;" horiz-adv-x="579" 
d="M164 811l-47 100q37 10 75.5 29t76 46t61.5 64.5t24 77.5q0 33 -24 43q-40 -10 -51 -10q-52 0 -86.5 30t-34.5 75q0 46 34.5 76t86.5 30q80 0 139 -58t59 -145q0 -252 -313 -358z" />
    <glyph glyph-name="quotesinglbase" unicode="&#x201a;" horiz-adv-x="616" 
d="M168 -344l-49 100q37 11 75.5 30t76 46.5t61.5 65t24 77.5q0 34 -22 43q-40 -10 -53 -10q-51 0 -86 30.5t-35 74.5q0 45 34.5 75.5t86.5 30.5q80 0 139 -58t59 -145q0 -248 -311 -360z" />
    <glyph glyph-name="quotedblleft" unicode="&#x201c;" horiz-adv-x="1081" 
d="M932 1393l47 -101q-37 -10 -76 -29t-76.5 -46t-61.5 -64.5t-24 -77.5q0 -32 25 -43q40 10 51 10q52 0 87.5 -30t35.5 -74q0 -46 -35 -76.5t-88 -30.5q-79 0 -139 58t-60 145q0 251 314 359zM428 1393l49 -101q-37 -10 -75.5 -29t-76 -46t-61.5 -64.5t-24 -77.5
q0 -34 22 -43q40 10 51 10q52 0 87.5 -30t35.5 -74q0 -46 -34.5 -76.5t-88.5 -30.5q-79 0 -137.5 58t-58.5 145q0 252 311 359z" />
    <glyph glyph-name="quotedblright" unicode="&#x201d;" horiz-adv-x="1083" 
d="M164 811l-47 100q37 10 75.5 29t76 46t61.5 64.5t24 77.5q0 33 -24 43q-40 -10 -51 -10q-52 0 -86.5 30t-34.5 75q0 46 34.5 76t86.5 30q80 0 139 -58t59 -145q0 -252 -313 -358zM668 811l-47 100q37 10 75.5 29t76 46t61.5 64.5t24 77.5q0 33 -24 43q-40 -10 -52 -10
q-52 0 -87.5 30.5t-35.5 74.5q0 46 35 76t88 30q79 0 139 -58t60 -145q0 -252 -313 -358z" />
    <glyph glyph-name="quotedblbase" unicode="&#x201e;" horiz-adv-x="1120" 
d="M168 -344l-49 100q37 11 75.5 30t76 46.5t61.5 65t24 77.5q0 34 -22 43q-40 -10 -53 -10q-51 0 -86 30.5t-35 74.5q0 45 34.5 75.5t86.5 30.5q80 0 139 -58t59 -145q0 -248 -311 -360zM670 -344l-47 100q37 11 75.5 30t76 46.5t61.5 65t24 77.5q0 33 -24 43
q-40 -10 -52 -10q-52 0 -86 30t-34 75t34 75.5t86 30.5q80 0 139.5 -58t59.5 -145q0 -249 -313 -360z" />
    <glyph glyph-name="dagger" unicode="&#x2020;" horiz-adv-x="1032" 
d="M926 1081v-131h-338v-786h-146v786h-336v131h336v353h146v-353h338z" />
    <glyph glyph-name="daggerdbl" unicode="&#x2021;" horiz-adv-x="1075" 
d="M465 164v364h-336v129h336v293h-336v131h336v353h145v-353h336v-131h-336v-293h336v-129h-336v-364h-145z" />
    <glyph glyph-name="bullet" unicode="&#x2022;" horiz-adv-x="899" 
d="M451 295q-135 0 -230.5 90t-95.5 219t95.5 219t230.5 90q133 0 228 -90.5t95 -218.5t-95 -218.5t-228 -90.5z" />
    <glyph glyph-name="ellipsis" unicode="&#x2026;" horiz-adv-x="2048" 
d="M236 96q0 52 37.5 87.5t95.5 35.5q57 0 95 -36t38 -87t-38 -86t-95 -35q-58 0 -95.5 34.5t-37.5 86.5zM889 96q0 51 38 87t95 36t96 -36t39 -87t-39 -86t-96 -35t-95 35t-38 86zM1544 96q0 51 38 87t95 36t96 -36t39 -87t-39 -86t-96 -35t-95 35t-38 86z" />
    <glyph glyph-name="perthousand" unicode="&#x2030;" horiz-adv-x="2998" 
d="M117 889q0 143 113.5 245.5t275.5 102.5q163 0 279 -102.5t116 -245.5q0 -145 -116 -247.5t-279 -102.5q-162 0 -275.5 102.5t-113.5 247.5zM1491 1210l-719 -1210h-141l719 1210h141zM268 889q0 -88 70 -151.5t168 -63.5q100 0 172 63.5t72 151.5t-72 150.5t-172 62.5
q-98 0 -168 -62.5t-70 -150.5zM1219 324q0 141 115 244.5t276 103.5t278 -104t117 -244q0 -146 -116.5 -248.5t-278.5 -102.5q-163 0 -277 102.5t-114 248.5zM1372 324q0 -90 69.5 -154t168.5 -64q100 0 171.5 64.5t71.5 153.5q0 88 -71.5 150.5t-171.5 62.5
q-99 0 -168.5 -62.5t-69.5 -150.5zM2105 324q0 141 114.5 244.5t274.5 103.5q162 0 280 -104t118 -244q0 -146 -117.5 -248.5t-280.5 -102.5q-161 0 -275 102.5t-114 248.5zM2259 324q0 -90 68.5 -154t166.5 -64q100 0 173 64.5t73 153.5q0 87 -73 150t-173 63
q-98 0 -166.5 -62.5t-68.5 -150.5z" />
    <glyph glyph-name="guilsinglleft" unicode="&#x2039;" horiz-adv-x="675" 
d="M328 793h196l-248 -287v-17l248 -282h-196l-213 250v84z" />
    <glyph glyph-name="guilsinglright" unicode="&#x203a;" horiz-adv-x="675" 
d="M152 793h196l213 -252v-84l-213 -250h-196l247 282v17z" />
    <glyph glyph-name="fraction" unicode="&#x2044;" horiz-adv-x="450" 
d="M678 1337l-758 -1337h-141l758 1337h141z" />
    <glyph glyph-name="zero.superior" unicode="&#x2070;" horiz-adv-x="1185" 
d="M82 895q0 128 69 237t186 171.5t253 62.5q139 0 257 -62.5t187.5 -171t69.5 -237.5q0 -130 -69.5 -239t-187.5 -171.5t-257 -62.5q-136 0 -253 62.5t-186 172t-69 238.5zM238 895q0 -138 103 -236t249 -98q148 0 254 98t106 236q0 136 -106 234t-254 98
q-146 0 -249 -97.5t-103 -234.5z" />
    <glyph glyph-name="four.superior" unicode="&#x2074;" horiz-adv-x="1159" 
d="M1090 776v-125h-179v-200h-155v200h-701v109l717 577h139v-561h179zM287 780v-4h469v363h-17q-30 -24 -198 -156.5t-254 -202.5z" />
    <glyph glyph-name="five.superior" unicode="&#x2075;" horiz-adv-x="1062" 
d="M887 1337v-137h-592v-231q67 42 133.5 62t163.5 20q61 0 119 -11t109 -35t89.5 -58t61 -82.5t22.5 -106.5q0 -71 -27 -129t-72.5 -96t-107 -63.5t-127.5 -36.5t-137 -11q-250 0 -454 121l79 125q154 -107 375 -107q83 0 151 18t116.5 64t48.5 115q0 78 -72.5 119
t-175.5 41t-181 -26t-159 -73l-98 70v448h735z" />
    <glyph glyph-name="six.superior" unicode="&#x2076;" horiz-adv-x="1093" 
d="M977 1257l-94 -108q-110 78 -277 78q-152 0 -262 -87.5t-117 -236.5q190 129 404 129q95 0 171 -25t122 -66t70 -90t24 -101q0 -138 -120 -233t-304 -95q-99 0 -189.5 30t-162.5 86t-115 144.5t-43 196.5q0 112 43 205t115.5 154t167 94.5t198.5 33.5q198 0 362 -104
q5 -4 7 -5zM618 907q-182 0 -378 -116q30 -110 128 -170t228 -60q115 0 190.5 57.5t75.5 133.5q0 60 -62 107.5t-182 47.5z" />
    <glyph glyph-name="seven.superior" unicode="&#x2077;" horiz-adv-x="968" 
d="M63 1200v137h842v-137l-518 -749h-201l541 749h-664z" />
    <glyph glyph-name="eight.superior" unicode="&#x2078;" horiz-adv-x="1095" 
d="M549 420q-122 0 -227 32.5t-173.5 99t-68.5 153.5q0 96 71.5 157t172.5 76q-90 14 -137.5 61t-47.5 125q0 59 38 107.5t99 77.5t131.5 44t141.5 15q70 0 140 -15t130.5 -44t98.5 -77.5t38 -107.5q0 -159 -186 -186q102 -15 174 -75.5t72 -157.5q0 -87 -68.5 -153.5
t-173 -99t-225.5 -32.5zM549 557q75 0 142 18t112 56t45 88t-48 87.5t-114.5 54t-136.5 16.5q-71 0 -138 -16.5t-115 -54t-48 -87.5t45 -87.5t112.5 -56t143.5 -18.5zM549 991q116 0 177.5 30.5t61.5 88.5q0 42 -38.5 73.5t-91.5 45.5t-109 14q-58 0 -111.5 -14t-92 -45
t-38.5 -74q0 -58 62.5 -88.5t179.5 -30.5z" />
    <glyph glyph-name="nine.superior" unicode="&#x2079;" horiz-adv-x="1093" 
d="M115 530l94 109q113 -78 278 -78q152 0 262 87t119 235q-198 -127 -405 -127q-95 0 -171 25t-122 66t-70 90t-24 101q0 138 120 233t304 95q99 0 189.5 -30t162 -86t114 -144.5t42.5 -196.5q0 -112 -42.5 -205t-115 -154t-167.5 -94.5t-200 -33.5q-191 0 -355 100
q-11 7 -13 8zM477 881q179 0 379 116q-31 110 -130.5 170t-229.5 60q-113 0 -190 -57.5t-77 -133.5q0 -61 62.5 -108t185.5 -47z" />
    <glyph glyph-name="parenleft.superior" unicode="&#x207d;" horiz-adv-x="569" 
d="M541 303l-78 -94q-183 92 -285 256.5t-102 365.5q0 203 102 368t285 257l78 -92q-141 -77 -225.5 -220t-84.5 -313t84.5 -311t225.5 -217z" />
    <glyph glyph-name="parenright.superior" unicode="&#x207e;" horiz-adv-x="569" 
d="M29 1364l80 92q182 -92 283.5 -257.5t101.5 -367.5q0 -201 -101.5 -365.5t-283.5 -256.5l-80 94q141 76 225 217t84 311t-84 313t-225 220z" />
    <glyph glyph-name="n.superior" unicode="&#x207f;" horiz-adv-x="944" 
d="M287 451h-142v512q0 105 -18 186h127q12 -41 18 -105q51 59 111 93t147 34q120 0 201.5 -69.5t81.5 -177.5v-473h-141v473q0 54 -47 90.5t-119 36.5q-118 0 -219 -113v-487z" />
    <glyph glyph-name="zero.inferior" unicode="&#x2080;" horiz-adv-x="1183" 
d="M82 100q0 128 69 237t186 171.5t253 62.5q138 0 255.5 -62.5t187 -171t69.5 -237.5t-69.5 -238.5t-187 -172t-255.5 -62.5q-136 0 -253 62.5t-186 172t-69 238.5zM236 100q0 -138 103 -235.5t251 -97.5q147 0 252.5 97.5t105.5 235.5q0 136 -106 234t-252 98
q-147 0 -250.5 -97.5t-103.5 -234.5z" />
    <glyph glyph-name="one.inferior" unicode="&#x2081;" horiz-adv-x="632" 
d="M49 301l-35 125l279 117h156v-887h-156v747z" />
    <glyph glyph-name="two.inferior" unicode="&#x2082;" horiz-adv-x="974" 
d="M193 303l-93 109q53 39 86 60t86 48t111 39t125 12q73 0 138.5 -15t120 -44t86.5 -78t32 -112q0 -31 -7.5 -58.5t-18.5 -49t-31.5 -42t-38 -35t-46.5 -29.5t-48 -24t-52 -20.5t-49.5 -16.5t-50 -14.5t-43.5 -12.5q-57 -16 -98.5 -33.5t-79 -44t-57 -64.5t-19.5 -87v-10
h620v-125h-776v121q0 80 33.5 145.5t93 110.5t127 74.5t150.5 50.5q1 0 21 5t27.5 7.5t29 9t32.5 11t30 13t30 16.5t25 19t21.5 23t13 26.5t5.5 30.5q0 57 -63.5 85t-151.5 28q-100 0 -174 -33.5t-147 -95.5z" />
    <glyph glyph-name="three.inferior" unicode="&#x2083;" horiz-adv-x="1103" 
d="M496 61v125h178q45 0 83 31t38 82q0 46 -36.5 77.5t-84.5 43.5t-101 12q-180 0 -342 -143l-94 94q212 188 441 188q62 0 124 -14t119 -41.5t93 -77t36 -112.5q0 -66 -33 -114.5t-73 -66.5q28 -6 56 -19.5t57 -38t47 -64.5t18 -91q0 -96 -65 -166t-172 -104.5t-242 -34.5
q-293 0 -490 185l94 106q161 -151 394 -151q142 0 234.5 46.5t92.5 129.5q0 35 -19 59.5t-50 36.5t-60 17t-59 5h-184z" />
    <glyph glyph-name="four.inferior" unicode="&#x2084;" horiz-adv-x="1153" 
d="M1090 -18v-125h-179v-201h-155v201h-701v108l717 578h139v-561h179zM287 -14v-4h469v362h-17q-46 -36 -206.5 -163t-245.5 -195z" />
    <glyph glyph-name="five.inferior" unicode="&#x2085;" horiz-adv-x="1062" 
d="M887 543v-137h-592v-232q67 42 133.5 62t163.5 20q61 0 119 -11t109 -35t89.5 -58t61 -82.5t22.5 -106.5q0 -71 -27 -129t-72.5 -96t-107 -63.5t-127.5 -36.5t-137 -11q-250 0 -454 121l79 125q153 -106 375 -106q61 0 115 10.5t100.5 32.5t73.5 61.5t27 91.5
q0 78 -72.5 119t-175.5 41t-181.5 -26t-158.5 -72l-98 69v449h735z" />
    <glyph glyph-name="six.inferior" unicode="&#x2086;" horiz-adv-x="1091" 
d="M977 463l-94 -109q-110 78 -279 78q-97 0 -180 -36.5t-138.5 -111.5t-60.5 -175q195 129 404 129q95 0 171 -25t122 -66t70 -90.5t24 -101.5q0 -139 -119.5 -233.5t-304.5 -94.5q-99 0 -189.5 30t-162 86t-114 144.5t-42.5 196.5q0 148 73.5 261t191.5 169.5t259 56.5
q59 0 115 -9.5t90.5 -19.5t76 -30t51.5 -26.5t36 -22.5zM616 113q-173 0 -378 -117q31 -110 130 -169.5t228 -59.5q114 0 190 57t76 133q0 61 -62.5 108.5t-183.5 47.5z" />
    <glyph glyph-name="seven.inferior" unicode="&#x2087;" horiz-adv-x="962" 
d="M63 406v137h842v-137l-516 -750h-203l543 750h-666z" />
    <glyph glyph-name="eight.inferior" unicode="&#x2088;" horiz-adv-x="1095" 
d="M549 -375q-122 0 -227 32.5t-173.5 99t-68.5 153.5q0 96 71.5 157t172.5 76q-90 14 -137.5 61.5t-47.5 125.5q0 59 38 107.5t99 77t131.5 43.5t141.5 15q96 0 186 -25t155.5 -82.5t65.5 -135.5q0 -160 -186 -187q102 -15 174 -75.5t72 -157.5q0 -87 -68.5 -153.5
t-173 -99t-225.5 -32.5zM549 -238q75 0 142 18t112 56t45 88t-48 87.5t-114.5 54t-136.5 16.5q-71 0 -138 -16.5t-115 -54t-48 -87.5t45 -87.5t112.5 -56t143.5 -18.5zM549 197q239 0 239 118q0 42 -38.5 74t-91.5 46t-109 14q-58 0 -111.5 -14t-92 -45.5t-38.5 -74.5
q0 -118 242 -118z" />
    <glyph glyph-name="nine.inferior" unicode="&#x2089;" horiz-adv-x="1091" 
d="M115 -264l94 108q112 -77 278 -77q152 0 262 86.5t119 234.5q-198 -127 -405 -127q-95 0 -171 25t-122 66t-70 90.5t-24 101.5q0 138 120 232.5t304 94.5q99 0 189.5 -30t162 -85.5t114 -144t42.5 -196.5q0 -148 -73.5 -261t-192 -170t-259.5 -57q-30 0 -59 2.5t-53 6
t-49.5 10t-43.5 12t-39.5 14t-33.5 14t-29.5 15t-24 13.5t-21 12.5t-15.5 9.5zM477 86q177 0 379 117q-31 110 -130.5 169.5t-229.5 59.5q-113 0 -190 -57t-77 -133q0 -61 62.5 -108.5t185.5 -47.5z" />
    <glyph glyph-name="colonmonetary" unicode="&#x20a1;" horiz-adv-x="1486" 
d="M1040 1358h107l-55 -242q149 -54 264 -160l-113 -96q-86 73 -182 111l-191 -852q113 16 216.5 72.5t181.5 134.5l110 -99q-105 -105 -245 -175.5t-295 -80.5l-56 -250h-104l55 250q-95 5 -192 35l-64 -285h-104l71 326q-156 77 -244.5 214.5t-88.5 305.5q0 153 73.5 284
t206.5 215t301 101l43 191h105l-43 -187q106 -3 196 -26zM573 156q87 -38 191 -41l197 889q-93 22 -189 22h-6zM287 567q0 -110 50.5 -205t141.5 -157l178 809q-164 -37 -267 -161.5t-103 -285.5z" />
    <glyph glyph-name="franc" unicode="&#x20a3;" horiz-adv-x="1415" 
d="M119 246v110h203v781h972v-158h-796v-264h487v-156h-487v-203h348v-110h-348v-246h-176v246h-203z" />
    <glyph glyph-name="lira" unicode="&#x20a4;" horiz-adv-x="1476" 
d="M139 649v113h277v69q0 84 39 150.5t104 106.5t144 60.5t165 20.5q94 0 224.5 -40t242.5 -105l-88 -121q-96 48 -201.5 79.5t-177.5 31.5q-71 0 -132 -18.5t-103.5 -61.5t-42.5 -103v-69h518v-113h-518v-151h518v-113h-518v-20q0 -104 -37.5 -155.5t-126.5 -68.5h907v-141
h-1194v141h78q114 0 156.5 45t42.5 179v20h-277v113h277v151h-277z" />
    <glyph glyph-name="peseta" unicode="&#x20a7;" horiz-adv-x="3072" 
d="M358 0h-176v1137h658q114 0 198 -27.5t148 -91.5q33 -37 45 -57h188v290h162v-290h289v-127h-289v-596q0 -64 38 -96.5t97 -32.5q39 0 88 9t72 21l20 -127q-29 -20 -91 -33.5t-119 -13.5q-48 0 -93 14.5t-85.5 44.5t-64.5 85.5t-24 128.5v596h-143q2 -14 2 -41
q0 -132 -94 -226q-63 -62 -145 -90t-203 -28h-478v-449zM2888 877l-64 -125q-59 38 -160 72t-200 34q-96 0 -164 -35.5t-68 -105.5q0 -28 12 -50t35.5 -35.5t47.5 -22.5t59.5 -13.5t59 -6.5t57.5 -3q38 -2 60.5 -3.5t64 -6t68.5 -10t65 -17t62.5 -25.5t52.5 -36t44 -49
t26.5 -64t10.5 -80q0 -108 -62 -183t-161.5 -109t-228.5 -34q-253 0 -471 150l63 123q42 -28 78 -47.5t88.5 -42.5t113.5 -35.5t126 -12.5q127 0 208.5 46t81.5 129q0 32 -12.5 57t-37.5 40.5t-50 25.5t-63.5 16t-63.5 8t-63 4q-80 5 -124 9.5t-112.5 21t-105 42.5t-65 76
t-28.5 119q0 65 23.5 117t62 85t91 55t105.5 31t110 9q123 0 241 -37t187 -81zM840 979h-482v-375h478q80 0 128.5 16t86.5 52q53 53 53 121q0 64 -47 114q-67 72 -217 72z" />
    <glyph glyph-name="Euro" unicode="&#x20ac;" horiz-adv-x="1597" 
d="M121 649v113h198q65 181 232 294t377 113q151 0 286 -47.5t234 -134.5l-109 -121q-78 69 -186 108.5t-225 39.5q-135 0 -247.5 -69.5t-170.5 -182.5h582v-113h-621q-8 -36 -8 -82q0 -35 6 -69h623v-113h-588q55 -118 169.5 -190t254.5 -72q120 0 234 44t194 120l108 -123
q-108 -93 -246 -145t-290 -52q-213 0 -381 117t-230 301h-196v113h170q-4 46 -4 69q0 41 6 82h-172z" />
    <glyph glyph-name="peso" unicode="&#x20b1;" horiz-adv-x="1642" 
d="M90 686v111h203v340h631q217 0 338 -121q85 -95 102 -219h188v-111h-188q-13 -123 -115 -229q-63 -61 -134.5 -88t-190.5 -27h-453v-342h-178v686h-203zM1124 567q49 52 62 119h-715v-186h449q82 0 123.5 15.5t80.5 51.5zM924 979h-453v-182h719q-7 56 -53 110
q-37 39 -83 55.5t-130 16.5z" />
    <glyph glyph-name="Rupee" unicode="&#x20b9;" horiz-adv-x="1595" 
d="M219 686v111h866q-9 60 -51 110q-34 37 -81.5 54.5t-127.5 17.5h-606v158h1249v-111h-352q124 -75 144 -229h208v-111h-208q-13 -129 -113 -229q-62 -52 -134.5 -75.5t-191.5 -23.5l-256 11l625 -369h-322l-649 391v109h598q78 0 124 15t81 52q50 50 61 119h-864z" />
    <glyph glyph-name="litre" unicode="&#x2113;" horiz-adv-x="1091" 
d="M150 229l-44 119l209 119v418q0 99 18 174t46.5 119.5t70.5 72t84 37.5t93 10q151 0 239 -89.5t88 -231.5q0 -146 -113.5 -282.5t-322.5 -254.5l-41 -24v-160q0 -82 44.5 -111.5t115.5 -29.5q105 0 225 59l27 -127q-74 -41 -132.5 -58.5t-125.5 -17.5q-62 0 -113.5 12.5
t-99.5 42.5t-75.5 88.5t-27.5 141.5v68zM477 885v-324l29 17q141 82 214 184.5t73 202.5q0 88 -44 139t-120 51q-32 0 -56.5 -10.5t-47.5 -37.5t-35.5 -83t-12.5 -139z" />
    <glyph glyph-name="soundrecordingcopyright" unicode="&#x2117;" horiz-adv-x="2041" 
d="M1929 553q0 -171 -72.5 -327t-194.5 -268t-290 -178.5t-352 -66.5t-352 66.5t-289.5 178.5t-193.5 268t-72 327q0 172 72 327.5t194 267t289.5 177.5t351.5 66t352 -66t290 -177.5t194.5 -267t72.5 -327.5zM1796 555q0 147 -62.5 281t-167 230.5t-248.5 154t-300 57.5
q-209 0 -387 -97.5t-281.5 -264t-103.5 -361.5q0 -196 103.5 -363.5t281.5 -265.5t387 -98t388 97.5t284.5 265t105.5 364.5zM1178 418h-340v-242h-150v791h432q41 0 80 -4.5t83.5 -15t81 -31t66.5 -48.5t47 -72t17 -98q0 -70 -28 -125.5t-74 -88t-101 -49.5t-114 -17z
M838 838v-291h340q67 0 118.5 36.5t51.5 112.5q0 53 -32.5 86.5t-72 44.5t-84.5 11h-321z" />
    <glyph glyph-name="servicemark" unicode="&#x2120;" horiz-adv-x="1859" 
d="M743 1262l-67 -78q-33 29 -97.5 51t-148.5 22q-65 0 -106 -23t-41 -71q0 -25 12.5 -40.5t45.5 -23.5t53.5 -10t72.5 -5q3 0 4.5 -0.5t4.5 -0.5h5q30 -3 42.5 -4t44 -5t47.5 -8.5t43.5 -13t43 -18.5t35 -26t29.5 -35t17.5 -44.5t7.5 -56.5q0 -78 -41.5 -130t-106 -73.5
t-149.5 -21.5q-211 0 -367 144l68 75q132 -118 303 -118q76 0 125 28.5t49 81.5q0 56 -46.5 78t-144.5 29q-32 3 -45 4t-43.5 4.5t-45 6.5t-41 9t-40 13t-33 17t-29.5 23t-20.5 28.5t-15 36t-4.5 44.5q0 57 24.5 99.5t65 64.5t85.5 32.5t95 10.5q96 0 178.5 -29.5
t130.5 -66.5zM1696 668h-119v460h-6l-219 -368h-19l-219 368h-4v-460h-115v669h123l228 -391h2l231 391h117v-669z" />
    <glyph glyph-name="trademark" unicode="&#x2122;" horiz-adv-x="1759" 
d="M1579 668h-119v460h-6l-219 -368h-18l-220 368h-6v-460h-112v669h122l228 -391h2l229 391h119v-669zM111 1241v96h583v-96h-231v-573h-119v573h-233z" />
    <glyph glyph-name="estimated" unicode="&#x212e;" horiz-adv-x="1652" 
d="M428 907v-219q0 -4 4.5 -8t7.5 -4h785q16 0 16 12v219q0 19 -12 43q-62 94 -163 144.5t-228 50.5q-109 0 -227 -56t-169 -139q-14 -22 -14 -43zM1456 283q-116 -160 -277.5 -240t-340.5 -80q-132 0 -259.5 48t-226.5 130.5t-159.5 203.5t-59.5 257q0 113 39.5 215
t108 178t158 131.5t192 84t207.5 28.5q141 0 267.5 -45.5t223 -128t153 -207.5t56.5 -274h-1098q-4 0 -8 -5t-4 -12v-260q0 -39 14 -57q169 -193 396 -193q253 0 432 226h186z" />
    <glyph glyph-name="onethird" unicode="&#x2153;" horiz-adv-x="2187" 
d="M49 1096l-35 125l279 116h156v-886h-156v747zM1311 1337l-758 -1337h-141l757 1337h142zM1579 406v124h178q45 0 83 31t38 82q0 46 -36.5 77.5t-84 43.5t-100.5 12q-180 0 -342 -143l-94 94q212 188 440 188q62 0 124 -14t119.5 -41.5t93.5 -77t36 -112.5
q0 -66 -33.5 -114.5t-73.5 -66.5q28 -6 56 -19.5t57 -38t47 -64.5t18 -91q0 -96 -65 -166t-172 -104.5t-242 -34.5q-292 0 -489 185l94 106q161 -151 393 -151q142 0 235 46.5t93 129.5q0 35 -19.5 60t-50.5 37t-60.5 17t-58.5 5h-184z" />
    <glyph glyph-name="twothirds" unicode="&#x2154;" horiz-adv-x="2529" 
d="M193 1098l-93 108q53 39 85.5 60t86 48.5t111.5 39.5t125 12q99 0 181.5 -25t139 -83.5t56.5 -141.5q0 -31 -7.5 -58.5t-19 -49t-31.5 -42t-37.5 -35t-46 -29.5t-48 -23.5t-52.5 -20t-50 -16.5t-49.5 -14.5t-43.5 -12.5q-57 -16 -98.5 -33.5t-79 -44t-57 -64.5t-19.5 -87
v-11h620v-124h-776v120q0 80 33.5 145.5t93 110.5t127 74.5t150.5 50.5q108 28 153 52q82 45 82 110q0 57 -63.5 85t-151.5 28q-100 0 -174 -33.5t-147 -95.5zM1653 1337l-758 -1337h-141l757 1337h142zM1921 406v124h178q45 0 83 31t38 82q0 46 -36.5 77.5t-84 43.5
t-100.5 12q-180 0 -342 -143l-94 94q212 188 440 188q62 0 124 -14t119.5 -41.5t93.5 -77t36 -112.5q0 -66 -33.5 -114.5t-73.5 -66.5q28 -6 56 -19.5t57 -38t47 -64.5t18 -91q0 -96 -65 -166t-172 -104.5t-242 -34.5q-292 0 -489 185l94 106q161 -151 393 -151
q142 0 235 46.5t93 129.5q0 35 -19.5 60t-50.5 37t-60.5 17t-58.5 5h-184z" />
    <glyph glyph-name="oneeighth" unicode="&#x215b;" horiz-adv-x="2179" 
d="M49 1096l-35 125l279 116h156v-886h-156v747zM1311 1337l-758 -1337h-141l757 1337h142zM1632 -31q-122 0 -227 32.5t-173.5 99t-68.5 153.5q0 96 71.5 157t172.5 76q-89 14 -136.5 61.5t-47.5 125.5q0 59 38 107.5t99 77.5t131 44t141 15q70 0 140 -15t131 -44t99 -77.5
t38 -107.5q0 -78 -47.5 -126t-139.5 -61q102 -15 174 -75.5t72 -157.5q0 -87 -68.5 -153.5t-173 -99t-225.5 -32.5zM1632 106q75 0 142 18t112 56t45 88t-48 87.5t-114.5 54t-136.5 16.5q-71 0 -138 -16.5t-115 -54t-48 -87.5t45 -87.5t112.5 -56t143.5 -18.5zM1632 541
q116 0 178 30t62 88q0 42 -38.5 74t-92 46t-109.5 14q-58 0 -111 -14t-91.5 -45.5t-38.5 -74.5q0 -118 241 -118z" />
    <glyph glyph-name="threeeighths" unicode="&#x215c;" horiz-adv-x="2650" 
d="M498 856v125h178q45 0 82 31t37 82q0 46 -36 77.5t-83.5 43.5t-100.5 12q-95 0 -183.5 -40.5t-158.5 -103.5l-94 95q208 188 439 188q62 0 125 -14t120 -41.5t93 -77.5t36 -113q0 -65 -33.5 -113.5t-72.5 -66.5q28 -6 56 -19.5t57 -38t47 -64.5t18 -91q0 -96 -65 -166
t-172 -104.5t-242 -34.5q-297 0 -490 184l95 107q162 -152 393 -152q141 0 233 46.5t92 129.5q0 35 -19 60t-49.5 37t-59.5 17t-58 5h-184zM1782 1337l-758 -1337h-141l757 1337h142zM2103 -31q-122 0 -227 32.5t-173.5 99t-68.5 153.5q0 96 71.5 157t172.5 76
q-89 14 -136.5 61.5t-47.5 125.5q0 59 38 107.5t99 77.5t131 44t141 15q70 0 140 -15t131 -44t99 -77.5t38 -107.5q0 -78 -47.5 -126t-139.5 -61q102 -15 174 -75.5t72 -157.5q0 -87 -68.5 -153.5t-173 -99t-225.5 -32.5zM2103 106q75 0 142 18t112 56t45 88t-48 87.5
t-114.5 54t-136.5 16.5q-71 0 -138 -16.5t-115 -54t-48 -87.5t45 -87.5t112.5 -56t143.5 -18.5zM2103 541q116 0 178 30t62 88q0 42 -38.5 74t-92 46t-109.5 14q-58 0 -111 -14t-91.5 -45.5t-38.5 -74.5q0 -118 241 -118z" />
    <glyph glyph-name="fiveeighths" unicode="&#x215d;" horiz-adv-x="2609" 
d="M887 1337v-137h-592v-231q67 42 133.5 62t163.5 20q61 0 119 -11t109 -35t89.5 -58t61 -82.5t22.5 -106.5q0 -71 -27 -129t-72.5 -96t-107 -63.5t-127.5 -36.5t-137 -11q-250 0 -454 121l79 125q154 -107 375 -107q83 0 151 18t116.5 64t48.5 115q0 78 -72.5 119
t-175.5 41t-181 -26t-159 -73l-98 70v448h735zM1741 1337l-758 -1337h-141l757 1337h142zM2062 -31q-122 0 -227 32.5t-173.5 99t-68.5 153.5q0 96 71.5 157t172.5 76q-89 14 -136.5 61.5t-47.5 125.5q0 59 38 107.5t99 77.5t131 44t141 15q70 0 140 -15t131 -44t99 -77.5
t38 -107.5q0 -160 -186 -187q102 -15 173.5 -75.5t71.5 -157.5q0 -87 -68.5 -153.5t-173 -99t-225.5 -32.5zM2062 106q75 0 142 18t112 56t45 88t-48 87.5t-114.5 54t-136.5 16.5q-71 0 -138 -16.5t-115 -54t-48 -87.5t45 -87.5t112.5 -56t143.5 -18.5zM2062 541
q116 0 178 30t62 88q0 42 -38.5 74t-92 46t-109.5 14q-58 0 -111 -14t-91.5 -45.5t-38.5 -74.5q0 -118 241 -118z" />
    <glyph glyph-name="seveneighths" unicode="&#x215e;" horiz-adv-x="2387" 
d="M63 1200v137h842v-137l-516 -749h-203l543 749h-666zM1520 1337l-758 -1337h-141l757 1337h142zM1841 -31q-122 0 -227 32.5t-173.5 99t-68.5 153.5q0 96 71.5 157t172.5 76q-89 14 -136.5 61.5t-47.5 125.5q0 59 38 107.5t99 77.5t131 44t141 15q70 0 140 -15t131 -44
t99 -77.5t38 -107.5q0 -78 -47.5 -126t-139.5 -61q102 -15 174 -75.5t72 -157.5q0 -87 -68.5 -153.5t-173 -99t-225.5 -32.5zM1841 106q75 0 142 18t112 56t45 88t-48 87.5t-114.5 54t-136.5 16.5q-71 0 -138 -16.5t-115 -54t-48 -87.5t45 -87.5t112.5 -56t143.5 -18.5z
M1841 541q116 0 178 30t62 88q0 42 -38.5 74t-92 46t-109.5 14q-58 0 -111.5 -14t-92 -45.5t-38.5 -74.5q0 -118 242 -118z" />
    <glyph glyph-name="arrowleft" unicode="&#x2190;" horiz-adv-x="1691" 
d="M1200 600l301 4v-160l-301 7l-790 2l-88 2l-3 -6l115 -93l438 -436l-104 -108l-690 690v45l690 688l104 -109l-438 -434l-115 -90l3 -8l88 4z" />
    <glyph glyph-name="arrowup" unicode="&#x2191;" horiz-adv-x="1693" 
d="M920 117l6 -299h-160l4 299l2 792l4 88l-6 2l-92 -116l-447 -447l-110 103l700 704h45l703 -704l-109 -103l-448 447l-92 116l-7 -2l5 -90z" />
    <glyph glyph-name="arrowright" unicode="&#x2192;" horiz-adv-x="1691" 
d="M190 604l302 -4l790 -2l88 -4l2 8l-115 90l-438 434l105 109l690 -688v-45l-690 -690l-105 108l438 436l115 93l-2 6l-88 -2l-790 -2l-302 -7v160z" />
    <glyph glyph-name="arrowdown" unicode="&#x2193;" horiz-adv-x="1693" 
d="M926 1229l-6 -299l-2 -791l-5 -90l7 -2l92 115l448 448l109 -102l-703 -705h-45l-700 705l110 102l447 -448l92 -115l6 2l-4 88l-2 793l-4 299h160z" />
    <glyph glyph-name="arrowupleft" unicode="&#x2196;" horiz-adv-x="1691" 
d="M1272 174l215 -207l-115 -112l-231 237l-633 635l-59 68l-9 -7l21 -145v-643h-150v995l33 33h993v-151h-639l-149 20l-4 -6l65 -60z" />
    <glyph glyph-name="arrowupright" unicode="&#x2197;" horiz-adv-x="1691" 
d="M207 -33l215 207l661 657l66 60l-4 6l-150 -20h-639v151h994l32 -33v-995h-149v643l20 145l-8 7l-61 -68l-631 -635l-231 -237z" />
    <glyph glyph-name="arrowdownright" unicode="&#x2198;" horiz-adv-x="1691" 
d="M422 854l-215 207l115 113l231 -238l631 -635l61 -68l8 5l-20 147v643h149v-995l-32 -33h-994v152h639l150 -23l4 8l-66 60z" />
    <glyph glyph-name="arrowdownleft" unicode="&#x2199;" horiz-adv-x="1691" 
d="M1487 1061l-215 -207l-662 -657l-65 -60l4 -8l149 23h639v-152h-993l-33 33v995h150v-643l-21 -147l9 -5l59 68l633 635l231 238z" />
    <glyph glyph-name="partialdiff" unicode="&#x2202;" horiz-adv-x="1306" 
d="M596 936q125 0 225 -57.5t168 -149.5v29q0 54 -14 108.5t-52.5 115.5t-98 107t-159.5 76.5t-227 30.5v143q725 0 725 -704q0 -171 -42.5 -302.5t-117 -210t-170 -118t-208.5 -39.5q-99 0 -189 30.5t-163 88.5t-116.5 152.5t-43.5 212.5q0 117 42.5 212.5t112.5 154
t154.5 89.5t173.5 31zM616 96q76 0 141 26.5t117 79t85 138.5t40 197q-66 116 -167.5 192t-223.5 76q-65 0 -124 -22.5t-106.5 -65.5t-75.5 -112.5t-28 -155.5t28 -155t76 -111.5t108.5 -64.5t129.5 -22z" />
    <glyph glyph-name="product" unicode="&#x220f;" horiz-adv-x="1632" 
d="M104 1180v157h1426v-157h-227v-1399h-179v1399h-620v-1399h-176v1399h-224z" />
    <glyph glyph-name="summation" unicode="&#x2211;" horiz-adv-x="1437" 
d="M1323 1337v-157h-924l682 -566v-106l-682 -569h924v-158h-1223v113l797 661v12l-797 658v112h1223z" />
    <glyph glyph-name="minus" unicode="&#x2212;" horiz-adv-x="1490" 
d="M178 451v145h1135v-145h-1135z" />
    <glyph glyph-name="radical" unicode="&#x221a;" horiz-adv-x="1400" 
d="M66 963h356l274 -723l482 1304h163l-589 -1544h-115l-328 834h-243v129z" />
    <glyph glyph-name="infinity" unicode="&#x221e;" horiz-adv-x="2127" 
d="M543 922h24q170 0 342 -154l154 -141l154 141q177 154 339 154h25q115 0 210 -53t147.5 -138.5t52.5 -181.5v-51q0 -148 -118.5 -258.5t-291.5 -110.5h-25q-164 0 -339 150l-154 137l-154 -140q-173 -147 -342 -147h-24q-171 0 -288.5 110.5t-117.5 258.5v51
q0 148 117.5 260.5t288.5 112.5zM1329 674l-168 -150l168 -149q118 -107 227 -107h25q108 0 181 69t73 161v51q0 93 -73 162t-181 69h-25q-110 0 -227 -106zM289 549v-51q0 -92 73 -161t181 -69h24q114 0 230 109l164 147l-164 150q-119 106 -230 106h-24q-108 0 -181 -69
t-73 -162z" />
    <glyph glyph-name="integral" unicode="&#x222b;" horiz-adv-x="839" 
d="M739 1481v-144h-114q-56 0 -87.5 -40t-31.5 -97v-1343q0 -102 -76 -171t-219 -69h-100v143h112q57 0 89 40t32 98v1343q0 101 58 170.5t167 69.5h170z" />
    <glyph glyph-name="approxequal" unicode="&#x2248;" horiz-adv-x="1490" 
d="M178 174v150q155 114 307 114q77 0 135 -20t119 -56q134 -79 246 -79q78 0 166 34t162 89v-152q-159 -117 -328 -117q-59 0 -115 15t-80 27.5t-59 33.5q-43 24 -72.5 38.5t-77.5 27t-98 12.5q-156 0 -305 -117zM178 674v149q77 57 150 85t157 28q77 0 135 -20t119 -56
q135 -80 246 -80q78 0 166.5 34t161.5 91v-151q-158 -119 -328 -119q-59 0 -115 15t-80 27.5t-59 33.5q-64 37 -120.5 57t-127.5 20q-156 0 -305 -114z" />
    <glyph glyph-name="notequal" unicode="&#x2260;" horiz-adv-x="1490" 
d="M178 698v148h668l135 217h162l-135 -217h305v-148h-398l-217 -350h615v-147h-707l-133 -215h-162l133 215h-266v147h359l217 350h-576z" />
    <glyph glyph-name="lessequal" unicode="&#x2264;" horiz-adv-x="1490" 
d="M178 0v147h1135v-147h-1135zM1313 1155v-166l-930 -284v-21l930 -285v-166l-1135 379v164z" />
    <glyph glyph-name="greaterequal" unicode="&#x2265;" horiz-adv-x="1490" 
d="M1313 147v-147h-1135v147h1135zM178 989v166l1135 -379v-164l-1135 -379v166l930 285v21z" />
    <glyph glyph-name="squarecrossed" unicode="&#x22a0;" horiz-adv-x="1726" 
d="M195 1337h1335v-1337h-1335v1337zM432 180l-53 -51l4 -4l115 4h729l116 -4l5 4l-56 51l-411 412l-21 22l-18 -22zM379 1208l53 -51l410 -409l18 -25l21 25l411 409l54 51l-5 4l-114 -4h-729l-115 4zM324 1155l-5 -4l5 -109v-739l-5 -115l5 -2l47 54l411 409l23 19
l-434 434zM1407 1151l-4 4l-47 -53l-434 -434l22 -19l412 -409l47 -54l4 2l-4 115v739z" />
    <glyph glyph-name="blacksquare" unicode="&#x25a0;" horiz-adv-x="1470" 
d="M170 1137h1135v-1137h-1135v1137z" />
    <glyph glyph-name="whitesquare" unicode="&#x25a1;" horiz-adv-x="1726" 
d="M195 1337h1335v-1337h-1335v1337zM332 1208v-1079h1063v1079h-1063z" />
    <glyph glyph-name="blacksmallsquare" unicode="&#x25aa;" horiz-adv-x="950" 
d="M178 903h594v-594h-594v594z" />
    <glyph glyph-name="blackuppointingtriangle" unicode="&#x25b2;" horiz-adv-x="1353" 
d="M664 1206h18l575 -1188v-18h-1171v18z" />
    <glyph glyph-name="blackrightpointingtriangle" unicode="&#x25b6;" horiz-adv-x="1544" 
d="M190 1106h19l1188 -580v-18l-1188 -578h-19v1176z" />
    <glyph glyph-name="blackdownpointingtriangle" unicode="&#x25bc;" horiz-adv-x="1353" 
d="M86 1008h1171v-21l-575 -1186h-18l-578 1186v21z" />
    <glyph glyph-name="blackleftpointingtriangle" unicode="&#x25c0;" horiz-adv-x="1544" 
d="M147 526l1186 580h19v-1176h-19l-1186 578v18z" />
    <glyph glyph-name="lozenge" unicode="&#x25ca;" horiz-adv-x="1349" 
d="M625 1337h100l522 -614v-105l-522 -618h-100l-523 618v105zM674 1157l-408 -483v-6l408 -488h2l407 486v8l-407 483h-2z" />
    <glyph glyph-name="whitecircle" unicode="&#x25cb;" horiz-adv-x="1716" 
d="M109 662q0 152 60 290t160.5 237.5t239 158.5t289.5 59q152 0 290.5 -59t238.5 -158.5t159.5 -237.5t59.5 -290q0 -204 -100.5 -376.5t-272.5 -273t-375 -100.5q-151 0 -289.5 59.5t-239 160t-160.5 239.5t-60 291zM252 662q0 -168 81 -310.5t220.5 -225.5t304.5 -83
t304.5 83t220.5 225.5t81 310.5q0 167 -81 309t-220.5 224.5t-304.5 82.5t-304.5 -82.5t-220.5 -224.5t-81 -309z" />
    <glyph glyph-name="blackcircle" unicode="&#x25cf;" horiz-adv-x="1458" 
d="M119 567q0 165 81.5 306t221.5 223t305 82t305.5 -82t222.5 -223t82 -306t-82 -305t-222.5 -221.5t-305.5 -81.5t-305 81.5t-221.5 221.5t-81.5 305z" />
    <glyph glyph-name="blackmediumsquare" unicode="&#x25fc;" horiz-adv-x="1122" 
d="M170 963h782v-781h-782v781z" />
    <glyph glyph-name="blackmediumcircle" unicode="&#x26ab;" horiz-adv-x="1124" 
d="M563 1008q182 0 308 -123.5t126 -304.5q0 -178 -126 -302t-308 -124q-184 0 -310 123.5t-126 302.5q0 181 125.5 304.5t310.5 123.5z" />
    <glyph glyph-name="circlecrossed" unicode="&#x2a02;" horiz-adv-x="1716" 
d="M109 662q0 152 60 290t160.5 237.5t239 158.5t289.5 59q152 0 290.5 -59t238.5 -158.5t159.5 -237.5t59.5 -290q0 -204 -100.5 -376.5t-272.5 -273t-375 -100.5q-151 0 -289.5 59.5t-239 160t-160.5 239.5t-60 291zM858 37q231 0 408 162l-389 393l-19 20l-20 -20
l-389 -393q180 -162 409 -162zM1325 262q143 173 143 400q0 228 -153 405l-379 -375l-21 -20zM778 692l-379 375q-151 -175 -151 -405q0 -228 141 -398l389 387l21 21zM858 1282q-219 0 -399 -152l379 -378l20 -23l19 23l378 378q-175 152 -397 152z" />
    <glyph glyph-name="blacklargesquare" unicode="&#x2b1b;" horiz-adv-x="1726" 
d="M195 1337h1335v-1337h-1335v1337z" />
    <glyph glyph-name="blacklargecircle" unicode="&#x2b24;" horiz-adv-x="1716" 
d="M109 662q0 152 60 290t160.5 237.5t239 158.5t289.5 59q152 0 290.5 -59t238.5 -158.5t159.5 -237.5t59.5 -290q0 -204 -100.5 -376.5t-272.5 -273t-375 -100.5q-151 0 -289.5 59.5t-239 160t-160.5 239.5t-60 291z" />
    <glyph glyph-name="commaaccent" unicode="&#xf6c3;" 
d="M471 -117l131 29q111 -85 111 -188q0 -99 -82 -158.5t-223 -59.5q-63 0 -119 13l2 102q44 -8 100 -8q81 0 124.5 30t43.5 89q0 75 -88 151z" />
    <glyph glyph-name="rupiah" unicode="&#xf6dd;" horiz-adv-x="2648" 
d="M1739 -430h-164v1143q0 151 -23 250h152q16 -58 20 -144q53 68 146.5 120t200.5 52q98 0 185.5 -37t152.5 -102.5t103 -162.5t38 -210q0 -149 -67 -266.5t-178.5 -179.5t-244.5 -62q-92 0 -174.5 43t-146.5 115v-559zM1739 698v-436q143 -147 307 -147q137 0 230.5 101
t93.5 263q0 163 -91.5 266t-222.5 103q-172 0 -317 -150zM367 0h-177v1137h666q126 0 208.5 -31t141.5 -90q94 -97 94 -223q0 -117 -77 -202.5t-203 -115.5l295 -475h-203l-272 449h-473v-449zM856 979h-489v-375h528q98 0 163.5 55.5t65.5 133.5q0 65 -49 114
q-39 42 -89.5 57t-129.5 15z" />
    <glyph glyph-name="sweetfonts.com" unicode="&#xf8ff;" horiz-adv-x="2048" 
d="M702 868q0 134 94 228t228 94t228 -94t94 -228q0 -133 -94 -227t-228 -94t-228 94t-94 227zM1446 877l485 280q6 5 11.5 2t5.5 -10v-561q0 -7 -5.5 -10t-11.5 2l-485 280q-4 3 -4 8.5t4 8.5zM100 588v561q0 7 5.5 10t11.5 -2l485 -280q6 -3 6 -8.5t-6 -8.5l-485 -280
q-6 -5 -11.5 -2t-5.5 10zM1798 0v238h-117v41h283v-41h-117v-238h-49zM1350 0v279h239v-41h-190v-66h127v-41h-127v-90h203v-41h-252zM967 0v279h239v-41h-190v-66h127v-41h-127v-90h203v-41h-252zM549 0l-96 279h51l61 -203h4l70 203h31l67 -203h4l66 203h47l-100 -279h-33
l-68 199h-4l-67 -199h-33zM76 45l24 31q67 -43 125 -43q101 0 101 49q0 17 -14 26.5t-31 11.5t-45 3h-7q-67 2 -104 18t-37 58q0 34 31.5 59t91.5 25q74 0 141 -37l-24 -33q-52 31 -117 31q-38 0 -58 -12.5t-20 -30.5q0 -19 24 -25t72 -8q69 -2 105.5 -19t36.5 -65
q0 -43 -41.5 -66.5t-104.5 -23.5q-85 0 -149 51z" />
    <glyph glyph-name="one.alt" horiz-adv-x="636" 
d="M406 0h-177v1137h177v-1137z" />
    <glyph glyph-name="dollar.superior" horiz-adv-x="1044" 
d="M475 1511h103v-151q199 -22 354 -131l-90 -103q-97 84 -264 105v-240q58 -4 104 -10.5t102.5 -25t94.5 -46.5t64 -76.5t26 -113.5q0 -148 -109.5 -221.5t-281.5 -75.5v-189h-103v193q-231 24 -409 182l88 99q44 -35 79.5 -59t102.5 -52t139 -39v299q-63 6 -108.5 13
t-96 24t-82 41.5t-52.5 66t-21 95.5q0 74 32 128.5t86 84t114 43t128 14.5v145zM823 698q0 76 -60.5 107t-184.5 43v-297q109 2 177 38t68 109zM262 1110q0 -99 213 -113v240q-94 0 -153.5 -30.5t-59.5 -96.5z" />
    <glyph glyph-name="cent.superior" horiz-adv-x="876" 
d="M516 1307h107l-33 -154q115 -24 207 -98l-97 -97q-59 48 -137 70l-102 -473h6q127 0 238 96l96 -90q-15 -17 -40 -36t-66.5 -43t-101.5 -39t-126 -15h-33l-41 -195h-104l45 216q-118 36 -190 129t-72 223q0 163 111 264.5t274 101.5q5 0 14 -1t14 -1zM227 801
q0 -77 36.5 -135.5t96.5 -87.5l99 464h-2q-98 0 -164 -66.5t-66 -174.5z" />
    <glyph glyph-name="Euro.superior" horiz-adv-x="1159" 
d="M78 954v97h149q50 139 174 227t277 88q113 0 213.5 -37t173.5 -104l-94 -109q-54 53 -131 82t-162 29q-91 0 -167 -48t-118 -128h408v-97h-441q-4 -40 -4 -59q0 -37 4 -53h441v-97h-412q40 -84 117.5 -134t171.5 -50q87 0 167.5 33t139.5 92l94 -108q-80 -74 -183 -115
t-218 -41q-156 0 -280.5 90t-172.5 233h-147v97h125q-2 16 -2 53q0 39 2 59h-125z" />
    <glyph glyph-name="sterling.superior" horiz-adv-x="1062" 
d="M86 868v113h195v119q0 87 52 149t128 89.5t164 27.5q70 0 168 -32t186 -83l-78 -108q-68 38 -144.5 61t-131.5 23q-76 0 -131.5 -32.5t-55.5 -94.5v-119h371v-113h-371v-127q0 -77 -30 -115.5t-99 -50.5h668v-124h-891v124h57q79 0 108.5 33t29.5 133v127h-195z" />
    <glyph glyph-name="yen.superior" horiz-adv-x="1146" 
d="M86 954v97h258l-225 286h196l265 -340l264 340h182l-225 -286h260v-97h-334l-76 -96v-16h410v-97h-410v-294h-155v294h-410v97h410v16l-76 96h-334z" />
    <glyph glyph-name="numbersign.superior" horiz-adv-x="1318" 
d="M883 1413h114l-49 -280h299v-111h-319l-49 -287h284v-110h-305l-55 -324h-117l57 324h-262l-55 -324h-117l58 324h-295v110h313l51 287h-278v111h297l51 280h115l-50 -280h260zM551 1022l-49 -287h260l51 287h-262z" />
    <glyph glyph-name="percent.superior" horiz-adv-x="1560" 
d="M72 1147q0 111 84.5 191.5t205.5 80.5q120 0 207.5 -81t87.5 -191q0 -114 -87 -194.5t-208 -80.5t-205.5 80.5t-84.5 194.5zM1110 1395l-535 -944h-122l536 944h121zM203 1147q0 -63 46.5 -109.5t112.5 -46.5t114 46.5t48 109.5t-48 107t-114 44t-112.5 -44t-46.5 -107z
M905 700q0 111 85 192t206 81t208 -81t87 -192q0 -113 -86 -192.5t-209 -79.5q-121 0 -206 79.5t-85 192.5zM1038 700q0 -63 46.5 -108t111.5 -45q68 0 116 45t48 108t-48.5 108.5t-115.5 45.5q-65 0 -111.5 -45.5t-46.5 -108.5z" />
    <glyph glyph-name="period.superior" horiz-adv-x="468" 
d="M123 530q0 42 33 72.5t80 30.5q45 0 77.5 -30.5t32.5 -72.5t-32 -71t-78 -29q-47 0 -80 28.5t-33 71.5z" />
    <glyph glyph-name="comma.superior" horiz-adv-x="501" 
d="M129 176l-43 92q43 10 89 38.5t69 66.5q24 41 14 71q-8 -2 -25 -2q-46 0 -77 27.5t-31 67.5q0 39 31.5 67.5t76.5 28.5q62 0 110 -47t48 -117q0 -62 -24.5 -113t-66.5 -85.5t-83 -56.5t-88 -38z" />
    <glyph glyph-name="hyphen.superior" horiz-adv-x="604" 
d="M117 735v142h372v-142h-372z" />
    <glyph glyph-name="zero.tos" horiz-adv-x="1380" 
d="M104 567q0 124 46.5 236t125.5 192.5t186.5 128t225.5 47.5t226.5 -47.5t188.5 -128t127.5 -193t47.5 -235.5t-47.5 -235t-127.5 -192.5t-188.5 -127.5t-226.5 -47t-225.5 47t-186.5 127.5t-125.5 192t-46.5 235.5zM281 567q0 -121 54.5 -223.5t148 -162.5t204.5 -60
q169 0 291.5 131t122.5 315t-122.5 316.5t-291.5 132.5q-168 0 -287.5 -132t-119.5 -317z" />
    <glyph glyph-name="one.tos" horiz-adv-x="1380" 
d="M250 0v139h450v838l-438 -129l-41 143l479 146h177v-998h350v-139h-977z" />
    <glyph glyph-name="two.tos" horiz-adv-x="1380" 
d="M276 848l-102 123q65 46 112.5 75t117 61t148.5 47t171 15q98 0 187 -19t162 -56t116 -99t43 -141q0 -40 -10.5 -75.5t-27 -63.5t-43.5 -53.5t-53 -44t-64.5 -37t-68 -30t-72 -25t-69.5 -20.5t-68 -18q-31 -8 -46 -12q-68 -17 -119.5 -35t-103.5 -45t-85 -59t-54 -77
t-21 -99v-21h882v-139h-1056v143q0 355 550 488q154 35 223 67q129 61 130 152q0 56 -50 94.5t-121.5 55t-156.5 16.5q-139 0 -240 -43t-211 -125z" />
    <glyph glyph-name="three.tos" horiz-adv-x="1380" 
d="M627 530v140h186q68 0 125 43.5t57 115.5q0 63 -45.5 107.5t-106.5 62t-128 17.5q-211 0 -420 -189l-109 109q257 233 533 233q77 0 153.5 -17.5t146 -52.5t112.5 -97.5t43 -143.5q0 -84 -48 -146.5t-104 -84.5q30 -7 60 -18.5t64.5 -34t60 -51.5t42.5 -73.5t17 -97.5
q0 -120 -79.5 -209.5t-211.5 -133.5t-297 -44q-355 0 -596 232l108 122q202 -198 488 -198q177 0 294.5 64.5t117.5 176.5q0 48 -26.5 83.5t-68.5 52.5t-81.5 24.5t-77.5 7.5h-209z" />
    <glyph glyph-name="four.tos" horiz-adv-x="1380" 
d="M1292 403v-139h-219v-264h-178v264h-834v125l852 748h160v-734h219zM324 410v-7h571v508h-16z" />
    <glyph glyph-name="five.tos" horiz-adv-x="1380" 
d="M1137 1137v-158h-766v-334q53 27 84 40.5t81 31.5t103.5 25.5t116.5 7.5q78 0 151 -13.5t139 -43.5t114.5 -72.5t77 -105t28.5 -136.5q0 -88 -34.5 -159t-91.5 -118t-134.5 -78.5t-160.5 -45t-173 -13.5q-316 0 -570 180l93 123q214 -147 479 -147q79 0 150.5 14.5
t132.5 43.5t97 80t36 118q0 56 -28.5 100t-77 70t-108 39.5t-126.5 13.5q-128 0 -227.5 -28.5t-203.5 -79.5l-108 79v566h926z" />
    <glyph glyph-name="six.tos" horiz-adv-x="1380" 
d="M1200 1055l-92 -123q-143 84 -346 84q-123 0 -228.5 -51t-174.5 -153t-74 -237q245 168 508 168q117 0 210.5 -32t149.5 -85t85.5 -115.5t29.5 -129.5q0 -176 -147 -296t-373 -120q-97 0 -187.5 23.5t-169.5 72t-138.5 117t-93.5 164t-34 207.5q0 142 52.5 261
t141.5 196.5t205 120t244 42.5q84 0 158.5 -12t132 -34.5t82.5 -35t59 -32.5zM776 600q-228 0 -479 -156q24 -103 92.5 -177.5t161.5 -110t201 -35.5q145 0 242.5 79.5t97.5 184.5q0 83 -80.5 149t-235.5 66z" />
    <glyph glyph-name="seven.tos" horiz-adv-x="1380" 
d="M123 979v158h1134v-158l-716 -979h-232l746 979h-932z" />
    <glyph glyph-name="eight.tos" horiz-adv-x="1380" 
d="M690 -37q-146 0 -273.5 41.5t-210.5 126t-83 195.5q0 124 88.5 202t216.5 99q-112 19 -172.5 79.5t-60.5 157.5q0 76 46 137t120 97.5t159 56t170 19.5q86 0 171.5 -19.5t159 -56t119.5 -97.5t46 -137q0 -199 -234 -237q129 -20 218.5 -98.5t89.5 -202.5
q0 -111 -84 -195.5t-212 -126t-274 -41.5zM690 117q96 0 180.5 25.5t140.5 78t56 121.5t-59.5 119t-143 72t-174.5 22q-65 0 -130 -13.5t-121 -38.5t-91 -67t-35 -94q0 -69 57 -122t141.5 -78t178.5 -25zM690 686q148 0 225.5 42t77.5 122q0 59 -48 102.5t-115 62.5t-140 19
q-71 0 -137.5 -19t-115 -62.5t-48.5 -102.5q0 -80 77.5 -122t223.5 -42z" />
    <glyph glyph-name="nine.tos" horiz-adv-x="1380" 
d="M176 82l90 123q143 -84 346 -84q124 0 230.5 50t177 151.5t76.5 236.5q-251 -166 -510 -166q-118 0 -212.5 32t-151.5 85t-86.5 115.5t-29.5 128.5q0 176 148 295.5t375 119.5q98 0 189 -23.5t170.5 -71.5t139 -116t93.5 -163t34 -207q0 -142 -53 -261.5t-142 -197.5
t-205.5 -121t-244.5 -43q-249 0 -434 117zM600 535q234 0 483 155q-35 154 -163 240t-293 86q-147 0 -246.5 -80t-99.5 -184q0 -83 81.5 -150t237.5 -67z" />
    <glyph glyph-name="dollar.tos" horiz-adv-x="1380" 
d="M631 1358h121v-195q141 -16 258 -63.5t194 -104.5l-100 -116q-53 48 -143.5 86.5t-208.5 52.5v-336q51 -2 94.5 -6.5t97.5 -15t96.5 -26t85 -41.5t71 -59.5t46 -82.5t17.5 -109q0 -95 -40 -168t-111 -117t-160.5 -66t-196.5 -24v-246h-121v250q-301 30 -531 230l103 114
q195 -168 428 -196v411q-56 4 -99.5 9.5t-94 16t-88 24.5t-73.5 37t-59 52t-37 69.5t-14 90.5q0 75 28 134t74 96.5t108 63t124.5 35.5t130.5 11v189zM1094 319q0 54 -25 92t-75 60t-106 33t-136 18v-409q97 1 172.5 22.5t122.5 68.5t47 115zM334 844q0 -35 19.5 -62
t47.5 -42.5t70.5 -27t78 -16t81.5 -8.5v336q-83 0 -146.5 -16t-107 -58t-43.5 -106z" />
    <glyph glyph-name="cent.tos" horiz-adv-x="1380" 
d="M809 1087h123l-51 -196q185 -36 317 -129l-108 -109q-108 70 -244 95l-162 -633h35q223 0 379 129l112 -103q-21 -21 -58 -45.5t-98 -54t-150 -49t-185 -19.5q-22 0 -72 4l-63 -256h-121l69 275q-178 44 -288.5 162.5t-110.5 283.5q0 136 77.5 243t207.5 164.5t287 57.5
q39 0 57 -2zM311 442q0 -110 70.5 -191t185.5 -116l160 627h-22q-166 0 -280 -88.5t-114 -231.5z" />
    <glyph glyph-name="Euro.tos" horiz-adv-x="1380" 
d="M92 649v113h172q58 180 205.5 293.5t331.5 113.5q133 0 252 -47.5t204 -134.5l-106 -121q-67 69 -159 108.5t-191 39.5q-113 0 -207.5 -69.5t-142.5 -182.5h495v-113h-528q-6 -40 -6 -82q0 -23 4 -69h530v-113h-500q47 -117 142.5 -189.5t212.5 -72.5q103 0 199.5 44
t164.5 120l107 -123q-93 -93 -215 -145t-256 -52q-187 0 -335.5 117t-203.5 301h-170v113h148q-4 46 -4 69q0 28 4 82h-148z" />
    <glyph glyph-name="sterling.tos" horiz-adv-x="1380" 
d="M113 545v127h258v159q0 84 37 150.5t98.5 106.5t137 60.5t157.5 20.5q90 0 213 -40t231 -105l-86 -121q-94 49 -192 80t-166 31q-102 0 -178 -47t-76 -136v-159h483v-127h-483v-180q0 -104 -36 -155.5t-122 -68.5h856v-141h-1132v141h73q106 0 145.5 45t39.5 179v180
h-258z" />
    <glyph glyph-name="yen.tos" horiz-adv-x="1380" 
d="M113 649v113h315l-272 375h223l317 -453l318 453h209l-275 -375h320v-113h-402l-88 -123v-28h490v-113h-490v-385h-178v385h-487v113h487v28l-90 123h-397z" />
    <glyph glyph-name="florin.tos" horiz-adv-x="1380" 
d="M377 672h227l51 231q16 72 54.5 126t88.5 84t102 44t104 14q59 0 122 -15.5t91 -33.5l-60 -135q-19 15 -67 28t-89 13q-67 0 -117.5 -31.5t-64.5 -91.5l-53 -233h258v-127h-285l-121 -545q-20 -87 -63 -152.5t-99.5 -102.5t-117 -55t-125.5 -18v127q32 5 58 11.5t57 21.5
t54 35.5t43 54.5t30 78l120 545h-198v127z" />
    <glyph glyph-name="colonmonetary.tos" horiz-adv-x="1380" 
d="M967 1358h104l-51 -244q137 -54 244 -158l-111 -96q-64 62 -164 109l-174 -848q101 17 195.5 72t165.5 133l108 -99q-94 -104 -224.5 -174.5t-275.5 -81.5l-51 -250h-102l51 250q-97 9 -176 35l-57 -285h-105l68 328q-143 77 -225.5 214.5t-82.5 303.5q0 153 67.5 284
t190.5 215t279 101l39 191h104l-39 -187q94 -3 179 -24zM537 156q88 -38 174 -41l182 889q-86 22 -176 22h-2zM281 567q0 -108 42.5 -200.5t120.5 -155.5l164 801q-146 -37 -236.5 -161t-90.5 -284z" />
    <glyph glyph-name="franc.tos" horiz-adv-x="1380" 
d="M115 246v110h196v781h955v-158h-777v-264h476v-156h-476v-203h340v-110h-340v-246h-178v246h-196z" />
    <glyph glyph-name="lira.tos" horiz-adv-x="1380" 
d="M125 649v113h258v69q0 84 37 150.5t98.5 106.5t136 60.5t156.5 20.5q89 0 212.5 -40t229.5 -105l-86 -121q-92 49 -189.5 80t-166.5 31q-102 0 -178 -47t-76 -136v-69h483v-113h-483v-151h483v-113h-483v-20q0 -104 -35.5 -155.5t-120.5 -68.5h852v-141h-1128v141h74
q106 0 145 44.5t39 179.5v20h-258v113h258v151h-258z" />
    <glyph glyph-name="peso.tos" horiz-adv-x="1380" 
d="M68 686v111h174v340h493q219 0 340 -121q87 -97 101 -219h161v-111h-161q-12 -121 -113 -229q-62 -61 -135 -88t-191 -27h-317v-342h-178v686h-174zM938 567q49 55 59 119h-577v-186h313q82 0 124 15.5t81 51.5zM735 979h-315v-182h581q-7 59 -51 110q-37 39 -83 55.5
t-132 16.5z" />
    <glyph glyph-name="Rupee.tos" horiz-adv-x="1380" 
d="M82 686v111h864q-9 60 -51 110q-32 37 -79.5 54.5t-127.5 17.5h-606v158h1249v-111h-354q125 -74 145 -229h209v-111h-209q-14 -131 -112 -229q-62 -52 -134.5 -75.5t-193.5 -23.5l-254 11l625 -369h-324l-647 391v109h598q78 0 124 15t81 52q50 50 61 119h-864z" />
    <glyph glyph-name="section.tos" horiz-adv-x="1380" 
d="M1169 193q-53 -56 -137 -89q18 -11 35 -41q27 -43 27 -106q0 -60 -25.5 -108.5t-66.5 -79.5t-95.5 -52t-110 -30t-112.5 -9q-106 0 -212 28.5t-183 78.5l76 121q142 -86 321 -86q37 0 73.5 6t74 19.5t61 41t23.5 66.5t-21 57q-13 14 -31.5 23t-52 16t-49.5 9.5t-67 7.5
t-62 6q-317 38 -438 157q-84 84 -84 207q0 126 92 221q45 51 131 91q-22 19 -29 34q-26 50 -26 113q0 60 25 108.5t65.5 79.5t94.5 52t110 30t114 9q105 0 210.5 -28.5t184.5 -78.5l-77 -121q-63 39 -148.5 62.5t-171.5 23.5q-36 0 -71 -5.5t-74.5 -18.5t-63.5 -41t-24 -68
q0 -35 22 -57q14 -13 32.5 -22.5t51 -16t50 -9.5t66.5 -8.5t62 -7.5q317 -33 439 -157q84 -84 84 -205q0 -127 -93 -223zM737 627q-4 0 -33.5 3t-38.5 3.5t-37 3.5t-41 5.5t-37.5 6.5t-41 7.5t-36 9.5t-36.5 12q-52 -25 -76 -55q-71 -68 -71 -164q0 -81 53 -131
q76 -78 293 -103q1 0 30 -2.5t34 -3t32 -3.5t36.5 -4.5t33 -4.5t36 -6t32 -7t35 -9t30.5 -11q49 22 78 53q73 73 73 166q0 76 -53 129q-78 80 -295 105z" />
    <glyph glyph-name="numbersign.tos" horiz-adv-x="1380" 
d="M920 1235h131l-54 -367h312v-125h-330l-57 -389h297v-127h-316l-59 -420h-131l59 420h-266l-60 -420h-131l60 420h-307v127h325l58 389h-293v125h311l53 367h131l-53 -367h266zM582 743l-58 -389h267l57 389h-266z" />
    <glyph glyph-name="percent.tos" horiz-adv-x="1380" 
d="M47 889q0 143 78 245.5t188 102.5q109 0 189 -103t80 -245q0 -144 -80 -247t-189 -103q-110 0 -188 102.5t-78 247.5zM1008 1210l-488 -1210h-141l489 1210h140zM182 889q0 -89 38 -152t93 -63q54 0 93.5 63.5t39.5 151.5q0 87 -39.5 150t-93.5 63q-55 0 -93 -62.5
t-38 -150.5zM805 324q0 140 78 244t186 104q109 0 189.5 -104t80.5 -244q0 -145 -80 -248t-190 -103q-109 0 -186.5 102.5t-77.5 248.5zM940 324q0 -90 37.5 -154t91.5 -64q55 0 94 64t39 154q0 88 -39 150.5t-94 62.5q-54 0 -91.5 -62.5t-37.5 -150.5z" />
    <glyph glyph-name="zero.pl" horiz-adv-x="1697" 
d="M131 629q0 135 57.5 257.5t154 211t229 140.5t276.5 52t277 -52t230.5 -140.5t155.5 -211t58 -257.5q0 -182 -98 -335t-264 -241t-359 -88t-358 88t-262 241t-97 335zM309 629q0 -138 72 -254.5t196 -184t271 -67.5q146 0 271.5 67.5t199.5 184t74 254.5q0 136 -74 252
t-199.5 184t-271.5 68q-147 0 -271 -68t-196 -184t-72 -252z" />
    <glyph glyph-name="one.pl" horiz-adv-x="882" 
d="M78 944l-39 141l407 170h177v-1255h-177v1096z" />
    <glyph glyph-name="one.pl.alt" horiz-adv-x="696" 
d="M260 0v1255h176v-1255h-176z" />
    <glyph glyph-name="two.pl" horiz-adv-x="1402" 
d="M270 950l-104 125q72 52 118.5 81.5t119 65t154 52t175.5 16.5q102 0 193.5 -20.5t167.5 -61t121 -109t45 -155.5q0 -75 -35.5 -137.5t-76 -99.5t-123 -73.5t-124 -49.5t-131.5 -38q-34 -10 -49 -14q-90 -24 -156.5 -52.5t-125.5 -71t-90.5 -103.5t-31.5 -139v-23h922
v-143h-1098v150q0 392 572 538q6 2 36.5 9.5t44.5 11.5t46.5 14t50.5 17.5t47 20.5t46.5 25t38.5 29.5t32.5 35.5t19.5 41t8 48q0 66 -52.5 111t-127.5 63.5t-166 18.5q-145 0 -250.5 -47t-216.5 -136z" />
    <glyph glyph-name="three.pl" horiz-adv-x="1587" 
d="M725 594v141h252q68 0 133.5 51t65.5 134q0 56 -33 99t-86 66.5t-112 35.5t-120 12q-257 0 -499 -205l-109 108q294 254 612 254q88 0 175.5 -19t168 -57.5t131 -107.5t50.5 -158q0 -95 -53 -163.5t-119 -94.5q34 -7 68.5 -19.5t73.5 -37t68 -57t48.5 -82.5t19.5 -109
q0 -131 -91.5 -227.5t-244 -144.5t-344.5 -48q-413 0 -686 250l107 125q241 -217 579 -217q142 0 255 31t181 94t68 149q0 56 -31.5 97.5t-80.5 61.5t-94.5 29t-86.5 9h-266z" />
    <glyph glyph-name="four.pl" horiz-adv-x="1626" 
d="M1528 438v-141h-258v-297h-176v297h-1016v127l1026 831h166v-817h258zM338 446v-8h756v592h-23z" />
    <glyph glyph-name="five.pl" horiz-adv-x="1521" 
d="M1268 1255v-157h-873v-371q100 60 197.5 88.5t238.5 28.5q111 0 211.5 -24.5t182.5 -73t131 -129t49 -183.5q0 -123 -57 -216.5t-153 -147t-209 -79.5t-238 -26q-363 0 -648 225l107 125q228 -192 541 -192q92 0 174.5 17t153 52t112 96.5t41.5 143.5q0 88 -59 149
t-147 87t-196 26q-145 0 -256 -35.5t-227 -99.5l-111 80v616h1035z" />
    <glyph glyph-name="six.pl" horiz-adv-x="1562" 
d="M1370 1133l-106 -123q-164 123 -400 123q-109 0 -209 -34.5t-179 -97.5t-127 -159.5t-52 -212.5q287 190 594 190q135 0 243 -35.5t173 -94t99 -127.5t34 -142q0 -191 -170 -323t-428 -132q-110 0 -212.5 25.5t-192.5 79t-157.5 128.5t-106 180t-38.5 228q0 157 60 287.5
t161.5 216.5t233 133t276.5 47q291 0 504 -157zM874 678q-264 0 -567 -180q26 -120 106.5 -206.5t191.5 -127.5t241 -41q177 0 296.5 90t119.5 209q0 45 -22.5 88.5t-67 82t-122 62t-176.5 23.5z" />
    <glyph glyph-name="seven.pl" horiz-adv-x="1374" 
d="M92 1098v157h1178v-157l-748 -1098h-231l774 1098h-973z" />
    <glyph glyph-name="eight.pl" horiz-adv-x="1562" 
d="M780 -39q-166 0 -312.5 45.5t-243.5 138.5t-97 215q0 71 31.5 130.5t85 100t118.5 67t138 38.5q-136 20 -209.5 87t-73.5 175q0 66 34.5 122.5t91.5 95t131 66t151.5 40t154.5 12.5t154.5 -12.5t151.5 -40t131 -66t91.5 -95t34.5 -122.5q0 -109 -72 -175.5t-212 -86.5
q74 -12 139 -38.5t119 -67t85.5 -100t31.5 -130.5q0 -92 -56.5 -169t-149.5 -126.5t-209 -76.5t-239 -27zM780 119q116 0 218.5 28t172.5 88t70 140q0 61 -42 110.5t-110.5 79t-148 45t-160.5 15.5q-80 0 -159.5 -15.5t-148 -45t-111 -79t-42.5 -110.5q0 -80 70.5 -140
t173 -88t217.5 -28zM780 756q179 0 275 48t96 138q0 68 -59.5 117.5t-141.5 71.5t-170 22t-170 -22t-141 -71.5t-59 -117.5q0 -90 96 -138t274 -48z" />
    <glyph glyph-name="nine.pl" horiz-adv-x="1558" 
d="M188 123l109 123q161 -123 399 -123q109 0 209 34t178 96.5t126.5 159t52.5 212.5q-286 -189 -592 -189q-109 0 -201.5 23.5t-155.5 63t-107 91.5t-64.5 108t-20.5 114q0 191 169 322.5t427 131.5q111 0 214 -25.5t192.5 -79t156 -128.5t105 -180t38.5 -228
q0 -157 -60 -287.5t-161.5 -216.5t-233 -133t-276.5 -47q-283 0 -504 158zM684 578q266 0 565 178q-37 180 -186 278.5t-348 98.5q-178 0 -298 -90t-120 -209q0 -45 22.5 -89t67.5 -82t122 -61.5t175 -23.5z" />
    <glyph glyph-name="dollar.pl" horiz-adv-x="1423" 
d="M657 1501h121v-219q154 -16 283.5 -68t210.5 -114l-103 -117q-61 53 -161 95.5t-230 56.5v-387q56 -3 103 -8t106.5 -16.5t106 -28t93.5 -45t78 -65t50.5 -90t19.5 -118.5q0 -104 -44 -184t-121.5 -128.5t-176 -73t-215.5 -26.5v-272h-121v278q-336 31 -581 252l100 115
q212 -190 481 -219v475q-72 5 -127.5 12.5t-118 21.5t-107 37.5t-82.5 57t-57.5 83.5t-19.5 114q0 82 31.5 147t81.5 105.5t118.5 67.5t137.5 38t143 12v211zM1169 354q0 63 -30 107.5t-88 69t-121 36.5t-152 19v-473q112 2 197.5 27t139.5 80t54 134zM313 934
q0 -162 344 -180v389h-2q-69 0 -127 -10.5t-108 -33.5t-78.5 -65t-28.5 -100z" />
    <glyph glyph-name="cent.pl" horiz-adv-x="1216" 
d="M717 1192h119l-48 -219q168 -35 295 -139l-108 -111q-92 77 -217 106l-152 -714h29q190 0 346 143l111 -102q-20 -23 -54 -49.5t-91 -59.5t-139.5 -54.5t-172.5 -21.5q-39 0 -57 2l-60 -280h-121l64 303q-164 47 -266.5 176.5t-102.5 310.5q0 224 153.5 366t377.5 142
q33 0 51 -2zM270 483q0 -122 61 -212t161 -130l151 707h-20q-150 0 -251.5 -101.5t-101.5 -263.5z" />
    <glyph glyph-name="Euro.pl" horiz-adv-x="1654" 
d="M117 725v111h207q68 201 244.5 327.5t398.5 126.5q160 0 302.5 -52.5t246.5 -147.5l-109 -123q-85 78 -199.5 122t-240.5 44q-150 0 -273 -82t-184 -215h631v-111h-666q-8 -41 -8 -96q0 -43 6 -84h668v-113h-635q59 -139 183.5 -224t277.5 -85q130 0 249.5 49t208.5 135
l109 -123q-113 -104 -259 -161.5t-308 -57.5q-224 0 -402 131t-243 336h-205v113h178q-4 54 -4 84q0 47 6 96h-180z" />
    <glyph glyph-name="sterling.pl" horiz-adv-x="1540" 
d="M135 608v129h295v183q0 92 41.5 165t110.5 116.5t152 66t173 22.5q99 0 236 -43.5t256 -113.5l-88 -123q-102 54 -214 88.5t-190 34.5q-76 0 -142 -21.5t-111.5 -71.5t-45.5 -120v-183h551v-129h-551v-211q0 -118 -39.5 -176t-132.5 -78h961v-143h-1262v143h82
q83 0 126.5 19.5t65 74t21.5 160.5v211h-295z" />
    <glyph glyph-name="yen.pl" horiz-adv-x="1636" 
d="M143 725v111h387l-333 419h223l405 -512l402 512h209l-334 -419h391v-111h-477l-111 -139v-41h588v-113h-588v-432h-176v432h-586v113h586v41l-111 139h-475z" />
    <glyph glyph-name="florin.pl" horiz-adv-x="862" 
d="M102 737h238l55 256q14 64 44 116.5t67.5 85.5t82.5 55.5t88.5 32t86.5 9.5q64 0 130 -18t95 -41l-61 -135q-21 19 -72 35t-94 16q-73 0 -129 -39.5t-74 -116.5l-55 -256h274v-129h-301l-129 -608q-20 -96 -65.5 -168t-104.5 -112.5t-122.5 -60t-129.5 -19.5v129
q34 5 62 12.5t61 24.5t57.5 41t45.5 63.5t32 89.5l129 608h-211v129z" />
    <glyph glyph-name="colonmonetary.pl" horiz-adv-x="1505" 
d="M1073 1501h107l-58 -268q161 -62 279 -174l-113 -98q-88 79 -196 124l-205 -968q120 16 230.5 78t197.5 151l108 -100q-109 -114 -257.5 -190.5t-311.5 -86.5l-57 -276h-107l58 276q-103 9 -205 41l-68 -317h-106l75 358q-166 87 -261 239.5t-95 336.5q0 257 174.5 445
t444.5 216l45 213h106l-45 -209q105 -3 209 -28zM573 160q92 -41 205 -47l213 1007q-98 25 -203 25h-6zM266 627q0 -127 55.5 -235t155.5 -179l197 920q-180 -38 -294 -179.5t-114 -326.5z" />
    <glyph glyph-name="franc.pl" horiz-adv-x="1415" 
d="M96 285v112h213v858h1026v-157h-848v-312h521v-157h-521v-232h369v-112h-369v-285h-178v285h-213z" />
    <glyph glyph-name="lira.pl" horiz-adv-x="1550" 
d="M150 725v111h294v84q0 92 41.5 165t110.5 116.5t152.5 66t173.5 22.5q99 0 235.5 -43.5t255.5 -113.5l-88 -123q-100 54 -212.5 88.5t-190.5 34.5q-76 0 -142 -21.5t-111.5 -71.5t-45.5 -120v-84h551v-111h-551v-180h551v-113h-551v-35q0 -118 -39 -176t-133 -78h960
v-143h-1261v143h81q84 0 127.5 19.5t64.5 74t21 160.5v35h-294v113h294v180h-294z" />
    <glyph glyph-name="peso.pl" horiz-adv-x="1732" 
d="M100 772v111h213v372h666q118 0 204.5 -29.5t153.5 -99.5q92 -102 107 -243h194v-111h-192q-16 -147 -125 -256q-66 -63 -140.5 -91t-201.5 -28h-490v-397h-176v772h-213zM979 1098h-490v-215h777q-11 75 -60 133q-76 82 -227 82zM1198 633q53 53 68 139h-777v-215h488
q142 0 221 76z" />
    <glyph glyph-name="peseta.pl" horiz-adv-x="3201" 
d="M393 0h-178v1255h698q123 0 210 -29.5t153 -97.5q74 -77 94 -167h182v290h162v-290h289v-127h-289v-596q0 -65 37.5 -97t99.5 -32q36 0 85.5 9t72.5 21l19 -127q-27 -19 -90 -33t-115 -14q-51 0 -96.5 14.5t-86 44.5t-64.5 85.5t-24 128.5v596h-176q-14 -121 -108 -211
q-122 -119 -355 -119h-520v-504zM3021 877l-64 -125q-59 38 -160 72t-200 34q-96 0 -164 -35.5t-68 -105.5q0 -28 11.5 -49.5t34 -35t47 -22.5t59 -14t59.5 -7t60 -3q38 -2 60.5 -3.5t64 -6t68 -10t64.5 -17t62.5 -25.5t52 -36t43.5 -49t26.5 -64t10.5 -80
q0 -108 -61.5 -183t-160.5 -109t-228 -34q-253 0 -471 150l63 123q45 -29 78 -47t87.5 -42t115.5 -36.5t127 -12.5q126 0 207.5 46t81.5 129q0 32 -12.5 57t-38 40.5t-50.5 25.5t-63.5 16t-63.5 8t-63 4q-43 3 -68 4.5t-66.5 6.5t-67 10.5t-61 16t-57 24t-45.5 33t-37.5 44
t-22.5 57.5t-9 72q0 65 23.5 117t62 85t90.5 55t105 31t110 9q123 0 241 -37t187 -81zM913 1098h-520v-434h520q152 0 226 71q63 60 63 146q0 82 -59 141q-76 76 -230 76z" />
    <glyph glyph-name="rupiah.pl" horiz-adv-x="2742" 
d="M395 0h-178v1255h713q241 0 368 -127q97 -104 97 -237q0 -126 -81 -221t-216 -129l313 -541h-203l-293 522h-520v-522zM930 1098h-535v-418h580q103 0 172.5 62t69.5 149q0 74 -54 131q-79 76 -233 76zM1825 -430h-164v1143q0 151 -23 250h152q20 -70 20 -144
q57 70 148 121t207 51q125 0 232 -62.5t173 -180.5t66 -267q0 -113 -39.5 -209.5t-105.5 -162t-153.5 -102t-183.5 -36.5q-190 0 -329 158v-559zM1825 698v-436q61 -63 140.5 -105t164.5 -42q139 0 232.5 101t93.5 265q0 163 -91.5 265t-228.5 102q-92 0 -175 -46.5
t-136 -103.5z" />
    <glyph glyph-name="Rupee.pl" horiz-adv-x="1701" 
d="M250 772v111h946q-12 79 -59 133q-76 82 -226 82h-659v157h1317v-112h-359q143 -87 164 -260h195v-111h-193q-13 -148 -125 -256q-62 -55 -140 -78.5t-202 -23.5l-319 12l719 -426h-322l-735 442v115h655q145 0 221 76q54 57 68 139h-946z" />
    <glyph glyph-name="section.pl" horiz-adv-x="1439" 
d="M1255 211q-61 -58 -163 -100q22 -15 45 -45q30 -52 30 -117q0 -80 -41.5 -141t-110 -94.5t-144 -49.5t-156.5 -16q-118 0 -236 31.5t-207 87.5l78 122q72 -45 169.5 -72.5t195.5 -27.5q45 0 88.5 7t87.5 23.5t71 49t27 76.5q0 46 -24 67q-15 15 -36.5 25.5t-59 18
t-59.5 10.5t-78.5 9.5t-74.5 8.5q-346 36 -485 172q-96 93 -96 229q0 140 100 240q52 58 162 104q-24 18 -39 39q-33 58 -33 125q0 80 41.5 141t110 94.5t144.5 49.5t157 16q119 0 236 -31.5t206 -88.5l-78 -121q-72 45 -170 72.5t-194 27.5q-43 0 -86 -6.5t-88.5 -22.5
t-74 -49t-28.5 -78q0 -39 27 -69q11 -10 26 -18.5t37.5 -14.5t37.5 -10.5t48.5 -9t47 -6t55.5 -6t53 -5.5q351 -35 490 -176q94 -91 94 -225q0 -140 -103 -246zM772 705q-3 0 -59 5.5t-74.5 8t-62.5 9t-75 15t-59 19.5q-64 -26 -108 -70q-82 -82 -82 -186q0 -93 63 -150
q90 -90 347 -118q12 -1 61 -6.5t72.5 -8.5t63 -9.5t71 -14.5t59.5 -19q61 23 109 68q82 82 82 188q3 85 -60 148q-93 93 -348 121z" />
    <glyph glyph-name="numbersign.pl" horiz-adv-x="1845" 
d="M1253 1364h133l-71 -408h438v-129h-461l-78 -442h418v-129h-440l-82 -469h-133l82 469h-404l-82 -469h-133l82 469h-434v129h457l78 442h-414v129h436l72 408h133l-72 -408h404zM756 827l-78 -442h403l78 442h-403z" />
    <glyph glyph-name="percent.pl" horiz-adv-x="2174" 
d="M90 981q0 158 120.5 271.5t291.5 113.5q170 0 294 -114t124 -271q0 -159 -123.5 -273t-294.5 -114t-291.5 113.5t-120.5 273.5zM1538 1337l-758 -1337h-143l760 1337h141zM244 981q0 -102 75.5 -176t182.5 -74q109 0 187.5 74.5t78.5 175.5q0 103 -78.5 176.5
t-187.5 73.5q-107 0 -182.5 -73.5t-75.5 -176.5zM1255 358q0 158 120.5 271.5t291.5 113.5q170 0 294 -114t124 -271q0 -159 -123.5 -273t-294.5 -114t-291.5 113.5t-120.5 273.5zM1407 358q0 -103 76.5 -177.5t183.5 -74.5t185.5 74.5t78.5 177.5q0 101 -78.5 174.5
t-185.5 73.5t-183.5 -73.5t-76.5 -174.5z" />
    <glyph glyph-name="perthousand.pl" horiz-adv-x="3100" 
d="M92 981q0 158 120.5 271.5t291.5 113.5q170 0 294 -114t124 -271q0 -159 -123.5 -273t-294.5 -114t-291.5 113.5t-120.5 273.5zM1538 1337l-758 -1337h-141l758 1337h141zM244 981q0 -102 76.5 -176t183.5 -74t185.5 74.5t78.5 175.5q0 102 -78 176t-186 74
q-107 0 -183.5 -73.5t-76.5 -176.5zM1255 358q0 158 120.5 271.5t291.5 113.5q170 0 294 -114t124 -271q0 -159 -123.5 -273t-294.5 -114t-291.5 113.5t-120.5 273.5zM1409 358q0 -103 75.5 -177.5t182.5 -74.5q108 0 186 74.5t78 177.5q0 101 -77.5 174.5t-186.5 73.5
q-107 0 -182.5 -73t-75.5 -175zM2191 358q0 158 120.5 271.5t291.5 113.5q170 0 294 -114t124 -271q0 -159 -123.5 -273t-294.5 -114t-291.5 113.5t-120.5 273.5zM2345 358q0 -103 75.5 -177.5t182.5 -74.5q109 0 187.5 74.5t78.5 177.5q0 101 -78.5 174.5t-187.5 73.5
q-107 0 -182.5 -73t-75.5 -175z" />
    <glyph glyph-name="zero.tl" horiz-adv-x="1570" 
d="M115 629q0 180 90 332.5t243.5 240.5t333.5 88q181 0 336 -88t246.5 -240.5t91.5 -332.5q0 -182 -91.5 -335t-246.5 -241t-336 -88q-180 0 -333.5 88t-243.5 241t-90 335zM291 629q0 -138 66 -254.5t179 -184t246 -67.5q134 0 248.5 67.5t182 184t67.5 254.5
q0 136 -67.5 252t-182 184t-248.5 68q-133 0 -246 -68t-179 -184t-66 -252z" />
    <glyph glyph-name="one.tl" horiz-adv-x="1570" 
d="M279 0v143h526v953l-518 -146l-41 144l559 161h176v-1112h432v-143h-1134z" />
    <glyph glyph-name="two.tl" horiz-adv-x="1570" 
d="M301 950l-104 125q78 52 129.5 81.5t131 65t169 52t192.5 16.5q89 0 171.5 -12.5t158 -40t131 -67t88.5 -98t33 -128.5q0 -76 -39 -138.5t-84.5 -99.5t-136.5 -73.5t-138.5 -49.5t-146.5 -38q-35 -9 -51 -13q-81 -19 -144.5 -40t-125.5 -52.5t-103 -69t-66.5 -89.5
t-25.5 -115v-23h1040v-143h-1216v150q0 391 631 538q167 36 235 61q194 73 195 191q0 50 -34.5 88.5t-93 60.5t-128 33t-146.5 11q-162 0 -280.5 -47.5t-241.5 -135.5z" />
    <glyph glyph-name="three.tl" horiz-adv-x="1570" 
d="M717 594v141h250q66 0 130 51t64 134q0 56 -32 99t-84.5 66.5t-110 35.5t-117.5 12q-137 0 -264 -57.5t-231 -147.5l-109 108q290 254 606 254q69 0 138.5 -11t138.5 -37.5t122 -65t86 -97.5t33 -131q0 -96 -51.5 -164.5t-116.5 -93.5q44 -9 87 -28t88.5 -53.5
t73.5 -92.5t28 -131q0 -131 -90.5 -227.5t-242 -144.5t-343.5 -48q-407 0 -680 250l109 125q113 -103 250.5 -160t320.5 -57q141 0 252.5 31t178.5 94t67 149q0 46 -21.5 82t-53.5 57t-73 34.5t-75.5 18.5t-65.5 5h-262z" />
    <glyph glyph-name="four.tl" horiz-adv-x="1570" 
d="M1477 438v-141h-248v-297h-178v297h-979v127l991 831h166v-817h248zM332 446v-8h719v592h-23z" />
    <glyph glyph-name="five.tl" horiz-adv-x="1570" 
d="M1307 1255v-157h-904v-371q105 60 206.5 88.5t246.5 28.5q114 0 217 -24.5t188 -73t135 -129t50 -183.5q0 -99 -39 -179.5t-104 -133.5t-153 -89t-182.5 -51.5t-197.5 -15.5q-374 0 -664 225l109 125q234 -192 557 -192q95 0 180.5 17t158.5 52t116 96.5t43 143.5
q0 88 -61.5 149t-153 87t-203.5 26q-149 0 -263.5 -35.5t-234.5 -99.5l-112 80v616h1065z" />
    <glyph glyph-name="six.tl" horiz-adv-x="1570" 
d="M1376 1133l-106 -123q-164 123 -404 123q-108 0 -208 -34.5t-179 -97.5t-127.5 -159.5t-52.5 -212.5q287 190 596 190q136 0 244.5 -35.5t173.5 -94t99 -127.5t34 -142q0 -191 -170.5 -323t-429.5 -132q-111 0 -214 25.5t-193 79t-157.5 128.5t-106 180t-38.5 228
q0 157 60.5 287.5t162 216.5t233.5 133t277 47q100 0 187 -16.5t152.5 -46.5t97.5 -49t69 -45zM879 678q-268 0 -570 -180q26 -120 107 -206.5t192 -127.5t242 -41q178 0 298 90t120 209q0 45 -22.5 89t-67.5 82t-122.5 61.5t-176.5 23.5z" />
    <glyph glyph-name="seven.tl" horiz-adv-x="1570" 
d="M115 1098v157h1325v-157l-854 -1098h-232l883 1098h-1122z" />
    <glyph glyph-name="eight.tl" horiz-adv-x="1570" 
d="M786 -39q-124 0 -241 27t-210 76.5t-149.5 126.5t-56.5 169q0 71 31.5 130.5t86 100t119.5 67t138 38.5q-137 20 -211 87t-74 175q0 82 52.5 148.5t137 106t182 60.5t195.5 21q77 0 155 -12.5t152 -40t131.5 -66t92.5 -95t35 -122.5q0 -108 -73.5 -175t-213.5 -87
q75 -12 141 -38.5t120.5 -67t86 -100t31.5 -130.5q0 -92 -56.5 -169t-150.5 -126.5t-210.5 -76.5t-240.5 -27zM786 119q116 0 219.5 28t174.5 88t71 140q0 61 -43 110.5t-112 79t-149 45t-161 15.5q-82 0 -162 -15.5t-148.5 -45t-111 -79t-42.5 -110.5q0 -80 70 -140
t173.5 -88t220.5 -28zM786 756q179 0 276 48t97 138q0 51 -34.5 93t-90 66.5t-120 38t-128.5 13.5q-89 0 -172 -22t-142.5 -71.5t-59.5 -117.5q0 -90 96.5 -138t277.5 -48z" />
    <glyph glyph-name="nine.tl" horiz-adv-x="1570" 
d="M190 123l109 123q164 -123 401 -123q88 0 170.5 21.5t154 64t125.5 102t86.5 140.5t35.5 174q-290 -189 -598 -189q-136 0 -245 35.5t-174.5 94t-99.5 128t-34 142.5q0 191 170 322.5t430 131.5q111 0 215 -25.5t194.5 -79t158 -128.5t106.5 -180t39 -228
q0 -157 -61 -287.5t-163 -216.5t-235 -133t-279 -47q-285 0 -506 158zM688 578q273 0 572 178q-26 121 -107.5 208t-192.5 128t-241 41q-180 0 -301 -90t-121 -209q0 -45 22.5 -88.5t67.5 -82t123 -62t178 -23.5z" />
    <glyph glyph-name="dollar.tl" horiz-adv-x="1570" 
d="M723 1501h121v-217q166 -17 305 -69.5t225 -114.5l-102 -117q-69 54 -177.5 97t-250.5 57v-389q61 -3 111 -7.5t115 -16t115 -28t101.5 -45t85 -65t55 -90.5t21.5 -119q0 -105 -48 -185t-132.5 -128.5t-191 -72.5t-232.5 -26v-272h-121v276q-359 28 -625 254l101 115
q232 -192 524 -221v475q-78 6 -137 13.5t-127 22t-115.5 38t-88.5 57t-62 83.5t-21 114q0 82 34 147t88.5 106t128 68t147.5 38t153 11v211zM1280 354q0 43 -16 77.5t-47 58.5t-68.5 41t-90.5 27.5t-102 17t-112 10.5v-473q192 2 314 62.5t122 178.5zM340 934
q0 -35 16 -63.5t47 -47t65.5 -31.5t82 -20.5t86 -11.5t86.5 -6v389h-4q-74 0 -138.5 -10.5t-120 -33.5t-88 -65.5t-32.5 -99.5z" />
    <glyph glyph-name="cent.tl" horiz-adv-x="1570" 
d="M930 1192h123l-58 -217q217 -37 369 -141l-109 -111q-123 81 -297 111l-190 -717q16 -2 53 -2q147 0 261 42t186 101l112 -102q-24 -23 -66 -49.5t-111.5 -59.5t-170.5 -54.5t-211 -21.5q-30 0 -92 4l-74 -282h-123l80 303q-205 46 -333.5 175.5t-128.5 311.5
q0 149 89 266t238 179.5t330 62.5q11 0 34 -1t36 -1zM330 483q0 -127 88 -218.5t231 -129.5l189 713h-31q-202 0 -339.5 -101.5t-137.5 -263.5z" />
    <glyph glyph-name="Euro.tl" horiz-adv-x="1570" 
d="M111 725v111h194q64 200 231 327t377 127q152 0 286.5 -52.5t234.5 -147.5l-109 -123q-78 78 -186 122t-226 44q-137 0 -250.5 -82t-168.5 -215h585v-111h-618q-8 -41 -8 -96q0 -43 6 -84h620v-113h-592q53 -138 169 -223.5t257 -85.5q123 0 235 49t195 135l109 -123
q-109 -104 -246.5 -161.5t-292.5 -57.5q-213 0 -381 131t-229 336h-192v113h168q-5 68 -5 84q0 38 7 96h-170z" />
    <glyph glyph-name="sterling.tl" horiz-adv-x="1570" 
d="M141 608v129h299v183q0 92 42 165t112 116.5t154.5 66t175.5 22.5q99 0 236.5 -43.5t258.5 -113.5l-88 -123q-102 54 -215 88.5t-192 34.5q-77 0 -144.5 -21.5t-114.5 -71.5t-47 -120v-183h560v-129h-560v-211q0 -118 -40 -176t-134 -78h973v-143h-1276v143h84
q84 0 128 19.5t65.5 74t21.5 160.5v211h-299z" />
    <glyph glyph-name="yen.tl" horiz-adv-x="1570" 
d="M143 725v111h365l-318 419h226l377 -512l376 512h209l-317 -419h369v-111h-453l-105 -139v-41h558v-113h-558v-432h-176v432h-553v113h553v41l-106 139h-447z" />
    <glyph glyph-name="florin.tl" horiz-adv-x="1570" 
d="M457 737h237l56 256q14 64 43.5 116.5t66.5 85.5t82 55.5t88 32t86 9.5q64 0 130 -18t95 -41l-61 -135q-21 19 -72 35t-94 16q-72 0 -127.5 -39t-73.5 -117l-55 -256h275v-129h-304l-129 -608q-21 -96 -65.5 -168t-103.5 -112.5t-122 -60t-130 -19.5v129q217 30 260 231
l129 608h-211v129z" />
    <glyph glyph-name="colonmonetary.tl" horiz-adv-x="1570" 
d="M1118 1501h105l-60 -268q163 -57 289 -174l-113 -98q-88 79 -206 126l-211 -970q125 16 240 78t206 151l109 -100q-114 -114 -266.5 -190.5t-321.5 -86.5l-60 -276h-108l59 276q-105 8 -213 41l-69 -317h-107l78 358q-171 85 -270 238t-99 338q0 258 179.5 445.5
t459.5 215.5l47 213h107l-47 -209q109 -3 219 -28zM600 160q103 -44 213 -47l221 1005q-115 27 -211 27h-8zM276 627q0 -128 60.5 -238t167.5 -180l203 924q-189 -37 -310 -178.5t-121 -327.5z" />
    <glyph glyph-name="franc.tl" horiz-adv-x="1570" 
d="M109 285v112h235v858h1131v-157h-953v-312h588v-157h-588v-232h408v-112h-408v-285h-178v285h-235z" />
    <glyph glyph-name="lira.tl" horiz-adv-x="1570" 
d="M160 725v111h295v84q0 92 41 165t110.5 116.5t153 66t174.5 22.5q97 0 233.5 -43.5t257.5 -113.5l-90 -123q-100 54 -212.5 88.5t-188.5 34.5q-77 0 -144 -21.5t-113 -71.5t-46 -120v-84h553v-111h-553v-180h553v-113h-553v-35q0 -118 -39 -176t-131 -78h962v-143h-1263
v143h82q83 0 126.5 19.5t65 74t21.5 160.5v35h-295v113h295v180h-295z" />
    <glyph glyph-name="peso.tl" horiz-adv-x="1570" 
d="M76 772v111h198v372h588q119 0 206.5 -29.5t154.5 -99.5q89 -98 104 -243h184v-111h-182q-16 -149 -123 -256q-68 -63 -142.5 -91t-201.5 -28h-409v-397h-179v772h-198zM862 1098h-409v-215h698q-12 78 -61 133q-76 82 -228 82zM1081 633q55 55 70 139h-698v-215h409
q140 0 219 76z" />
    <glyph glyph-name="Rupee.tl" horiz-adv-x="1570" 
d="M152 772v111h946q-11 78 -60 133q-76 82 -225 82h-659v157h1316v-112h-358q141 -86 162 -260h196v-111h-194q-13 -146 -123 -256q-62 -55 -140 -78.5t-202 -23.5l-319 12l718 -426h-323l-733 442v115h655q145 0 221 76q54 57 68 139h-946z" />
    <glyph glyph-name="section.tl" horiz-adv-x="1570" 
d="M1350 211q-65 -57 -179 -100q33 -22 50 -45q34 -53 34 -117q0 -80 -43.5 -141t-116 -94.5t-152.5 -49.5t-165 -16q-123 0 -246 31.5t-219 87.5l78 122q79 -45 182.5 -72.5t206.5 -27.5q48 0 95.5 7t95 23.5t77 49t29.5 76.5q0 43 -24 67q-17 15 -41 25.5t-64.5 18
t-64 10.5t-84.5 9.5t-80 8.5q-366 35 -510 172q-103 92 -103 229q0 138 105 240q59 59 178 104q-30 18 -45 39q-35 53 -35 125q0 80 43.5 141t115 94.5t151 49.5t163.5 16q126 0 250 -31.5t219 -88.5l-77 -121q-78 45 -183 72.5t-209 27.5q-46 0 -92 -6.5t-94.5 -22.5
t-78.5 -48.5t-30 -78.5q0 -42 27 -69q12 -10 28 -18.5t40 -14.5t41.5 -10.5t52 -9t50.5 -6t59 -6t57 -5.5q370 -34 516 -176q98 -88 98 -225q0 -145 -106 -246zM840 705q-11 1 -53 5t-61.5 6t-58 6.5t-63 9.5t-55.5 13t-55 17q-76 -27 -125 -70q-86 -80 -86 -186
q0 -92 67 -150q97 -90 373 -118q6 -1 65 -7t78 -8.5t64 -9t76.5 -14.5t60.5 -19q72 23 125 68q88 82 88 188q3 86 -66 148q-98 94 -374 121z" />
    <glyph glyph-name="numbersign.tl" horiz-adv-x="1570" 
d="M1061 1364h133l-61 -408h370v-129h-391l-68 -442h355v-129h-373l-72 -469h-131l70 469h-330l-69 -469h-134l72 469h-369v129h388l67 442h-350v129h371l61 408h131l-61 -408h329zM649 827l-65 -442h329l66 442h-330z" />
    <glyph glyph-name="percent.tl" horiz-adv-x="1570" 
d="M33 981q0 158 90.5 271.5t218.5 113.5q129 0 221 -114t92 -271q0 -160 -92 -273.5t-221 -113.5t-219 113.5t-90 273.5zM1141 1337l-570 -1337h-141l571 1337h140zM170 981q0 -101 51.5 -175.5t120.5 -74.5q72 0 125 74.5t53 175.5q0 102 -53 176t-125 74
q-69 0 -120.5 -74t-51.5 -176zM913 358q0 158 91 271.5t219 113.5q129 0 221 -114t92 -271q0 -160 -92 -273.5t-221 -113.5t-219.5 113.5t-90.5 273.5zM1051 358q0 -103 51 -177.5t121 -74.5q72 0 125 74.5t53 177.5q0 101 -53 174.5t-125 73.5q-70 0 -121 -73.5t-51 -174.5
z" />
    <glyph glyph-name="zero.numerator" horiz-adv-x="1183" 
d="M82 895q0 128 69 237t186 171.5t253 62.5q138 0 255.5 -62.5t187 -171t69.5 -237.5t-69.5 -238.5t-187 -172t-255.5 -62.5q-136 0 -253 62.5t-186 172t-69 238.5zM236 895q0 -138 103.5 -236t250.5 -98t252.5 98t105.5 236q0 136 -106 234t-252 98q-147 0 -250.5 -97.5
t-103.5 -234.5z" />
    <glyph glyph-name="one.numerator" horiz-adv-x="632" 
d="M49 1096l-35 125l279 116h156v-886h-156v747z" />
    <glyph glyph-name="two.numerator" horiz-adv-x="974" 
d="M193 1098l-93 108q53 39 85.5 60t86 48.5t111.5 39.5t125 12q99 0 181.5 -25t139 -83.5t56.5 -141.5q0 -31 -7.5 -58.5t-19 -49t-31.5 -42t-37.5 -35t-46 -29.5t-48 -23.5t-52.5 -20t-50 -16.5t-49.5 -14.5t-43.5 -12.5q-57 -16 -98.5 -33.5t-79 -44t-57 -64.5t-19.5 -87
v-11h620v-124h-776v120q0 80 33.5 145.5t93 110.5t127 74.5t150.5 50.5q108 28 153 52q82 45 82 110q0 57 -63.5 85t-151.5 28q-100 0 -174 -33.5t-147 -95.5z" />
    <glyph glyph-name="three.numerator" horiz-adv-x="1103" 
d="M498 856v125h178q45 0 82 31t37 82q0 46 -36 77.5t-83.5 43.5t-100.5 12q-95 0 -183.5 -40.5t-158.5 -103.5l-94 95q208 188 439 188q62 0 125 -14t120 -41.5t93 -77.5t36 -113q0 -65 -33.5 -113.5t-72.5 -66.5q28 -6 56 -19.5t57 -38t47 -64.5t18 -91q0 -96 -65 -166
t-172 -104.5t-242 -34.5q-297 0 -490 184l95 107q162 -152 393 -152q141 0 233 46.5t92 129.5q0 35 -19 60t-49.5 37t-59.5 17t-58 5h-184z" />
    <glyph glyph-name="four.numerator" horiz-adv-x="1153" 
d="M1090 776v-125h-179v-200h-155v200h-701v109l717 577h139v-561h179zM287 780v-4h469v363h-17q-30 -24 -198 -156.5t-254 -202.5z" />
    <glyph glyph-name="five.numerator" horiz-adv-x="1062" 
d="M887 1337v-137h-592v-231q67 42 133.5 62t163.5 20q61 0 119 -11t109 -35t89.5 -58t61 -82.5t22.5 -106.5q0 -71 -27 -129t-72.5 -96t-107 -63.5t-127.5 -36.5t-137 -11q-250 0 -454 121l79 125q154 -107 375 -107q83 0 151 18t116.5 64t48.5 115q0 78 -72.5 119
t-175.5 41t-181 -26t-159 -73l-98 70v448h735z" />
    <glyph glyph-name="six.numerator" horiz-adv-x="1089" 
d="M977 1257l-94 -108q-110 78 -279 78q-97 0 -180 -37t-138.5 -112t-60.5 -175q195 129 404 129q95 0 171 -25t122 -66t70 -90t24 -101q0 -139 -119.5 -233.5t-304.5 -94.5q-99 0 -189.5 30t-162 86t-114 144.5t-42.5 196.5q0 148 73.5 261t191.5 169.5t259 56.5
q59 0 115.5 -10t90 -19.5t76 -30.5t51 -26.5t36.5 -22.5zM616 907q-174 0 -378 -116q31 -111 130 -170.5t228 -59.5q114 0 190 57.5t76 133.5q0 60 -62 107.5t-184 47.5z" />
    <glyph glyph-name="seven.numerator" horiz-adv-x="962" 
d="M63 1200v137h842v-137l-516 -749h-203l543 749h-666z" />
    <glyph glyph-name="eight.numerator" horiz-adv-x="1095" 
d="M549 420q-122 0 -227 32.5t-173.5 99t-68.5 153.5q0 96 71.5 157t172.5 76q-90 14 -137.5 61t-47.5 125q0 59 38 107.5t99 77.5t131.5 44t141.5 15q70 0 140 -15t130.5 -44t98.5 -77.5t38 -107.5q0 -159 -186 -186q102 -15 174 -75.5t72 -157.5q0 -87 -68.5 -153.5
t-173 -99t-225.5 -32.5zM549 557q75 0 142 18t112 56t45 88t-48 87.5t-114.5 54t-136.5 16.5q-71 0 -138 -16.5t-115 -54t-48 -87.5t45 -87.5t112.5 -56t143.5 -18.5zM549 991q116 0 177.5 30.5t61.5 88.5q0 42 -38.5 73.5t-91.5 45.5t-109 14q-58 0 -111.5 -14t-92 -45
t-38.5 -74q0 -58 62.5 -88.5t179.5 -30.5z" />
    <glyph glyph-name="nine.numerator" horiz-adv-x="1091" 
d="M115 530l94 109q113 -78 278 -78q152 0 262 87t119 235q-198 -127 -405 -127q-95 0 -171 25t-122 66t-70 90t-24 101q0 138 120 233t304 95q99 0 189.5 -30t162 -86t114 -144.5t42.5 -196.5q0 -112 -42.5 -205t-115 -154t-167.5 -94.5t-200 -33.5q-191 0 -355 100
q-11 7 -13 8zM477 881q179 0 379 116q-31 110 -130.5 170t-229.5 60q-113 0 -190 -57.5t-77 -133.5q0 -61 62.5 -108t185.5 -47z" />
    <glyph glyph-name="zero.denominator" horiz-adv-x="1183" 
d="M82 444q0 128 69 237t186 171.5t253 62.5q138 0 255.5 -62.5t187 -171t69.5 -237.5t-69.5 -238.5t-187 -172t-255.5 -62.5q-136 0 -253 62.5t-186 172t-69 238.5zM236 444q0 -138 103 -235.5t251 -97.5q147 0 252.5 97.5t105.5 235.5q0 136 -106 234t-252 98
q-147 0 -250.5 -97.5t-103.5 -234.5z" />
    <glyph glyph-name="one.denominator" horiz-adv-x="632" 
d="M49 645l-35 125l279 117h156v-887h-156v748z" />
    <glyph glyph-name="two.denominator" horiz-adv-x="974" 
d="M193 647l-93 109q53 39 86 60t86 48t111 39t125 12q73 0 138.5 -15t120 -44t86.5 -78t32 -112q0 -31 -7.5 -58.5t-19 -49t-31.5 -42t-37.5 -35t-46 -29.5t-48 -23.5t-52.5 -20t-50 -16.5t-49.5 -14.5t-43.5 -12.5q-57 -16 -98.5 -34t-79 -44.5t-57 -64.5t-19.5 -87v-10
h620v-125h-776v121q0 80 33.5 145.5t93 110.5t127 74.5t150.5 50.5q108 28 153 52q82 45 82 110q0 39 -33 65t-79.5 36.5t-102.5 10.5q-100 0 -174 -33.5t-147 -95.5z" />
    <glyph glyph-name="three.denominator" horiz-adv-x="1103" 
d="M496 406v124h178q45 0 83 31t38 82q0 46 -36.5 77.5t-84.5 43.5t-101 12q-180 0 -342 -143l-94 94q212 188 441 188q62 0 124 -14t119 -41.5t93 -77t36 -112.5q0 -66 -33 -114.5t-73 -66.5q28 -6 56 -19.5t57 -38t47 -64.5t18 -91q0 -96 -65 -166t-172 -104.5t-242 -34.5
q-293 0 -490 185l94 106q161 -151 394 -151q142 0 234.5 46.5t92.5 129.5q0 35 -19 60t-50 37t-60.5 17t-58.5 5h-184z" />
    <glyph glyph-name="four.denominator" horiz-adv-x="1153" 
d="M1090 326v-125h-179v-201h-155v201h-701v108l717 578h139v-561h179zM287 330v-4h469v362h-17q-46 -36 -206.5 -163t-245.5 -195z" />
    <glyph glyph-name="five.denominator" horiz-adv-x="1062" 
d="M887 887v-137h-592v-232q67 42 133.5 62t163.5 20q61 0 119 -11t109 -35t89.5 -58t61 -82.5t22.5 -106.5q0 -71 -27 -129t-72.5 -96t-107 -63.5t-127.5 -36.5t-137 -11q-250 0 -454 121l79 125q153 -106 375 -106q61 0 115 10.5t100.5 32.5t73.5 61.5t27 91.5
q0 78 -72.5 119t-175.5 41t-181.5 -26t-158.5 -72l-98 69v449h735z" />
    <glyph glyph-name="six.denominator" horiz-adv-x="1091" 
d="M977 807l-94 -109q-110 78 -279 78q-97 0 -180 -36.5t-138.5 -111.5t-60.5 -175q195 129 404 129q95 0 171 -25t122 -66t70 -90.5t24 -101.5q0 -139 -119.5 -233.5t-304.5 -94.5q-99 0 -189.5 30t-162 86t-114 144.5t-42.5 196.5q0 148 73.5 261t191.5 169.5t259 56.5
q59 0 115 -9.5t90.5 -19.5t76 -30t51.5 -26.5t36 -22.5zM616 457q-173 0 -378 -117q31 -111 130 -170t228 -59q114 0 190 57t76 133q0 61 -62.5 108.5t-183.5 47.5z" />
    <glyph glyph-name="seven.denominator" horiz-adv-x="962" 
d="M63 750v137h842v-137l-516 -750h-203l543 750h-666z" />
    <glyph glyph-name="eight.denominator" horiz-adv-x="1095" 
d="M549 -31q-122 0 -227 32.5t-173.5 99t-68.5 153.5q0 96 71.5 157t172.5 76q-90 14 -137.5 61.5t-47.5 125.5q0 59 38 107.5t99 77.5t131.5 44t141.5 15q70 0 140 -15t130.5 -44t98.5 -77.5t38 -107.5q0 -160 -186 -187q102 -15 174 -75.5t72 -157.5q0 -87 -68.5 -153.5
t-173 -99t-225.5 -32.5zM549 106q75 0 142 18t112 56t45 88t-48 87.5t-114.5 54t-136.5 16.5q-71 0 -138 -16.5t-115 -54t-48 -87.5t45 -87.5t112.5 -56t143.5 -18.5zM549 541q239 0 239 118q0 42 -38.5 74t-91.5 46t-109 14q-58 0 -111.5 -14t-92 -45.5t-38.5 -74.5
q0 -118 242 -118z" />
    <glyph glyph-name="nine.denominator" horiz-adv-x="1091" 
d="M115 80l94 108q112 -77 278 -77q152 0 262 86.5t119 234.5q-198 -127 -405 -127q-95 0 -171 25t-122 66t-70 90.5t-24 101.5q0 138 120 232.5t304 94.5q99 0 189.5 -30t162 -85.5t114 -144t42.5 -196.5q0 -148 -73.5 -261t-192 -170t-259.5 -57q-30 0 -59 2.5t-53 6
t-49.5 10t-43.5 12t-39.5 14t-33.5 14t-29.5 15t-24 13.5t-21 12.5t-15.5 9.5zM477 430q177 0 379 117q-31 110 -130.5 169.5t-229.5 59.5q-113 0 -190 -57t-77 -133q0 -61 62.5 -108.5t185.5 -47.5z" />
    <glyph glyph-name="acute.cap" 
d="M362 1507l246 252l211 -4l-303 -252z" />
    <glyph glyph-name="grave.cap" 
d="M506 1503l-303 252l211 4l248 -252z" />
    <glyph glyph-name="circumflex.cap" 
d="M203 1507l219 256h180l219 -256l-131 -4l-178 164l-178 -164z" />
    <glyph glyph-name="dieresis.cap" 
d="M717 1716q42 0 72 -27.5t30 -66.5q0 -40 -29.5 -67t-72.5 -27t-72 27t-29 67q0 39 29.5 66.5t71.5 27.5zM305 1716q43 0 73 -28t30 -66q0 -40 -30 -67t-73 -27q-44 0 -73 27t-29 67q0 39 29 66.5t73 27.5z" />
    <glyph glyph-name="tilde.cap" 
d="M272 1507l-106 58q51 85 100 123t109 38q37 0 68.5 -14t72.5 -43q74 -55 117 -55q33 0 59 24t58 70l100 -55q-96 -164 -211 -164q-75 0 -143 53q-5 4 -18 13.5t-18 13t-15.5 10.5t-16 10t-14 6.5t-16 5t-15.5 1.5t-15 -1.5t-14.5 -6t-13 -7.5t-13 -11t-11.5 -11.5
t-12 -14t-10.5 -13.5t-11.5 -15.5t-10 -14.5z" />
    <glyph glyph-name="ring.cap" 
d="M365 1622q0 -53 39 -87t102 -34q64 0 104.5 34t40.5 87q0 55 -40.5 91t-104.5 36q-62 0 -101.5 -36t-39.5 -91zM506 1423q-113 0 -177.5 57t-64.5 142q0 86 64.5 144.5t177.5 58.5t180.5 -59t67.5 -144t-67 -142t-181 -57z" />
    <glyph glyph-name="cedilla.cap" 
d="M510 29h106l-59 -154q50 12 82 12q80 2 140.5 -39.5t60.5 -119.5q0 -88 -91 -139.5t-233 -51.5q-111 0 -299 47l27 92q182 -38 264 -38q84 0 134 23.5t50 68.5q0 73 -110 73q-31 0 -103 -14l-47 53z" />
    <glyph glyph-name="breve.cap" 
d="M225 1757h121q0 -31 7 -57t24 -50.5t51.5 -38.5t83.5 -14t83.5 14t51.5 38.5t24 50.5t7 57h121q0 -39 -7 -74.5t-27 -72.5t-51 -64t-83 -44t-119 -17t-119 17t-83 44t-51 64t-27 72.5t-7 74.5z" />
    </font>
</defs>
</svg>
