<?xml version="1.0" encoding="utf-8"?>
<!-- Generator: Adobe Illustrator 25.2.0, SVG Export Plug-In . SVG Version: 6.00 Build 0)  -->
<!DOCTYPE svg PUBLIC "-//W3C//DTD SVG 1.1//EN" "http://www.w3.org/Graphics/SVG/1.1/DTD/svg11.dtd" [
	<!ENTITY ns_extend "http://ns.adobe.com/Extensibility/1.0/">
	<!ENTITY ns_ai "http://ns.adobe.com/AdobeIllustrator/10.0/">
	<!ENTITY ns_graphs "http://ns.adobe.com/Graphs/1.0/">
	<!ENTITY ns_vars "http://ns.adobe.com/Variables/1.0/">
	<!ENTITY ns_imrep "http://ns.adobe.com/ImageReplacement/1.0/">
	<!ENTITY ns_sfw "http://ns.adobe.com/SaveForWeb/1.0/">
	<!ENTITY ns_custom "http://ns.adobe.com/GenericCustomNamespace/1.0/">
	<!ENTITY ns_adobe_xpath "http://ns.adobe.com/XPath/1.0/">
]>
<svg version="1.1" id="Layer_1" xmlns:x="&ns_extend;" xmlns:i="&ns_ai;" xmlns:graph="&ns_graphs;"
	 xmlns="http://www.w3.org/2000/svg" xmlns:xlink="http://www.w3.org/1999/xlink" x="0px" y="0px" width="83.9px" height="81.3px"
	 viewBox="0 0 83.9 81.3" style="enable-background:new 0 0 83.9 81.3;" xml:space="preserve">
<style type="text/css">
	.st0{display:none;}
	.st1{display:inline;}
	.st2{fill:#222222;}
</style>
<metadata>
	<sfw  xmlns="&ns_sfw;">
		<slices></slices>
		<sliceSourceBounds  bottomLeftOrigin="true" height="78.9" width="78.8" x="-5.6" y="-2"></sliceSourceBounds>
	</sfw>
</metadata>
<g class="st0">
	<path class="st1" d="M49.3,44.2V77H34.6V44.2H22.7V30.7h11.9V20.3C34.6,8.5,41.6,2,52.3,2c5.2,0.1,10.5,1,10.5,1v11.5h-5.9
		c-5.8,0-7.6,3.6-7.6,7.3v8.8h13l-2.1,13.6H49.3z"/>
</g>
<path class="st0" d="M35.9,44.4c2.8,1.4,2.4,5.5-0.7,6.2l-15.7,3.9c-0.2,0.1-0.6,0.1-0.8,0.1c-1.6,0-3.1-1.3-3.3-3
	c-0.1-0.8-0.2-2.3-0.2-3.2c0-2.6,0.7-6.7,1.5-9.2c0.4-1.3,1.8-2.3,3.2-2.3c0.4,0,1.1,0.2,1.5,0.3L35.9,44.4z M40.6,2.1
	c0.1,0,0.2,0,0.3,0c1.8,0,3.3,1.5,3.3,3.3l0,0v30.5c0,3.4-4.5,4.6-6.2,1.7L22.7,11.2c-0.3-0.4-0.5-1.2-0.5-1.7c0-1.2,0.8-2.5,1.9-3
	C28.5,4.5,35.8,2.5,40.6,2.1z M27.8,72.3c-0.8-0.5-1.5-1.8-1.5-2.8c0-0.7,0.4-1.7,0.9-2.2l10.9-12.1c2.1-2.3,5.9-0.8,5.8,2.4
	l-0.6,16.2c-0.1,1.8-1.6,3.2-3.4,3.2c-0.2,0-0.4,0-0.6,0C35.9,76.4,30.7,74.3,27.8,72.3L27.8,72.3z M52.9,51.2l15.4,5
	c1.3,0.4,2.3,1.9,2.3,3.2c0,0.4-0.1,1-0.3,1.4c-1.5,3.2-5,7.6-7.7,9.9c-0.5,0.4-1.5,0.8-2.1,0.8c-1,0-2.3-0.7-2.8-1.6l-8.6-13.8
	C47.4,53.5,49.9,50.3,52.9,51.2z M70.7,36.8c0.2,0.4,0.3,1,0.3,1.3c0,1.4-1.1,2.8-2.4,3.2L53,45.8c-3,0.9-5.4-2.5-3.7-5.1l9.1-13.4
	c0.5-0.8,1.8-1.5,2.8-1.5c0.7,0,1.7,0.4,2.2,0.8C66,29,69.3,33.6,70.7,36.8L70.7,36.8z"/>
<path class="st2" d="M81,56.8c-0.3,6.2-1.8,11.8-6.4,16.5c-4.6,4.7-10.1,6.1-16.5,6.4c-6.5,0.4-26,0.4-32.5,0
	c-6.4-0.3-11.8-1.8-16.5-6.4c-4.6-4.6-6-10.1-6.2-16.5c-0.4-6.5-0.4-26,0-32.5c0.3-6.4,1.7-11.8,6.4-16.5s10.3-6,16.5-6.4
	c6.5-0.4,26-0.4,32.5,0c6.2,0.3,11.8,1.8,16.5,6.4c4.7,4.6,6.1,10.1,6.4,16.5C81.4,30.9,81.4,50.3,81,56.8z M74.1,40.5
	c0-5.7,0.5-18.1-1.6-23.2c-1.4-3.5-4-6.1-7.5-7.5c-5.2-2.1-17.4-1.6-23.2-1.6S23.8,7.7,18.7,9.8c-3.5,1.4-6.1,4-7.5,7.5
	c-2.1,5.2-1.6,17.4-1.6,23.2s-0.5,18.1,1.6,23.2c1.4,3.5,4,6.1,7.5,7.5c5.2,2.1,17.4,1.6,23.2,1.6s18.1,0.5,23.2-1.6
	c3.5-1.4,6.1-4,7.5-7.5C74.6,58.6,74.1,46.2,74.1,40.5z M62.2,40.5c0,11.2-9,20.2-20.2,20.2s-20.2-9-20.2-20.2s8.8-20.2,20-20.2
	S62.2,29.4,62.2,40.5z M55,40.5c0-7.3-5.9-13.1-13.1-13.1s-13.1,5.9-13.1,13.1s5.9,13.1,13.1,13.1S55,47.8,55,40.5z M62.9,24.2
	c-2.6,0-4.7-2.1-4.7-4.7s2.1-4.7,4.7-4.7s4.7,2.1,4.7,4.7S65.5,24.2,62.9,24.2z"/>
</svg>
