<?xml version="1.0" encoding="utf-8"?>
<!-- Generator: Adobe Illustrator 25.2.0, SVG Export Plug-In . SVG Version: 6.00 Build 0)  -->
<!DOCTYPE svg PUBLIC "-//W3C//DTD SVG 1.1//EN" "http://www.w3.org/Graphics/SVG/1.1/DTD/svg11.dtd" [
	<!ENTITY ns_extend "http://ns.adobe.com/Extensibility/1.0/">
	<!ENTITY ns_ai "http://ns.adobe.com/AdobeIllustrator/10.0/">
	<!ENTITY ns_graphs "http://ns.adobe.com/Graphs/1.0/">
	<!ENTITY ns_vars "http://ns.adobe.com/Variables/1.0/">
	<!ENTITY ns_imrep "http://ns.adobe.com/ImageReplacement/1.0/">
	<!ENTITY ns_sfw "http://ns.adobe.com/SaveForWeb/1.0/">
	<!ENTITY ns_custom "http://ns.adobe.com/GenericCustomNamespace/1.0/">
	<!ENTITY ns_adobe_xpath "http://ns.adobe.com/XPath/1.0/">
]>
<svg version="1.1" id="Layer_1" xmlns:x="&ns_extend;" xmlns:i="&ns_ai;" xmlns:graph="&ns_graphs;"
	 xmlns="http://www.w3.org/2000/svg" xmlns:xlink="http://www.w3.org/1999/xlink" x="0px" y="0px" width="727px" height="235px"
	 viewBox="0 0 727 235" style="enable-background:new 0 0 727 235;" xml:space="preserve">
<style type="text/css">
	.Drop_x0020_Shadow{fill:none;}
	.Outer_x0020_Glow_x0020_5_x0020_pt{fill:none;}
	.Blue_x0020_Neon{fill:none;stroke:#8AACDA;stroke-width:7;stroke-linecap:round;stroke-linejoin:round;}
	.Chrome_x0020_Highlight{fill:url(#SVGID_1_);stroke:#FFFFFF;stroke-width:0.3629;stroke-miterlimit:1;}
	.Jive_GS{fill:#FFDD00;}
	.Alyssa_GS{fill:#A6D0E4;}
	.st0{fill:#FFFFFF;}
</style>
<metadata>
	<sfw  xmlns="&ns_sfw;">
		<slices></slices>
		<sliceSourceBounds  bottomLeftOrigin="true" height="224.8" width="717.9" x="5.6" y="-227.8"></sliceSourceBounds>
	</sfw>
</metadata>
<linearGradient id="SVGID_1_" gradientUnits="userSpaceOnUse" x1="0" y1="0" x2="6.123234e-17" y2="-1">
	<stop  offset="0" style="stop-color:#656565"/>
	<stop  offset="0.618" style="stop-color:#1B1B1B"/>
	<stop  offset="0.6292" style="stop-color:#545454"/>
	<stop  offset="0.9831" style="stop-color:#3E3E3E"/>
</linearGradient>
<g>
	<g>
		<path class="st0" d="M32.6,157c-8.5,0-16.4,0.1-24.3-0.1c-0.9,0-2.4-2-2.5-3.1c-0.3-4-0.1-8.1-0.1-12.2c0-31.6,0.1-63.3-0.1-94.9
			c0-4.2,1.2-5.7,5.4-5.3c4.8,0.4,9.6,0.3,14.4,0c4.1-0.3,5.7,1.1,5,5.1c-0.2,1.1,0,2.3,0,3.8c23.4-19,45-17.6,64.8,4.7
			c3.9-3.4,7.5-7.5,11.9-10.4c30.2-19.7,69.9-0.2,71.7,35.7c1.2,24.9,0.6,49.9,0.7,74.9c0,0.4-0.2,0.8-0.4,1.6c-8.6,0-17.2,0-26.6,0
			c0-1.6,0-3.3,0-5c0-20.2,0.2-40.4-0.1-60.5c-0.1-5.6-1-11.3-2.8-16.6c-3.2-9.2-10.4-13-21.5-12.4c-9.3,0.5-17.5,6.7-19.7,15.7
			c-1.3,5.4-2.2,11.1-2.2,16.7c-0.3,19.2-0.2,38.3,0,57.5c0,4.1-1.2,5.3-5.2,5.1c-5.6-0.4-11.3-0.4-17,0c-4.2,0.3-5.1-1.3-5.1-5.2
			c0.2-20,0.2-40.1,0-60.1c0-7.4-1-14.7-5.5-21.1c-5.6-8-13.6-9.5-22.3-8.4c-8.4,1.1-14.1,6.1-15.9,14.5c-1.4,6.5-2.5,13.1-2.6,19.7
			C32.4,116.4,32.6,136.3,32.6,157z"/>
	</g>
	<g>
		<path class="st0" d="M673.7,112.6c2-6.3,4-12.5,5.8-18.8c4.8-16,9.6-32.1,14.1-48.2c0.9-3.2,2.3-4.4,5.7-4.3
			c7.8,0.2,15.6,0.1,24.2,0.1c-3.1,8.7-6,16.7-8.9,24.8c-8.6,23.7-17.3,47.4-26,71.1c-2,5.5-4.3,11-6.1,16.6
			c-0.9,2.7-2.4,3.3-4.9,3.1c-2-0.2-4.1-0.2-6.1-0.1c-6.8,0.1-6.7,0.1-8.6-6.6c-6.1-21.2-12.2-42.4-18.3-63.6
			c-0.4-1.4-1-2.8-1.5-4.2c-0.4,0-0.8,0-1.2,0c-1.3,4-2.6,7.9-3.8,12c-5.5,18.8-10.9,37.7-16.3,56.5c-1.8,6.2-1.8,6.2-8.3,6
			c-10.2-0.3-10.2-0.3-13-8.2c-11.1-30.8-22.2-61.6-33.2-92.4c-1.7-4.7-3.4-9.5-5.3-14.9c9.1,0,17.7-0.2,26.4,0.2
			c1.2,0.1,2.8,2.5,3.3,4.2C598,66.4,604,87,610.1,107.6c0.5,1.7,1.2,3.4,1.8,5.1c0.4,0,0.7,0,1.1,0c2.1-7.8,4.4-15.7,6.4-23.5
			c3.9-14.6,7.7-29.3,11.5-44c0.7-2.5,1.8-4,4.8-3.8c4.8,0.2,9.6,0.2,14.4,0c2.8-0.1,3.8,1.2,4.4,3.6c5.5,21.1,11,42.1,16.6,63.2
			c0.4,1.5,0.9,3,1.4,4.5C672.8,112.6,673.2,112.6,673.7,112.6z"/>
	</g>
	<g>
		<path class="st0" d="M226.5,111.5c1.8,6.9,4.8,11.6,9.4,15.4c9.5,7.9,20.1,12.1,32.5,8.4c6.5-1.9,11.9-5.6,16.3-10.8
			c1.3-1.5,3.8-2.6,5.8-2.7c7.8-0.3,15.6-0.1,23.5-0.1c-6.7,23.3-34.6,44.2-66.9,38c-35.3-6.9-54.9-39.8-47.3-74.9
			c6.4-29.5,35.2-53.1,70.9-46.1c36.2,7,53.6,43.6,46.2,72.9C287.2,111.5,257.3,111.5,226.5,111.5z M226.2,89.5
			c21.8,0,43.2,0,64.7,0c-2.4-16.8-13.8-26.7-29.5-27.4C242,61.3,229.2,73,226.2,89.5z"/>
	</g>
	<g>
		<path class="st0" d="M494.9,158.9c-34.7,0.4-62-28.2-62.1-60.8c0-34.5,27.8-62.3,62-62.3c33.5,0,60.9,27.8,60.8,61.9
			C555.4,131.5,529.8,159.3,494.9,158.9z M529.3,98.7c-1.3-5.3-2.1-10.8-4-15.8c-9.5-25.1-39.5-30.3-56.5-10
			c-10.8,12.9-12.1,33.2-2.4,46.9c7,9.9,17.2,15.5,29.3,14.9C514.8,133.7,528.6,118.1,529.3,98.7z"/>
	</g>
	<g>
		<path class="st0" d="M414.8,3.1c0,51.4,0,102.3,0,153.9c-3.6,0-7.1,0-10.6,0c-3.9,0-7.8-0.2-11.7,0.2c-3.6,0.3-4.7-0.9-4.7-4.5
			c0.2-32.9,0.1-65.8,0.1-98.8c0-15.4,0.1-30.7-0.1-46.1c-0.1-3.8,1.3-4.8,4.8-4.7C399.8,3.2,407.2,3.1,414.8,3.1z"/>
	</g>
	<g>
		<path class="st0" d="M364.1,157c-8.4,0-16.3,0.1-24.3-0.1c-0.9,0-1.9-1.5-2.5-2.6c-0.4-0.7-0.1-1.7-0.1-2.6c0-47.6,0-95.2,0-142.8
			c0-5.9,0-5.9,6.1-5.9c6.8,0,13.6,0,20.8,0C364.1,54.4,364.1,105.4,364.1,157z"/>
	</g>
</g>
<g>
	<path class="st0" d="M39.4,201.4h2.3v2.2c0.6-0.7,1.4-1.3,2.2-1.7c0.9-0.4,1.8-0.6,2.7-0.6c1.4,0,2.6,0.4,3.6,1.1
		c1,0.7,1.9,1.7,2.5,2.9c0.6-1.2,1.4-2.2,2.5-2.9c1.1-0.7,2.3-1.1,3.7-1.1c1.3,0,2.3,0.3,3.2,0.8c0.9,0.6,1.7,1.3,2.3,2.2
		c0.6,0.9,1,1.9,1.3,3c0.3,1.1,0.4,2.2,0.4,3.3v9.5h-2.3v-9.5c0-0.7-0.1-1.5-0.3-2.3c-0.2-0.8-0.5-1.6-0.9-2.3
		c-0.4-0.7-0.9-1.3-1.5-1.7c-0.6-0.5-1.4-0.7-2.2-0.7s-1.6,0.2-2.3,0.7c-0.6,0.5-1.1,1-1.5,1.7s-0.7,1.5-0.9,2.3
		c-0.2,0.8-0.3,1.6-0.3,2.3v9.5h-2.3v-9.5c0-0.7-0.1-1.5-0.3-2.3c-0.2-0.8-0.5-1.6-0.9-2.3c-0.4-0.7-0.9-1.3-1.5-1.7
		c-0.6-0.5-1.4-0.7-2.3-0.7c-0.8,0-1.5,0.2-2.2,0.7c-0.6,0.4-1.1,1-1.5,1.6c-0.4,0.7-0.7,1.4-0.9,2.2c-0.2,0.8-0.3,1.5-0.3,2.3v9.8
		h-2.3V201.4z"/>
	<path class="st0" d="M98.7,217.2c-0.8,0.9-1.8,1.7-2.9,2.2c-1.1,0.6-2.3,0.8-3.6,0.8c-1.3,0-2.5-0.3-3.5-0.8
		c-1.1-0.5-2-1.2-2.8-2.1c-0.8-0.9-1.4-1.9-1.8-3c-0.4-1.1-0.7-2.3-0.7-3.5c0-1.2,0.2-2.4,0.7-3.5c0.4-1.1,1.1-2.1,1.8-3
		c0.8-0.9,1.7-1.6,2.8-2.1c1.1-0.5,2.3-0.8,3.5-0.8c1.3,0,2.5,0.3,3.6,0.8c1.1,0.6,2.1,1.3,2.9,2.2v-3h2.3v18.8h-2.3V217.2z
		 M85.6,210.8c0,1,0.2,1.9,0.5,2.7c0.3,0.9,0.7,1.6,1.3,2.3c0.6,0.6,1.2,1.2,2,1.5c0.8,0.4,1.7,0.6,2.7,0.6c1,0,1.9-0.2,2.7-0.6
		c0.8-0.4,1.5-0.9,2-1.5c0.6-0.6,1-1.4,1.3-2.3c0.3-0.9,0.5-1.8,0.5-2.7c0-0.9-0.2-1.8-0.5-2.6c-0.3-0.9-0.8-1.6-1.4-2.3
		c-0.6-0.7-1.3-1.2-2.1-1.6s-1.7-0.6-2.6-0.6c-1,0-1.9,0.2-2.7,0.6c-0.8,0.4-1.5,0.9-2,1.6s-1,1.4-1.3,2.3
		C85.8,209,85.6,209.9,85.6,210.8z"/>
	<path class="st0" d="M120.9,206.6c0,0.6,0.2,1.2,0.7,1.6c0.5,0.5,1.1,0.9,1.8,1.2c0.7,0.4,1.5,0.7,2.4,1.1c0.9,0.3,1.6,0.7,2.4,1.1
		c0.7,0.4,1.3,0.9,1.8,1.5c0.5,0.6,0.7,1.3,0.7,2.1c0,0.8-0.2,1.6-0.5,2.2c-0.3,0.6-0.8,1.1-1.4,1.6c-0.6,0.4-1.2,0.7-2,0.9
		c-0.7,0.2-1.5,0.3-2.2,0.3c-1,0-2-0.2-3-0.6c-1-0.4-1.8-1-2.5-1.8l1.8-1.5c0.5,0.5,1.1,0.9,1.8,1.2s1.3,0.4,2.1,0.4
		c0.3,0,0.7,0,1.1-0.1c0.4-0.1,0.8-0.2,1.2-0.4c0.4-0.2,0.7-0.5,0.9-0.8c0.2-0.3,0.4-0.7,0.4-1.1c0-0.6-0.2-1.1-0.7-1.6
		c-0.5-0.4-1.1-0.8-1.8-1.1c-0.7-0.3-1.5-0.6-2.4-1c-0.9-0.3-1.6-0.7-2.4-1.1c-0.7-0.4-1.3-0.9-1.8-1.5c-0.5-0.6-0.7-1.4-0.7-2.3
		c0-0.9,0.2-1.6,0.5-2.3s0.8-1.3,1.3-1.8c0.6-0.5,1.2-0.8,2-1.1c0.7-0.3,1.5-0.4,2.3-0.4c1.1,0,2.1,0.2,3.1,0.6
		c1,0.4,1.9,1.1,2.5,1.9l-1.8,1.6c-0.5-0.5-1.1-1-1.8-1.3c-0.7-0.3-1.4-0.5-2.2-0.5c-0.4,0-0.8,0.1-1.2,0.2
		c-0.4,0.1-0.8,0.3-1.2,0.6c-0.3,0.2-0.6,0.5-0.9,0.9C121,205.7,120.9,206.1,120.9,206.6z"/>
	<path class="st0" d="M150,206.6c0,0.6,0.2,1.2,0.7,1.6c0.5,0.5,1.1,0.9,1.8,1.2c0.7,0.4,1.5,0.7,2.4,1.1c0.9,0.3,1.6,0.7,2.4,1.1
		c0.7,0.4,1.3,0.9,1.8,1.5c0.5,0.6,0.7,1.3,0.7,2.1c0,0.8-0.2,1.6-0.5,2.2c-0.3,0.6-0.8,1.1-1.4,1.6c-0.6,0.4-1.2,0.7-2,0.9
		c-0.7,0.2-1.5,0.3-2.2,0.3c-1,0-2-0.2-3-0.6c-1-0.4-1.8-1-2.5-1.8l1.8-1.5c0.5,0.5,1.1,0.9,1.8,1.2s1.3,0.4,2.1,0.4
		c0.3,0,0.7,0,1.1-0.1c0.4-0.1,0.8-0.2,1.2-0.4c0.4-0.2,0.7-0.5,0.9-0.8c0.2-0.3,0.4-0.7,0.4-1.1c0-0.6-0.2-1.1-0.7-1.6
		c-0.5-0.4-1.1-0.8-1.8-1.1c-0.7-0.3-1.5-0.6-2.4-1c-0.9-0.3-1.6-0.7-2.4-1.1c-0.7-0.4-1.3-0.9-1.8-1.5c-0.5-0.6-0.7-1.4-0.7-2.3
		c0-0.9,0.2-1.6,0.5-2.3s0.8-1.3,1.3-1.8c0.6-0.5,1.2-0.8,2-1.1c0.7-0.3,1.5-0.4,2.3-0.4c1.1,0,2.1,0.2,3.1,0.6
		c1,0.4,1.9,1.1,2.5,1.9l-1.8,1.6c-0.5-0.5-1.1-1-1.8-1.3c-0.7-0.3-1.4-0.5-2.2-0.5c-0.4,0-0.8,0.1-1.2,0.2
		c-0.4,0.1-0.8,0.3-1.2,0.6c-0.3,0.2-0.6,0.5-0.9,0.9C150.1,205.7,150,206.1,150,206.6z"/>
	<path class="st0" d="M191.8,217.2c-0.8,0.9-1.8,1.7-2.9,2.2c-1.1,0.6-2.3,0.8-3.6,0.8c-1.3,0-2.5-0.3-3.5-0.8
		c-1.1-0.5-2-1.2-2.8-2.1c-0.8-0.9-1.4-1.9-1.8-3c-0.4-1.1-0.7-2.3-0.7-3.5c0-1.2,0.2-2.4,0.7-3.5c0.4-1.1,1.1-2.1,1.8-3
		c0.8-0.9,1.7-1.6,2.8-2.1c1.1-0.5,2.3-0.8,3.5-0.8c1.3,0,2.5,0.3,3.6,0.8c1.1,0.6,2.1,1.3,2.9,2.2v-3h2.3v18.8h-2.3V217.2z
		 M178.7,210.8c0,1,0.2,1.9,0.5,2.7c0.3,0.9,0.7,1.6,1.3,2.3c0.6,0.6,1.2,1.2,2,1.5c0.8,0.4,1.7,0.6,2.7,0.6c1,0,1.9-0.2,2.7-0.6
		c0.8-0.4,1.5-0.9,2-1.5c0.6-0.6,1-1.4,1.3-2.3c0.3-0.9,0.5-1.8,0.5-2.7c0-0.9-0.2-1.8-0.5-2.6c-0.3-0.9-0.8-1.6-1.4-2.3
		c-0.6-0.7-1.3-1.2-2.1-1.6s-1.7-0.6-2.6-0.6c-1,0-1.9,0.2-2.7,0.6c-0.8,0.4-1.5,0.9-2,1.6s-1,1.4-1.3,2.3
		C178.9,209,178.7,209.9,178.7,210.8z"/>
	<path class="st0" d="M229.2,201.4v16.9c0,1.3-0.2,2.4-0.7,3.6c-0.4,1.1-1.1,2.1-1.9,3c-0.8,0.9-1.7,1.6-2.8,2.1
		c-1.1,0.5-2.3,0.8-3.5,0.8c-1.1,0-2.2-0.2-3.3-0.7c-1.1-0.5-2-1.1-2.8-1.9l1.5-1.6c1.3,1.3,2.8,1.9,4.6,1.9c1,0,1.9-0.2,2.7-0.6
		c0.8-0.4,1.5-0.9,2-1.5s1-1.4,1.3-2.3c0.3-0.9,0.5-1.8,0.5-2.7v-1.1c-0.8,0.9-1.8,1.7-2.9,2.2c-1.1,0.5-2.3,0.8-3.6,0.8
		c-1.3,0-2.5-0.3-3.5-0.8c-1.1-0.5-2-1.2-2.8-2.1s-1.4-1.9-1.8-3c-0.4-1.1-0.7-2.3-0.7-3.5c0-1.2,0.2-2.4,0.7-3.5
		c0.4-1.1,1.1-2.1,1.8-3s1.7-1.6,2.8-2.1c1.1-0.5,2.3-0.8,3.5-0.8c1.3,0,2.5,0.3,3.6,0.8s2.1,1.3,2.9,2.2v-3H229.2z M213.9,210.8
		c0,1,0.2,1.9,0.5,2.7c0.3,0.9,0.7,1.6,1.3,2.3c0.6,0.6,1.2,1.2,2,1.5c0.8,0.4,1.7,0.6,2.7,0.6c0.8,0,1.6-0.2,2.4-0.5
		c0.8-0.3,1.5-0.8,2.1-1.3c0.6-0.6,1.1-1.2,1.5-2c0.4-0.8,0.6-1.6,0.6-2.4v-1.6c0-0.8-0.2-1.6-0.6-2.4c-0.4-0.8-0.9-1.4-1.5-2
		c-0.6-0.6-1.3-1.1-2.1-1.4c-0.8-0.4-1.6-0.5-2.4-0.5c-1,0-1.9,0.2-2.7,0.6c-0.8,0.4-1.5,0.9-2,1.6s-1,1.4-1.3,2.3
		C214,209,213.9,209.9,213.9,210.8z"/>
	<path class="st0" d="M249.3,212.8c0.3,1.5,1.1,2.8,2.2,3.8c1.1,1,2.5,1.4,4.1,1.4c0.9,0,1.7-0.2,2.5-0.5c0.8-0.3,1.5-0.8,2.1-1.4
		l1.6,1.6c-0.8,0.9-1.7,1.5-2.8,2c-1.1,0.5-2.2,0.7-3.3,0.7c-1.3,0-2.5-0.3-3.5-0.8c-1.1-0.5-2-1.2-2.8-2.1c-0.8-0.9-1.4-1.9-1.8-3
		c-0.4-1.1-0.7-2.3-0.7-3.5c0-1.2,0.2-2.3,0.6-3.5c0.4-1.1,1-2.1,1.7-3c0.7-0.9,1.6-1.6,2.7-2.1c1-0.5,2.2-0.8,3.4-0.8
		s2.4,0.3,3.4,0.8c1,0.5,1.9,1.3,2.7,2.1c0.7,0.9,1.3,1.9,1.7,3c0.4,1.1,0.6,2.3,0.6,3.5c0,0.3,0,0.6-0.1,1c0,0.3-0.1,0.6-0.1,1
		H249.3z M255.2,203.7c-1,0-1.9,0.2-2.6,0.5c-0.7,0.4-1.4,0.9-1.9,1.5c-0.5,0.6-0.9,1.3-1.2,2.2c-0.3,0.8-0.4,1.7-0.5,2.6h12.2
		c-0.1-0.8-0.2-1.6-0.5-2.5c-0.3-0.8-0.7-1.5-1.2-2.2c-0.5-0.6-1.1-1.2-1.9-1.5C257,203.9,256.1,203.7,255.2,203.7z"/>
	<path class="st0" d="M318.3,217.2c-0.8,0.9-1.8,1.7-2.9,2.2c-1.1,0.6-2.3,0.8-3.6,0.8c-1.3,0-2.5-0.3-3.5-0.8
		c-1.1-0.5-2-1.2-2.8-2.1c-0.8-0.9-1.4-1.9-1.8-3c-0.4-1.1-0.7-2.3-0.7-3.5c0-1.2,0.2-2.4,0.7-3.5c0.4-1.1,1.1-2.1,1.8-3
		c0.8-0.9,1.7-1.6,2.8-2.1c1.1-0.5,2.3-0.8,3.5-0.8c1.3,0,2.5,0.3,3.6,0.8c1.1,0.6,2.1,1.3,2.9,2.2v-3h2.3v18.8h-2.3V217.2z
		 M305.2,210.8c0,1,0.2,1.9,0.5,2.7c0.3,0.9,0.7,1.6,1.3,2.3c0.6,0.6,1.2,1.2,2,1.5c0.8,0.4,1.7,0.6,2.7,0.6c1,0,1.9-0.2,2.7-0.6
		c0.8-0.4,1.5-0.9,2-1.5c0.6-0.6,1-1.4,1.3-2.3c0.3-0.9,0.5-1.8,0.5-2.7c0-0.9-0.2-1.8-0.5-2.6c-0.3-0.9-0.8-1.6-1.4-2.3
		c-0.6-0.7-1.3-1.2-2.1-1.6s-1.7-0.6-2.6-0.6c-1,0-1.9,0.2-2.7,0.6c-0.8,0.4-1.5,0.9-2,1.6s-1,1.4-1.3,2.3
		C305.4,209,305.2,209.9,305.2,210.8z"/>
	<path class="st0" d="M338.5,201.4h2.3v2.6c0.7-0.9,1.6-1.5,2.6-2c1-0.5,2.1-0.7,3.2-0.7c1.3,0,2.5,0.3,3.5,0.8
		c1,0.5,1.8,1.2,2.5,2.1c0.7,0.9,1.2,1.9,1.6,3s0.5,2.3,0.5,3.5v9.5h-2.3v-9.5c0-0.9-0.1-1.7-0.3-2.6c-0.2-0.8-0.6-1.6-1.1-2.2
		s-1.1-1.2-1.8-1.6c-0.7-0.4-1.6-0.6-2.6-0.6c-1,0-1.8,0.2-2.6,0.6c-0.7,0.4-1.3,0.9-1.8,1.6c-0.5,0.7-0.8,1.4-1,2.2
		c-0.2,0.8-0.3,1.7-0.3,2.6v9.5h-2.4V201.4z"/>
	<path class="st0" d="M387.5,217.2c-0.8,0.9-1.8,1.7-2.9,2.2c-1.1,0.6-2.3,0.8-3.6,0.8c-1.3,0-2.5-0.3-3.5-0.8
		c-1.1-0.5-2-1.2-2.8-2.1s-1.4-1.9-1.8-3c-0.4-1.1-0.7-2.3-0.7-3.5c0-1.2,0.2-2.4,0.7-3.5c0.4-1.1,1.1-2.1,1.8-3s1.7-1.6,2.8-2.1
		c1.1-0.5,2.3-0.8,3.5-0.8c1.3,0,2.5,0.3,3.6,0.8c1.1,0.6,2.1,1.3,2.9,2.2v-10.6h2.3v26.3h-2.3V217.2z M374.4,210.8
		c0,1,0.2,1.9,0.5,2.7c0.3,0.9,0.7,1.6,1.3,2.3c0.6,0.6,1.2,1.2,2,1.5c0.8,0.4,1.7,0.6,2.7,0.6c1,0,1.9-0.2,2.7-0.6
		c0.8-0.4,1.5-0.9,2-1.5c0.6-0.6,1-1.4,1.3-2.3c0.3-0.9,0.5-1.8,0.5-2.7c0-0.9-0.2-1.8-0.5-2.6c-0.3-0.9-0.8-1.6-1.4-2.3
		c-0.6-0.7-1.3-1.2-2.1-1.6s-1.7-0.6-2.6-0.6c-1,0-1.9,0.2-2.7,0.6c-0.8,0.4-1.5,0.9-2,1.6s-1,1.4-1.3,2.3
		C374.6,209,374.4,209.9,374.4,210.8z"/>
	<path class="st0" d="M429.4,201.4h2.2v2.2c0.6-0.7,1.4-1.3,2.2-1.6c0.9-0.3,1.8-0.5,2.8-0.5c0.5,0,1,0,1.5,0.1
		c0.5,0.1,0.9,0.2,1.4,0.5l-0.8,2.3c-0.4-0.2-0.8-0.3-1.2-0.4c-0.4-0.1-0.8-0.2-1.2-0.2c-0.9,0-1.6,0.2-2.2,0.7
		c-0.6,0.5-1,1.1-1.4,1.8c-0.4,0.7-0.6,1.5-0.8,2.3s-0.2,1.6-0.2,2.2v9.5h-2.3V201.4z"/>
	<path class="st0" d="M457.3,212.8c0.3,1.5,1.1,2.8,2.2,3.8c1.1,1,2.5,1.4,4.1,1.4c0.9,0,1.7-0.2,2.5-0.5c0.8-0.3,1.5-0.8,2.1-1.4
		l1.6,1.6c-0.8,0.9-1.7,1.5-2.8,2c-1.1,0.5-2.2,0.7-3.3,0.7c-1.3,0-2.5-0.3-3.5-0.8c-1.1-0.5-2-1.2-2.8-2.1c-0.8-0.9-1.4-1.9-1.8-3
		c-0.4-1.1-0.7-2.3-0.7-3.5c0-1.2,0.2-2.3,0.6-3.5c0.4-1.1,1-2.1,1.7-3c0.7-0.9,1.6-1.6,2.7-2.1s2.2-0.8,3.4-0.8s2.4,0.3,3.4,0.8
		c1,0.5,1.9,1.3,2.7,2.1s1.3,1.9,1.7,3c0.4,1.1,0.6,2.3,0.6,3.5c0,0.3,0,0.6-0.1,1c0,0.3-0.1,0.6-0.1,1H457.3z M463.3,203.7
		c-1,0-1.9,0.2-2.6,0.5c-0.7,0.4-1.4,0.9-1.9,1.5c-0.5,0.6-0.9,1.3-1.2,2.2c-0.3,0.8-0.4,1.7-0.5,2.6h12.2c-0.1-0.8-0.2-1.6-0.5-2.5
		c-0.3-0.8-0.7-1.5-1.2-2.2c-0.5-0.6-1.1-1.2-1.9-1.5C465,203.9,464.2,203.7,463.3,203.7z"/>
	<path class="st0" d="M497.8,201.4c1.2,0,2.3,0.2,3.3,0.7c1,0.5,2,1.1,2.8,1.9l-1.5,1.6c-0.6-0.6-1.3-1.1-2.1-1.4
		c-0.8-0.3-1.6-0.5-2.5-0.5c-1,0-1.9,0.2-2.7,0.6c-0.8,0.4-1.5,0.9-2,1.6c-0.6,0.7-1,1.4-1.3,2.3c-0.3,0.9-0.5,1.8-0.5,2.7
		s0.2,1.9,0.5,2.7c0.3,0.9,0.7,1.6,1.3,2.3c0.6,0.6,1.2,1.2,2,1.5c0.8,0.4,1.7,0.6,2.7,0.6c0.9,0,1.7-0.2,2.5-0.5
		c0.8-0.3,1.5-0.8,2.1-1.4l1.5,1.6c-0.8,0.9-1.7,1.5-2.8,2c-1.1,0.5-2.2,0.7-3.3,0.7c-1.3,0-2.5-0.3-3.5-0.8c-1.1-0.5-2-1.2-2.8-2.1
		c-0.8-0.9-1.4-1.9-1.8-3c-0.4-1.1-0.7-2.3-0.7-3.5c0-1.2,0.2-2.4,0.7-3.5c0.4-1.1,1.1-2.1,1.8-3c0.8-0.9,1.7-1.6,2.8-2.1
		C495.4,201.7,496.5,201.4,497.8,201.4z"/>
	<path class="st0" d="M520.5,210.8c0-1.2,0.2-2.4,0.7-3.5c0.4-1.1,1.1-2.1,1.8-3s1.7-1.6,2.8-2.1c1.1-0.5,2.3-0.8,3.5-0.8
		c1.3,0,2.5,0.3,3.5,0.8c1.1,0.5,2,1.2,2.8,2.1s1.4,1.9,1.9,3c0.5,1.1,0.7,2.3,0.7,3.5c0,1.2-0.2,2.4-0.7,3.5
		c-0.5,1.1-1.1,2.1-1.9,3s-1.7,1.6-2.8,2.1c-1.1,0.5-2.3,0.8-3.5,0.8c-1.3,0-2.5-0.3-3.5-0.8c-1.1-0.5-2-1.2-2.8-2.1s-1.4-1.9-1.8-3
		C520.7,213.3,520.5,212.1,520.5,210.8z M522.8,210.8c0,1,0.2,1.9,0.5,2.7c0.3,0.9,0.7,1.6,1.3,2.3c0.6,0.6,1.2,1.2,2,1.5
		c0.8,0.4,1.7,0.6,2.7,0.6s1.9-0.2,2.7-0.6c0.8-0.4,1.5-0.9,2-1.5c0.6-0.6,1-1.4,1.3-2.3c0.3-0.9,0.5-1.8,0.5-2.7
		c0-0.9-0.2-1.8-0.5-2.6c-0.3-0.9-0.8-1.6-1.4-2.3c-0.6-0.7-1.3-1.2-2.1-1.6s-1.7-0.6-2.6-0.6c-1,0-1.9,0.2-2.7,0.6
		c-0.8,0.4-1.5,0.9-2,1.6s-1,1.4-1.3,2.3C523,209,522.8,209.9,522.8,210.8z"/>
	<path class="st0" d="M560.2,220.2l-6.5-18.8h2.5l5.2,15.3l5.3-15.3h2.4l-6.5,18.8H560.2z"/>
	<path class="st0" d="M587.3,212.8c0.3,1.5,1.1,2.8,2.2,3.8s2.5,1.4,4.1,1.4c0.9,0,1.7-0.2,2.5-0.5c0.8-0.3,1.5-0.8,2.1-1.4l1.6,1.6
		c-0.8,0.9-1.7,1.5-2.8,2c-1.1,0.5-2.2,0.7-3.3,0.7c-1.3,0-2.5-0.3-3.5-0.8c-1.1-0.5-2-1.2-2.8-2.1c-0.8-0.9-1.4-1.9-1.8-3
		c-0.4-1.1-0.7-2.3-0.7-3.5c0-1.2,0.2-2.3,0.6-3.5c0.4-1.1,1-2.1,1.7-3s1.6-1.6,2.7-2.1c1-0.5,2.2-0.8,3.4-0.8
		c1.3,0,2.4,0.3,3.4,0.8s1.9,1.3,2.7,2.1c0.7,0.9,1.3,1.9,1.7,3c0.4,1.1,0.6,2.3,0.6,3.5c0,0.3,0,0.6-0.1,1c0,0.3-0.1,0.6-0.1,1
		H587.3z M593.3,203.7c-1,0-1.9,0.2-2.6,0.5c-0.7,0.4-1.4,0.9-1.9,1.5c-0.5,0.6-0.9,1.3-1.2,2.2c-0.3,0.8-0.4,1.7-0.5,2.6h12.2
		c-0.1-0.8-0.2-1.6-0.5-2.5s-0.7-1.5-1.2-2.2c-0.5-0.6-1.1-1.2-1.9-1.5C595,203.9,594.2,203.7,593.3,203.7z"/>
	<path class="st0" d="M619.2,201.4h2.2v2.2c0.6-0.7,1.4-1.3,2.2-1.6c0.9-0.3,1.8-0.5,2.8-0.5c0.5,0,1,0,1.5,0.1
		c0.5,0.1,0.9,0.2,1.4,0.5l-0.8,2.3c-0.4-0.2-0.8-0.3-1.2-0.4c-0.4-0.1-0.8-0.2-1.2-0.2c-0.9,0-1.6,0.2-2.2,0.7
		c-0.6,0.5-1,1.1-1.4,1.8c-0.4,0.7-0.6,1.5-0.8,2.3s-0.2,1.6-0.2,2.2v9.5h-2.3V201.4z"/>
	<path class="st0" d="M649.6,227.8l2.6-7.6l-6.5-18.8h2.5l5.2,15.2l5.3-15.2h2.5l-9.1,26.4H649.6z"/>
</g>
</svg>
