<?xml version="1.0" encoding="utf-8"?>
<!-- Generator: Adobe Illustrator 26.0.3, SVG Export Plug-In . SVG Version: 6.00 Build 0)  -->
<svg version="1.1" id="Layer_1" xmlns="http://www.w3.org/2000/svg" xmlns:xlink="http://www.w3.org/1999/xlink" x="0px" y="0px"
	 width="112.1px" height="20.2px" viewBox="0 0 112.1 20.2" style="enable-background:new 0 0 112.1 20.2;" xml:space="preserve">
<style type="text/css">
	.st0{fill:#BF9F84;}
</style>
<g>
	<path class="st0" d="M11.5,1.1l2.4,4.8l5.3,0.8c1,0.1,1.3,1.3,0.6,2L16,12.4l0.9,5.3c0.2,1-0.8,1.7-1.7,1.2l-4.8-2.5L5.7,19
		c-0.8,0.4-1.9-0.3-1.7-1.2l0.9-5.3L1.1,8.7C0.4,8,0.8,6.8,1.7,6.7l5.3-0.8l2.4-4.8C9.9,0.2,11.1,0.2,11.5,1.1z"/>
	<path class="st0" d="M34.2,1.1l2.4,4.8l5.3,0.8c1,0.1,1.3,1.3,0.6,2l-3.8,3.7l0.9,5.3c0.2,1-0.8,1.7-1.7,1.2l-4.8-2.5L28.4,19
		c-0.8,0.4-1.9-0.3-1.7-1.2l0.9-5.3l-3.8-3.7c-0.7-0.7-0.3-1.8,0.6-2l5.3-0.8l2.4-4.8C32.5,0.2,33.7,0.2,34.2,1.1z"/>
	<path class="st0" d="M56.8,1.1l2.4,4.8l5.3,0.8c1,0.1,1.3,1.3,0.6,2l-3.8,3.7l0.9,5.3c0.2,1-0.8,1.7-1.7,1.2l-4.8-2.5L51,19
		c-0.8,0.4-1.9-0.3-1.7-1.2l0.9-5.3l-3.8-3.7c-0.7-0.7-0.3-1.8,0.6-2l5.3-0.8l2.4-4.8C55.2,0.2,56.4,0.2,56.8,1.1z"/>
	<path class="st0" d="M79.5,1.1l2.4,4.8l5.3,0.8c1,0.1,1.3,1.3,0.6,2L84,12.4l0.9,5.3c0.2,1-0.8,1.7-1.7,1.2l-4.8-2.5L73.7,19
		c-0.8,0.4-1.9-0.3-1.7-1.2l0.9-5.3L69,8.7c-0.7-0.7-0.3-1.8,0.6-2L75,5.9l2.4-4.8C77.8,0.2,79,0.2,79.5,1.1z"/>
	<path class="st0" d="M102.1,1.1l2.4,4.8l5.3,0.8c1,0.1,1.3,1.3,0.6,2l-3.8,3.7l0.9,5.3c0.2,1-0.8,1.7-1.7,1.2l-4.8-2.5L96.3,19
		c-0.8,0.4-1.9-0.3-1.7-1.2l0.9-5.3l-3.8-3.7c-0.7-0.7-0.3-1.8,0.6-2l5.3-0.8l2.4-4.8C100.5,0.2,101.7,0.2,102.1,1.1z"/>
</g>
</svg>
