<?xml version="1.0" encoding="utf-8"?>
<!-- Generator: Adobe Illustrator 25.2.0, SVG Export Plug-In . SVG Version: 6.00 Build 0)  -->
<!DOCTYPE svg PUBLIC "-//W3C//DTD SVG 1.1//EN" "http://www.w3.org/Graphics/SVG/1.1/DTD/svg11.dtd" [
	<!ENTITY ns_extend "http://ns.adobe.com/Extensibility/1.0/">
	<!ENTITY ns_ai "http://ns.adobe.com/AdobeIllustrator/10.0/">
	<!ENTITY ns_graphs "http://ns.adobe.com/Graphs/1.0/">
	<!ENTITY ns_vars "http://ns.adobe.com/Variables/1.0/">
	<!ENTITY ns_imrep "http://ns.adobe.com/ImageReplacement/1.0/">
	<!ENTITY ns_sfw "http://ns.adobe.com/SaveForWeb/1.0/">
	<!ENTITY ns_custom "http://ns.adobe.com/GenericCustomNamespace/1.0/">
	<!ENTITY ns_adobe_xpath "http://ns.adobe.com/XPath/1.0/">
]>
<svg version="1.1" id="Layer_1" xmlns:x="&ns_extend;" xmlns:i="&ns_ai;" xmlns:graph="&ns_graphs;"
	 xmlns="http://www.w3.org/2000/svg" xmlns:xlink="http://www.w3.org/1999/xlink" x="0px" y="0px" width="68px" height="78px"
	 viewBox="0 0 68 78" style="enable-background:new 0 0 68 78;" xml:space="preserve">
<style type="text/css">
	.st0{display:none;}
	.st1{display:inline;}
	.st2{fill:#222222;}
</style>
<metadata>
	<sfw  xmlns="&ns_sfw;">
		<slices></slices>
		<sliceSourceBounds  bottomLeftOrigin="true" height="75" width="55.8" x="7" y="1"></sliceSourceBounds>
	</sfw>
</metadata>
<g class="st0">
	<path class="st1" d="M41.1,44.2V77H26.4V44.2H14.5V30.7h11.9V20.3C26.4,8.5,33.4,2,44.1,2c5.2,0.1,10.5,1,10.5,1v11.5h-5.9
		c-5.8,0-7.6,3.6-7.6,7.3v8.8h13L52,44.2H41.1z"/>
</g>
<path class="st2" d="M27.7,44.4c2.8,1.4,2.4,5.5-0.7,6.2l-15.7,3.9c-0.2,0.1-0.6,0.1-0.8,0.1c-1.6,0-3.1-1.3-3.3-3
	C7.1,50.8,7,49.3,7,48.4c0-2.6,0.7-6.7,1.5-9.2c0.4-1.3,1.8-2.3,3.2-2.3c0.4,0,1.1,0.2,1.5,0.3L27.7,44.4z M32.4,2.1
	c0.1,0,0.2,0,0.3,0c1.8,0,3.3,1.5,3.3,3.3l0,0v30.5c0,3.4-4.5,4.6-6.2,1.7L14.5,11.2C14.2,10.8,14,10,14,9.5c0-1.2,0.8-2.5,1.9-3
	C20.3,4.5,27.6,2.5,32.4,2.1z M19.6,72.3c-0.8-0.5-1.5-1.8-1.5-2.8c0-0.7,0.4-1.7,0.9-2.2l10.9-12.1c2.1-2.3,5.9-0.8,5.8,2.4
	l-0.6,16.2C35,75.6,33.5,77,31.7,77c-0.2,0-0.4,0-0.6,0C27.7,76.4,22.5,74.3,19.6,72.3L19.6,72.3z M44.7,51.2l15.4,5
	c1.3,0.4,2.3,1.9,2.3,3.2c0,0.4-0.1,1-0.3,1.4c-1.5,3.2-5,7.6-7.7,9.9c-0.5,0.4-1.5,0.8-2.1,0.8c-1,0-2.3-0.7-2.8-1.6l-8.6-13.8
	C39.2,53.5,41.7,50.3,44.7,51.2z M62.5,36.8c0.2,0.4,0.3,1,0.3,1.3c0,1.4-1.1,2.8-2.4,3.2l-15.6,4.5c-3,0.9-5.4-2.5-3.7-5.1
	l9.1-13.4c0.5-0.8,1.8-1.5,2.8-1.5c0.7,0,1.7,0.4,2.2,0.8C57.8,29,61.1,33.6,62.5,36.8L62.5,36.8z"/>
</svg>
